<?xml version="1.0" encoding="UTF-8"?>
<!-- Generator: Adobe Illustrator 24.3.0, SVG Export Plug-In . SVG Version: 6.00 Build 0)  -->
<svg xmlns="http://www.w3.org/2000/svg" xmlns:xlink="http://www.w3.org/1999/xlink" version="1.1" id="Layer_1" x="0px" y="0px" viewBox="0 0 194.85 96.23" style="enable-background:new 0 0 194.85 96.23;" xml:space="preserve">
<style type="text/css">
	.st0{fill:#3C3C3B;}
</style>
<g>
	<path class="st0" d="M29.16,41.43c-0.09,0.03-0.25,0.02-0.1,0.17C29.09,41.64,29.18,41.53,29.16,41.43z"></path>
	<path class="st0" d="M28.71,42.2c0.09-0.14,0.1-0.25-0.01-0.35c-0.15,0.08-0.29,0.18-0.32,0.37c0,0,0,0,0,0   C28.5,42.22,28.62,42.21,28.71,42.2z"></path>
	<path class="st0" d="M73.58,79.69c-0.03-0.16,0.13-0.2,0.19-0.31c0-0.13,0-0.26,0-0.38c-0.09-0.09-0.21-0.17-0.27-0.28   c-0.24-0.45-0.47-0.91-0.7-1.35c0-0.11,0-0.2,0-0.3c-0.34-0.28-0.46-0.74-0.78-1.04c0.04-0.33-0.46-0.36-0.39-0.71   c-0.11-0.12-0.22-0.23-0.34-0.35c-0.21-0.21-0.41-0.41-0.62-0.62c-0.02-0.09-0.04-0.18-0.06-0.3c-0.23,0.05-0.34-0.1-0.48-0.23   c-0.2-0.21-0.44-0.39-0.61-0.62c-0.2-0.27-0.53-0.31-0.77-0.51c-0.16,0-0.32,0-0.49,0c-0.03,0-0.06-0.02-0.09-0.03   c-0.16-0.19-0.38-0.3-0.59-0.43c-0.21-0.12-0.34-0.37-0.47-0.52c-0.29,0-0.48,0-0.69,0c-0.25-0.44-0.78-0.47-1.15-0.77   c-0.56,0-1.14,0-1.85,0c-0.13-0.16-0.31-0.38-0.48-0.59c-0.16,0.01-0.28,0.01-0.38,0.02c-0.14,0.14-0.25,0.25-0.37,0.37   c-0.12,0-0.25,0-0.39,0c-0.06-0.06-0.13-0.12-0.2-0.19c-0.32,0-0.64,0-1.05,0c-0.07,0.11-0.18,0.26-0.26,0.38   c-0.27-0.15-0.48-0.26-0.65-0.35c-0.42,0-0.81,0-1.17,0c-0.14,0.14-0.25,0.25-0.37,0.37c-0.13,0-0.26,0-0.5,0   c-0.07,0.1-0.17,0.26-0.27,0.4c-0.3,0-0.56,0-0.8,0c-0.19,0.18-0.37,0.33-0.61,0.44c-0.22,0.1-0.36,0.36-0.51,0.52   c-0.18,0-0.3,0-0.46,0c-0.37,0.38-0.75,0.77-1.13,1.17c-0.33,0-0.65,0-0.97,0c-0.1,0.1-0.19,0.19-0.28,0.28c0,0.06,0,0.13,0,0.21   c-0.24,0.24-0.5,0.49-0.75,0.73c0.04,0.34-0.35,0.42-0.42,0.7c-0.07,0.3-0.41,0.41-0.52,0.66c-0.08,0.16-0.17,0.32-0.27,0.52   c0,0.22,0,0.47,0,0.72c-0.27,0.06-0.08,0.39-0.31,0.45c-0.1-0.01-0.19,0-0.25,0.1c0,0.06,0,0.12,0,0.18   c-0.13,0.14-0.27,0.28-0.4,0.42c0,0.2,0,0.39,0,0.58c-0.33,0.15-0.04,0.58-0.35,0.73c-0.02,0.22-0.03,0.44-0.05,0.63   c-0.13,0.13-0.25,0.25-0.37,0.37c0,0.58,0,1.16,0,1.74c-0.13,0.14-0.27,0.28-0.38,0.4c0,0.15,0,0.28,0,0.49   c0.11,0.07,0.28,0.18,0.4,0.26c0,0.4,0,0.72,0,1.02c0.13,0.13,0.25,0.25,0.37,0.37c0,0.26,0,0.51,0,0.78   c-0.13,0.14-0.26,0.27-0.38,0.4c0,0.21,0,0.4,0,0.59c0.21,0.16,0.2,0.46,0.42,0.62c0.2,0.15,0.38,0.35,0.56,0.53   c-0.08,0.22,0.12,0.29,0.2,0.44c0,0.11,0,0.24,0,0.45c0.11,0.07,0.28,0.18,0.4,0.26c0,0.4,0,0.72,0,1.05   c0.1,0.02,0.19,0.04,0.3,0.06c0.2,0.22,0.43,0.45,0.65,0.68c0.02,0.02,0,0.06,0,0.11c-0.05,0.09-0.11,0.19-0.17,0.28   c0.24,0.06,0.08,0.37,0.3,0.43c0.32,0.16,0.64,0.32,1.03,0.51c0.22,0.22,0.52,0.48,0.77,0.78c0.25,0.3,0.68,0.35,0.88,0.69   c0.14,0,0.27,0,0.42,0c0.09,0.11,0.2,0.22,0.28,0.36c0.12,0.21,0.21,0.43,0.32,0.64c0.04,0.08,0.14,0.12,0.19,0.17   c0.18,0,0.35,0,0.51,0c0.2,0.15,0.41,0.28,0.68,0.15c0.05-0.05,0.09-0.09,0.14-0.14c0.43,0.38,0.5,0.42,1.11,0.58   c0.11,0.03,0.21,0.12,0.34,0.21c0.16,0,0.35,0,0.56,0c0.04,0.23,0.26,0.13,0.38,0.22c0.15,0.11,0.23,0.31,0.49,0.35   c0.14-0.12,0.3-0.26,0.45-0.39c0.21,0,0.4,0,0.57,0c0.2,0.13,0.26,0.41,0.6,0.37c0.09-0.11,0.21-0.27,0.3-0.38   c0.97,0,1.88,0,2.79,0c0.16-0.16,0.32-0.32,0.48-0.48c0-0.06,0-0.12,0-0.18c0.1-0.2,0.4-0.04,0.48-0.32c0.4,0,0.82,0,1.19,0   c0.08-0.08,0.13-0.13,0.18-0.18c0.12,0,0.25,0,0.4,0c0.24-0.39,0.7-0.44,1.06-0.68c0-0.06,0-0.13,0-0.2   c0.13-0.06,0.26-0.12,0.39-0.19c0-0.08,0-0.14,0-0.2c0.06-0.1,0.16-0.1,0.35-0.09c0.2-0.25,0.45-0.54,0.66-0.8   c0.35,0,0.61,0,0.83,0c0.31-0.12,0.27-0.44,0.43-0.63c0.09-0.1,0.06-0.3,0.09-0.46c0.1-0.1,0.29-0.21,0.32-0.34   c0.03-0.2,0.2-0.31,0.24-0.49c0.02-0.09,0-0.19,0-0.34c0.19-0.17,0.41-0.35,0.58-0.51c0-0.18-0.01-0.27,0.09-0.34   c0.06,0,0.12-0.01,0.19-0.01c0.17-0.18,0.39-0.32,0.52-0.56c-0.02-0.12-0.01-0.27-0.08-0.36c-0.07-0.11-0.17-0.19-0.11-0.4   c0.37,0.01,0.53-0.32,0.76-0.56c-0.03-0.16,0.05-0.33-0.1-0.46c-0.18-0.15-0.1-0.34-0.05-0.57c0.36-0.07,0.29-0.51,0.54-0.71   c0-0.97,0-1.94,0-2.94c0.27-0.09,0.18-0.43,0.37-0.58c0-0.65,0-1.3,0-1.93c-0.2-0.2-0.38-0.38-0.56-0.56   C73.57,79.77,73.58,79.72,73.58,79.69z M72.23,84.23c-0.06,0.07-0.12,0.14-0.2,0.22c0,0.44,0,0.89,0,1.34   c-0.07,0.07-0.13,0.14-0.2,0.22c0,0.26,0,0.51,0,0.71c-0.28,0.53-0.52,1.01-0.78,1.49c-0.13,0.24-0.17,0.53-0.39,0.72   c0.06,0.37-0.47,0.43-0.41,0.8c-0.21,0.21-0.42,0.41-0.62,0.62c-0.14,0.16-0.36,0.26-0.36,0.54c0,0.09-0.17,0.26-0.26,0.26   c-0.28,0-0.36,0.25-0.54,0.35c-0.16,0.09-0.34,0.12-0.47,0.28c-0.14,0.17-0.32,0.32-0.48,0.48c-0.14,0.14-0.28,0.27-0.47,0.47   c-0.28,0-0.53,0-0.78,0c-0.12,0.12-0.24,0.24-0.37,0.37c-0.18,0-0.37,0-0.55,0c-0.32,0.27-0.73,0.34-1.04,0.59   c-0.08,0.06-0.25,0.01-0.36,0.01c-0.08,0.07-0.16,0.14-0.22,0.19c-0.5,0-0.98,0-1.47,0c-0.21,0.05-0.32,0.39-0.61,0.21   c-0.07-0.06-0.14-0.12-0.24-0.19c-0.42,0-0.87,0-1.32,0c-0.08-0.07-0.15-0.13-0.23-0.2c-0.56,0-1.15,0-1.72,0   c-0.32-0.26-0.71-0.35-1.04-0.58c-0.08-0.06-0.25-0.01-0.36-0.01c-0.13-0.13-0.25-0.25-0.38-0.38c-0.11,0-0.24,0-0.33,0   c-0.27-0.1-0.33-0.46-0.65-0.4c-0.16-0.16-0.35-0.3-0.47-0.48c-0.11-0.16-0.42,0.01-0.41-0.3c0.01-0.19-0.19-0.24-0.28-0.37   c-0.23,0.03-0.34-0.14-0.47-0.28c-0.11-0.11-0.23-0.2-0.24-0.39c0-0.1-0.15-0.27-0.24-0.27c-0.45-0.03-0.5-0.43-0.67-0.69   c-0.2-0.33-0.33-0.7-0.49-1.06c-0.08-0.02-0.17-0.04-0.26-0.07c-0.17-0.2,0-0.44-0.14-0.72c-0.07-0.07-0.2-0.21-0.32-0.34   c-0.01-0.15,0.03-0.31-0.03-0.39c-0.1-0.13-0.2-0.24-0.17-0.42c0.03-0.15-0.07-0.23-0.2-0.35c0-0.32,0-0.67,0-0.98   c-0.08-0.08-0.13-0.13-0.18-0.18c0-0.25,0-0.5,0-0.75c-0.25-0.18-0.14-0.55-0.38-0.63c-0.05-0.21,0.07-0.25,0.16-0.37   c0-0.23,0-0.52,0-0.76c0.08-0.08,0.13-0.13,0.17-0.17c0.04-0.12-0.09-0.13-0.14-0.24c0-0.15,0-0.34,0-0.51   c0.2-0.39,0.39-0.77,0.56-1.15c0.04-0.08,0.01-0.19,0.01-0.28c0.07-0.08,0.14-0.15,0.2-0.22c0-0.39,0-0.77,0-1.13   c0.14-0.17,0.27-0.31,0.38-0.47c0.03-0.04,0.03-0.12,0.03-0.14c0.23-0.35,0.57-0.53,0.76-0.89c0.17-0.33,0.49-0.58,0.76-0.89   c0-0.03,0-0.09,0-0.16c0.23-0.23,0.46-0.45,0.69-0.68c0.06,0,0.12,0,0.2,0c0.11-0.24,0.22-0.49,0.35-0.76   c0.1-0.01,0.23-0.01,0.3-0.02c0.29-0.29,0.56-0.57,0.82-0.82c0.32,0.17,0.37-0.22,0.58-0.15c0.26,0.09,0.39-0.16,0.6-0.21   c0.17-0.04,0.3-0.22,0.49-0.37c0.07,0,0.25,0.05,0.32-0.01c0.18-0.18,0.49-0.14,0.63-0.38c0.32,0,0.65,0,0.96,0   c0.07-0.07,0.14-0.13,0.21-0.19c0.38,0.05,0.64-0.2,1.04-0.37c0.66,0,1.43,0,2.3,0c0.07,0.1,0.18,0.25,0.29,0.41   c0.12-0.11,0.18-0.17,0.25-0.23c0.19,0,0.39,0,0.58,0c0.53,0.36,0.61,0.38,1.39,0.41c0.22,0.15,0.22,0.15,0.55,0.17   c0.17,0.24,0.49,0.32,0.71,0.53c0.21,0.2,0.51,0.23,0.69,0.46c0.19,0.25,0.53,0.27,0.8,0.42c0.02,0.08,0.04,0.17,0.06,0.26   c0.14,0.11,0.36,0.08,0.47,0.27c0.08,0.14,0.25,0.16,0.39,0.22c0.17,0.07,0.28,0.26,0.42,0.4c0.14,0.14,0.3,0.26,0.4,0.42   c0.08,0.12,0.06,0.3,0.21,0.4c0.17,0.11,0.22,0.29,0.27,0.47c0.09,0.02,0.18,0.05,0.25,0.07c0.15,0.3,0.3,0.6,0.47,0.94   c0,0.1,0,0.26,0,0.42c0.11,0.21,0.23,0.43,0.38,0.7c0,0.12,0,0.31,0,0.5c0.07,0.08,0.13,0.15,0.2,0.23c0,0.18,0,0.37,0,0.54   c0.05,0.14,0.23,0.17,0.2,0.33c-0.03,0.17,0.17,0.18,0.2,0.31c0,0.32,0,0.65,0,0.96c0.05,0.05,0.1,0.1,0.17,0.17   c0,0.17,0,0.35,0,0.6c-0.02,0.02-0.07,0.1-0.15,0.2c0,0.22,0,0.47,0,0.76C72.12,83.81,72.36,83.95,72.23,84.23z"></path>
	<path class="st0" d="M0,20.53c0,0.07,0.06,0.13,0.21,0.17c0.06,0.02,0.15,0.08,0.28,0.01c0.2-0.11,0.14-0.33-0.01-0.46   C0.22,20.25,0,20.32,0,20.53z"></path>
	<path class="st0" d="M159.21,41.16c-0.17-0.13-0.32-0.25-0.44-0.34c0-0.26,0-0.45,0-0.65c-0.13-0.07-0.27-0.13-0.4-0.2   c-0.13-0.08-0.19-0.25-0.37-0.29c-0.14-0.03-0.27-0.13-0.4-0.2c-0.22,0.18-0.52,0.2-0.71,0.43c-0.2,0.24-0.45,0.46-0.65,0.66   c0.02,0.2-0.05,0.37,0.11,0.49c0.12,0.09,0.12,0.21,0.05,0.33c-0.15,0.09-0.31,0.04-0.46,0.03c-0.14-0.14-0.3-0.26-0.41-0.42   c-0.14-0.2-0.44-0.1-0.54-0.34c-0.19,0-0.39,0-0.58,0c-0.32-0.14-0.58-0.35-0.79-0.58c-0.35-0.04-0.5-0.1-0.95-0.38   c-0.41-0.04-0.83,0.02-1.2-0.03c-0.09-0.09-0.13-0.13-0.18-0.18c-0.58,0-1.17,0-1.75,0c-0.07,0.07-0.14,0.13-0.21,0.2   c-0.45,0-0.9,0-1.28,0c-0.35,0.18-0.67,0.31-0.94,0.5c-0.21,0.15-0.53-0.03-0.68,0.26c-0.01,0.03-0.12,0.01-0.18,0.02   c-0.06,0-0.13,0-0.26,0c-0.05,0.06-0.15,0.15-0.21,0.26c-0.09,0.17-0.28,0.12-0.41,0.19c-0.25,0.14-0.48,0.28-0.67,0.49   c-0.13,0.14-0.27,0.28-0.41,0.41c-0.07,0-0.13,0-0.2,0c-0.19,0.13-0.25,0.35-0.36,0.53c-0.13,0.22-0.34,0.39-0.54,0.55   c-0.33,0.26-0.41,0.71-0.75,0.96c0.03,0.29-0.33,0.48-0.21,0.79c-0.25,0.14-0.09,0.46-0.22,0.58c-0.2,0.19-0.1,0.42-0.19,0.61   c-0.04,0.08-0.11,0.14-0.18,0.22c0,0.45,0,0.9,0,1.33c-0.14,0.14-0.25,0.25-0.37,0.37c0,0.32,0,0.65,0,0.97   c0.24,0.14,0.18,0.46,0.4,0.62c0,0.38,0,0.76,0,1.15c0.31,0.13,0.08,0.49,0.28,0.67c0.23,0.2-0.01,0.5,0.14,0.72   c0.11,0.11,0.23,0.23,0.34,0.34c0,0.13,0,0.26,0,0.39c0.16,0.19,0.42,0.31,0.41,0.61c0.19,0.1,0.15,0.33,0.27,0.47   c0.17,0.22,0.52,0.31,0.49,0.67c0.21,0.21,0.4,0.43,0.62,0.62c0.21,0.18,0.45,0.32,0.67,0.49c0.15,0.11,0.23,0.3,0.43,0.36   c0.2,0.06,0.39,0.16,0.57,0.26c0.16,0.09,0.23,0.28,0.45,0.33c0.2,0.04,0.36,0.23,0.6,0.19c0.07-0.01,0.15,0.1,0.29,0.19   c0.21,0,0.5,0,0.74,0c0.15,0.15,0.26,0.26,0.38,0.38c0.19,0,0.39,0,0.58,0c0.1,0.07,0.15,0.22,0.4,0.18   c0.12-0.23,0.53-0.15,0.67-0.48c-0.06-0.07-0.12-0.14-0.18-0.2c0.1-0.1,0.19-0.19,0.28-0.28c0.26,0,0.52,0,0.78,0   c0.02,0,0.05,0.04,0.07,0.07c0.1,0.29-0.15,0.37-0.29,0.51c-0.13,0.06-0.36-0.13-0.4,0.18c0.22,0,0.44,0,0.62,0   c0.11-0.08,0.18-0.14,0.23-0.18c0.19,0,0.36,0,0.52,0c0.1,0.07,0.2,0.14,0.25,0.19c0.21,0.03,0.27-0.18,0.36-0.17   c0.2,0.01,0.28-0.19,0.41-0.19c0.23-0.01,0.41-0.09,0.61-0.19c0.15-0.08,0.37-0.03,0.57-0.04c0.13-0.27,0.41-0.11,0.6-0.21   c0.07-0.21,0.13-0.42,0.34-0.54c0.15-0.05,0.32,0.06,0.46-0.07c-0.05-0.19-0.23-0.27-0.34-0.41c-0.02-0.02-0.02-0.03-0.03-0.03   c0.01,0.01,0.04,0.01,0.07-0.04c0.25-0.14,0.45,0.03,0.66,0.11c0.04-0.11,0.08-0.23,0.12-0.35c0.27,0,0.53,0,0.78,0   c0.03,0,0.05,0.03,0.08,0.05c0.19,0.23-0.1,0.32-0.13,0.43c0,0.25,0,0.44,0,0.64c0.24,0.22,0.48,0.43,0.72,0.64   c0.19-0.05,0.24,0.19,0.41,0.19c0.1,0,0.19,0,0.3,0c0.07-0.06,0.14-0.12,0.21-0.19c0.12,0,0.25,0,0.39,0   c0.22-0.23,0.45-0.46,0.68-0.7c0-1.34,0-2.71,0-4.18c-0.09-0.06-0.26-0.17-0.38-0.25c0-3.3,0-6.54,0-9.69   C158.94,41.68,159.06,41.44,159.21,41.16z M156.62,47.95c0,0.47,0,0.92,0,1.29c-0.36,0.71-0.68,1.35-1.07,2.12   c-0.45,0.44-1,0.99-1.56,1.55c-0.11,0-0.24,0-0.41,0c-0.14,0.15-0.29,0.31-0.45,0.48c-0.15,0.15-0.28,0.35-0.54,0.34   c-0.1,0.23-0.44,0.1-0.54,0.35c-0.19,0-0.38,0-0.58,0c-0.07,0.07-0.14,0.13-0.21,0.2c-0.65,0-1.29,0-1.94,0   c-0.07-0.07-0.14-0.13-0.21-0.19c-0.17,0-0.33,0-0.5,0c-0.18-0.16-0.46-0.16-0.63-0.35c-0.21-0.24-0.5-0.33-0.85-0.46   c-0.36-0.36-0.77-0.77-1.18-1.19c-0.21-0.21-0.41-0.41-0.62-0.62c-0.02-0.02,0.01-0.07-0.01-0.09c-0.19-0.34-0.31-0.72-0.53-1.04   c-0.06-0.09-0.02-0.25-0.05-0.37c-0.02-0.08-0.1-0.16-0.19-0.29c0-0.63-0.01-1.25,0.01-1.86c0.01-0.27-0.12-0.59,0.17-0.8   c-0.08-0.3,0.21-0.51,0.21-0.79c0.27-0.3,0.33-0.72,0.58-1.02c0.05-0.07,0.04-0.2,0.1-0.24c0.22-0.15,0.28-0.4,0.41-0.61   c0.03-0.05,0.09-0.13,0.14-0.13c0.29-0.02,0.46-0.23,0.6-0.42c0.37-0.5,0.94-0.69,1.45-0.97c0.11-0.06,0.22-0.11,0.32-0.2   c0.44,0,0.89,0,1.35,0c0.14-0.13,0.28-0.27,0.42-0.4c0.03,0,0.07,0,0.1,0c0.03,0,0.09-0.01,0.09,0.01c0.1,0.24,0.43,0.12,0.55,0.36   c0.37,0,0.76,0,1.14,0c0.08,0.07,0.15,0.18,0.22,0.18c0.46-0.02,0.76,0.37,1.19,0.43c0.25,0.33,0.69,0.42,0.96,0.75   c0.23,0.27,0.48,0.53,0.76,0.75c0.25,0.21,0.33,0.52,0.53,0.75c-0.03,0.28,0.23,0.36,0.37,0.56c0,0.17,0,0.36,0,0.51   c0.15,0.28,0.28,0.51,0.4,0.73c0.03,0.18-0.12,0.23-0.18,0.32C156.38,47.76,156.52,47.86,156.62,47.95z M156.69,54.71   c0.01-0.01,0.03-0.02,0.04-0.03l0,0C156.72,54.68,156.7,54.7,156.69,54.71z"></path>
	<path class="st0" d="M171.73,39.71c-0.66,0-1.23,0-1.74,0c-0.14,0.08-0.22,0.17-0.3,0.17c-0.16,0-0.21,0.14-0.31,0.19   c-0.14,0.06-0.3-0.03-0.46,0.07c-0.55,0.34-1.15,0.58-1.7,0.88c-0.25-0.14-0.22-0.41-0.38-0.56c-0.18-0.17-0.32-0.36-0.6-0.43   c-0.19-0.04-0.25-0.38-0.55-0.34c-0.13,0.12-0.27,0.26-0.41,0.39c-0.13,0-0.25,0-0.38,0c-0.35,0.29-0.42,0.75-0.67,1.09   c-0.11,0.15,0.12,0.26,0.18,0.38c0,4.56,0,9.09,0,13.61c-0.07,0.08-0.12,0.15-0.18,0.22c0.29,0.14,0.12,0.42,0.22,0.6   c0.16,0.16,0.35,0.3,0.48,0.49c0.14,0.21,0.45,0.09,0.55,0.34c0.26,0,0.51,0,0.78,0c0.06-0.06,0.13-0.12,0.2-0.19   c0.06,0,0.13,0,0.19,0c0.09-0.09,0.18-0.18,0.28-0.28c0-0.12,0-0.25,0-0.37c0.07-0.07,0.13-0.15,0.2-0.22c0-3.56,0-7.12,0-10.71   c0.39-0.23,0.44-0.7,0.68-1.06c0.06,0,0.13,0,0.21,0c0.08-0.15,0.25-0.23,0.31-0.45c0.04-0.19,0.26-0.39,0.44-0.48   c0.17-0.08,0.36-0.14,0.46-0.3c0.12-0.19,0.34-0.12,0.49-0.26c0.14-0.14,0.37-0.24,0.56-0.25c0.22-0.01,0.35-0.11,0.52-0.23   c0.3,0,0.62,0,0.94,0c0.07-0.26,0.38-0.09,0.46-0.29c0-0.06,0.01-0.13,0.02-0.28c0.1-0.07,0.26-0.18,0.35-0.24c0-0.35,0-0.6,0-0.83   c-0.15-0.17-0.28-0.27-0.48-0.32C171.93,40,171.82,39.79,171.73,39.71z"></path>
	<path class="st0" d="M194.36,16.29c0.26-0.27,0.29-0.47-0.02-0.66c-0.45,0.16-0.86,0.33-0.95,0.69c0,0,0,0,0,0.01   C193.74,16.32,194.08,16.31,194.36,16.29z"></path>
	<path class="st0" d="M194.31,72.19c-0.2,0-0.6-0.07-0.87-0.07l-0.37,0.2l-0.08,0.21l0.27,0.14l0.22,0.22   c0.29-0.01,0.8-0.12,1.04-0.12c0.1-0.15,0.36-0.11,0.33-0.31C194.81,72.19,194.58,72.33,194.31,72.19z"></path>
	<path class="st0" d="M192.63,72.2c-0.46-0.09-0.64-0.33-1.18-0.25c-0.13,0.15-0.33,0.12-0.52,0.34c-0.23,0.14-0.26-0.28-0.86-0.33   c-0.11,0-0.18,0.03-0.29,0.03c0-0.47,0-0.92,0-1.36c0.07-0.07,0.11-0.11,0.17-0.17c0-0.12,0-0.25,0-0.36   c0.11-0.21,0.37-0.28,0.4-0.57c-0.04-0.05-0.09-0.14-0.16-0.19c-0.07-0.06-0.15-0.12-0.23-0.14c-0.1-0.03-0.18-0.07-0.24-0.13   c0-0.06,0-0.11,0-0.18c0.12-0.08,0.27-0.19,0.37-0.25c0-0.29,0-0.47,0-0.64c-0.04-0.05-0.08-0.1-0.13-0.14c0-0.04,0-0.08,0-0.12   c-0.07-0.07-0.13-0.14-0.19-0.2c0-0.06,0-0.11,0-0.16c0.05-0.05,0.09-0.1,0.14-0.15c0-0.07,0-0.15,0-0.22   c0.14-0.14,0.28-0.28,0.41-0.41c-0.1-0.18-0.27-0.3-0.41-0.46c0-0.16,0-0.32,0-0.48c0.08-0.09,0.16-0.18,0.22-0.25   c0-0.11,0-0.2,0-0.29c0.13-0.26,0.27-0.52,0.41-0.8c-0.16-0.12-0.32-0.23-0.44-0.31c0-0.66,0-1.24,0-1.82   c-0.07-0.07-0.13-0.14-0.2-0.21c0-0.13,0-0.26,0-0.38c0.07-0.07,0.13-0.14,0.19-0.2c0-0.21,0-0.4,0-0.58   c-0.37-0.6-0.37-0.6-0.34-1.01c0.11-0.11,0.23-0.23,0.35-0.35c0-0.25,0-0.51,0-0.77c0.07-0.07,0.13-0.14,0.2-0.21   c0.07-0.2-0.12-0.27-0.19-0.39c0-0.21,0-0.4,0-0.58c0.09-0.1,0.22-0.17,0.18-0.33c-0.06-0.1-0.13-0.2-0.21-0.34   c0-0.35,0-0.74,0-1.1c-0.13-0.13-0.25-0.25-0.37-0.37c0-0.16-0.01-0.32,0-0.48c0-0.06,0.04-0.11,0.06-0.17   c0.1-0.06,0.26,0,0.32-0.14c0-0.26,0-0.52,0-0.77c-0.07-0.08-0.13-0.15-0.18-0.2c0-0.34,0-0.66,0-0.98   c0.23-0.2,0.27-0.48,0.39-0.74c-0.06-0.07-0.17-0.13-0.18-0.21c-0.02-0.17-0.14-0.27-0.2-0.41c-0.05-0.12-0.11-0.34,0.05-0.44   c0.16-0.11,0.07-0.3,0.2-0.41c0.07-0.06,0.14-0.13,0.1-0.32c-0.2-0.11-0.2-0.42-0.35-0.61c0-0.61,0-1.18,0-1.74   c0.07-0.07,0.11-0.11,0.17-0.17c0-0.12,0-0.25,0-0.36c0.11-0.21,0.37-0.28,0.4-0.57c-0.04-0.05-0.09-0.14-0.16-0.19   c-0.07-0.06-0.15-0.12-0.23-0.14c-0.23-0.07-0.4-0.19-0.4-0.51c0.12-0.09,0.27-0.21,0.39-0.31c0-0.26,0-0.45,0-0.64   c-0.07-0.07-0.13-0.14-0.19-0.2c0-0.14,0-0.27,0-0.39c0.19-0.19,0.37-0.37,0.56-0.56c-0.14-0.28-0.48-0.4-0.59-0.75   c0.14-0.16,0.29-0.32,0.4-0.45c0-0.24,0-0.43,0-0.6c-0.13-0.13-0.25-0.25-0.37-0.37c0-0.9,0-1.81,0-2.72   c0.14-0.31,0.33-0.59,0.57-0.81c0-0.15,0-0.27,0-0.44c-0.37-0.08-0.31-0.51-0.58-0.72c0.06-0.26-0.05-0.56,0.04-0.79   c0.08-0.09,0.13-0.14,0.17-0.18c0-0.13,0-0.26,0-0.38c-0.07-0.08-0.13-0.15-0.18-0.2c0-0.15,0-0.27,0-0.39   c0.19-0.19,0.38-0.38,0.56-0.56c-0.12-0.21-0.24-0.42-0.37-0.65c0-0.35,0-0.74,0-1.11c-0.07-0.08-0.13-0.15-0.18-0.2   c0-0.15,0-0.28,0-0.38c0.07-0.09,0.13-0.16,0.17-0.2c0-0.81,0-1.59,0-2.35c-0.21-0.1-0.44-0.13-0.56-0.37c0-0.11,0-0.24,0-0.39   c0.12-0.13,0.25-0.26,0.39-0.41c0-0.58,0-1.16,0-1.74c0.07-0.08,0.13-0.15,0.19-0.21c0.03-0.24-0.05-0.44-0.21-0.63   c0-0.24,0-0.49,0-0.74c-0.24-0.13-0.17-0.34-0.18-0.56c0.25-0.25,0.52-0.52,0.78-0.78c-0.27-0.27-0.53-0.52-0.78-0.78   c-0.02-0.02,0-0.06,0-0.07c-0.02-0.18,0.15-0.22,0.19-0.32c0-0.14,0-0.26,0-0.38c-0.07-0.08-0.13-0.15-0.18-0.2   c0-0.22,0-0.41,0-0.59c0.06-0.06,0.1-0.1,0.18-0.18c0-0.18,0-0.4,0-0.56c0.1-0.13,0.15-0.2,0.19-0.25c0-0.19,0-0.36,0-0.53   c-0.06-0.06-0.12-0.13-0.18-0.21c0-0.18-0.06-0.36,0.11-0.53c0.08-0.07,0.08-0.23,0.15-0.32c0.09-0.11,0.15-0.2,0.1-0.34   c-0.21-0.15-0.58-0.13-0.57-0.48c0.32-0.32,0.61-0.61,0.96-0.96c0.1,0,0.29,0,0.52,0c0.09-0.26,0.44-0.16,0.59-0.4   c0.32,0,0.64,0,0.96,0c0.08-0.23,0.35-0.13,0.47-0.28c0-0.12,0-0.25,0-0.46c-0.23,0.08-0.35-0.14-0.6-0.25c-0.66,0-1.37,0-1.9,0   c-0.3-0.21-0.48-0.34-0.63-0.44c0-0.46,0-0.84,0-1.21c-0.13-0.1-0.21-0.19-0.17-0.35c0.05-0.06,0.12-0.13,0.19-0.2   c0-0.32,0-0.64,0-0.97c-0.29-0.24-0.46-0.56-0.58-0.91c0.1-0.19,0.2-0.38,0.31-0.56c0.13-0.21,0.1-0.38-0.03-0.6   c-0.15-0.25-0.37-0.51-0.29-0.84c-0.16-0.17-0.32-0.33-0.47-0.5c-0.1,0.1-0.19,0.19-0.29,0.29c0,0.19,0,0.38,0,0.57   c-0.07,0.07-0.13,0.14-0.2,0.22c0,0.25,0,0.51,0,0.77c-0.07,0.07-0.13,0.14-0.19,0.2c0,0.14,0,0.27,0,0.38   c0.07,0.08,0.13,0.15,0.18,0.2c0,0.22,0,0.41,0,0.59c-0.06,0.06-0.1,0.1-0.18,0.18c0,0.9,0,1.83,0,2.74   c-0.21,0.09-0.18,0.28-0.26,0.45c-0.29-0.02-0.5,0.35-0.82,0.19c-0.09-0.07-0.17-0.13-0.2-0.16c-0.24,0-0.43,0-0.6,0   c-0.07,0.07-0.11,0.11-0.18,0.18c-0.26-0.02-0.55,0.02-0.78-0.01c-0.09-0.09-0.13-0.13-0.18-0.18c-0.32,0-0.65,0-0.97,0   c-0.07,0.06-0.14,0.13-0.2,0.19c-0.72,0-1.43,0-2.13,0c-0.08-0.07-0.15-0.13-0.22-0.2c-0.97,0-1.94,0-2.89,0   c-0.09-0.07-0.16-0.13-0.2-0.17c-0.23,0-0.42,0-0.59,0c-0.31,0.31-0.61,0.61-0.91,0.91c-0.04,0.04-0.11,0.04-0.17,0.05   c-0.31-0.11-0.42-0.47-0.71-0.58c-0.12,0-0.22,0-0.32,0c-0.07,0.06-0.14,0.13-0.21,0.19c-0.58,0-1.16,0-1.74,0   c-0.07,0.07-0.14,0.13-0.2,0.19c-0.2,0-0.4,0-0.59,0c-0.05-0.05-0.1-0.13-0.14-0.14c-0.4-0.02-0.74-0.28-1.17-0.26   c-0.68,0.04-1.36,0.01-2.04,0.01c-0.13,0-0.29,0.02-0.37-0.04c-0.13-0.12-0.26-0.18-0.43-0.15c-0.19,0.04-0.24-0.18-0.4-0.21   c-0.14-0.02-0.27-0.13-0.38-0.19c-0.12,0-0.22,0-0.42,0c-0.15,0.16-0.34,0.37-0.53,0.58c-0.35-0.09-0.61,0.37-0.97,0.15   c-0.05-0.05-0.09-0.09-0.17-0.17c-0.31,0-0.66,0-0.98,0c-0.07-0.08-0.12-0.13-0.16-0.17c-0.33,0-0.65,0-0.97,0   c-0.07,0.07-0.14,0.13-0.2,0.19c-0.53,0-1.05,0-1.56,0c-0.14-0.14-0.15-0.55-0.36-0.63c0.01-0.45,0.03-0.91,0.04-1.36   c0.07-0.07,0.13-0.14,0.19-0.2c0.01-0.39,0.02-0.78,0.03-1.17c-0.25-0.14-0.13-0.4-0.2-0.59c-0.08-0.22-0.23-0.42-0.32-0.59   c0.01-0.23,0.01-0.42,0.02-0.64c0.29-0.08,0.31-0.37,0.46-0.57c0.16-0.21,0.17-0.39,0.06-0.6c-0.17-0.32-0.32-0.64-0.48-0.97   c0.01-0.21,0.01-0.44,0.02-0.65c0.15-0.25,0.29-0.49,0.41-0.69c0-0.14,0.01-0.24,0.01-0.33c-0.07-0.1-0.21-0.15-0.19-0.31   c0.02-0.15-0.13-0.2-0.21-0.3c-0.08-0.1-0.2-0.17-0.14-0.38c0.1-0.09,0.24-0.23,0.38-0.36c-0.1-0.24,0.23-0.3,0.22-0.58   c-0.23-0.03-0.14-0.31-0.25-0.49c-0.17-0.27-0.14-0.32-0.01-0.59c0.13-0.27,0.37-0.51,0.32-0.85c-0.09-0.2-0.35-0.28-0.38-0.51   c0.04-0.26,0.32-0.32,0.39-0.49c0.01-0.29,0.02-0.55,0.02-0.75c-0.14-0.19-0.28-0.32-0.35-0.49c-0.13-0.31-0.32-0.51-0.59-0.63   c-0.07,0.04-0.1,0.05-0.12,0.07c-0.12,0.11-0.24,0.23-0.35,0.34c-0.1-0.07-0.15-0.19-0.31-0.21c-0.11-0.01-0.2-0.15-0.31-0.18   c-0.12-0.03-0.25-0.01-0.47-0.01c-0.08,0.12-0.18,0.29-0.24,0.39c-0.2,0-0.3,0-0.45,0c-0.09-0.12-0.21-0.27-0.29-0.39   c-0.19,0-0.32,0-0.56,0c-0.07,0.1-0.18,0.26-0.27,0.4c-0.44,0-0.82,0-1.18,0c-0.09,0.07-0.15,0.12-0.22,0.17   c-0.07-0.07-0.11-0.11-0.17-0.18c-0.2,0-0.43,0-0.65,0c-0.06,0-0.12,0.03-0.18,0.05c-0.05,0.05-0.09,0.09-0.15,0.15   c-0.48,0-0.96,0-1.45,0c-0.06,0-0.11-0.04-0.18-0.06c-0.03-0.04-0.07-0.09-0.11-0.13c-0.59,0-1.18,0-1.83,0   c-0.08-0.12-0.2-0.27-0.27-0.37c-0.2,0-0.33,0-0.48,0c-0.15,0.32-0.55,0.43-0.66,0.81c-0.05,0.17-0.25,0.29-0.2,0.51   c0.01,0.06,0.03,0.12,0.04,0.18c0.04,0.05,0.09,0.09,0.14,0.14c0,0.28,0,0.56-0.02,0.74c-0.11,0.18-0.23,0.21-0.17,0.46   c0.05,0.03,0.13,0.18,0.18,0.37c0.04,0.2,0.37,0.25,0.35,0.48c-0.17,0.16-0.3,0.3-0.4,0.39c-0.01,0.28-0.01,0.47-0.02,0.68   c0.12,0.13,0.25,0.27,0.38,0.41c-0.02,0.71-0.04,1.43-0.06,2.13c0.05,0.05,0.1,0.1,0.16,0.17c-0.02,0.52-0.03,1.06-0.05,1.6   c-0.05,0.05-0.1,0.1-0.16,0.15c-0.03,0.92-0.06,1.85-0.08,2.77c0.12,0.1,0.2,0.19,0.16,0.36c-0.05,0.06-0.12,0.13-0.19,0.21   c-0.01,0.41-0.03,0.83-0.03,1.25c0,0.06,0.03,0.11,0.06,0.18c0.04,0.03,0.08,0.08,0.12,0.11c-0.02,0.53,0.05,1.21,0.05,1.72   c-0.16,0.16-0.32,0.32-0.48,0.48c-0.19,0-0.39,0-0.58,0c-0.23-0.13-0.28-0.39-0.42-0.58c-0.24-0.03-0.43,0.05-0.58,0.18   c-0.54,0.02-1.05,0.03-1.56,0.05c-0.13,0.27-0.42,0.08-0.59,0.21c-0.05,0.04-0.09,0.09-0.14,0.14c-0.07-0.06-0.14-0.12-0.21-0.19   c-0.1,0.13-0.24,0.16-0.39,0.22c-0.16,0.06-0.27,0.25-0.39,0.37c-0.17-0.01-0.29-0.01-0.43-0.02c-0.21-0.39-0.72-0.4-0.94-0.77   c-0.2,0-0.39,0-0.56,0c-0.08-0.07-0.16-0.13-0.2-0.17c-0.22,0-0.41,0-0.52,0c-0.4,0.2-0.72,0.37-1.05,0.54   c-0.04-0.04-0.11-0.1-0.19-0.17c-0.13,0-0.26,0-0.38,0c-0.08-0.07-0.15-0.13-0.2-0.18c-0.34,0-0.66,0-0.96,0   c-0.09,0.07-0.18,0.19-0.24,0.18c-0.34-0.04-0.56,0.22-0.85,0.31c-0.11,0.04-0.24,0.07-0.33,0.14c-0.1,0.09-0.19,0.17-0.5,0.09   c-0.16-0.17-0.42-0.45-0.66-0.71c-0.27,0-0.53,0-0.79,0c-0.19,0.2-0.36,0.38-0.53,0.56c-0.21,0-0.41,0-0.6,0   c-0.1-0.25-0.4-0.14-0.55-0.34c-0.09-0.11-0.34-0.11-0.44-0.01c-0.16,0.17-0.34,0.13-0.53,0.16c-0.08,0.01-0.15,0.11-0.28,0.21   c-0.22,0-0.51,0-0.75,0c-0.08,0.08-0.13,0.13-0.17,0.17c-0.65,0-1.3,0-1.97,0c-0.1-0.26-0.44-0.17-0.59-0.38c-0.26,0-0.52,0-0.75,0   c-0.08,0.07-0.15,0.12-0.23,0.18c-0.08-0.14-0.18-0.21-0.35-0.19c-0.06,0.05-0.13,0.11-0.21,0.18c-0.11,0-0.24,0-0.37,0   c-0.07,0.07-0.14,0.13-0.22,0.2c-0.19,0-0.38,0-0.58,0c-0.07-0.07-0.14-0.13-0.2-0.19c-0.21-0.08-0.28,0.14-0.39,0.18   c-0.35,0-0.67,0-0.98,0c-0.1-0.1-0.17-0.21-0.33-0.18c-0.1,0.07-0.2,0.13-0.25,0.17c-0.24,0-0.43,0-0.6,0   c-0.07-0.07-0.11-0.11-0.17-0.17c-0.31,0-0.63,0-0.96,0c-0.02,0-0.05-0.04-0.08-0.06c-0.04-0.04-0.08-0.08-0.12-0.13   c-0.2,0-0.39,0-0.58,0c-0.07,0.07-0.14,0.13-0.22,0.2c-0.13,0-0.26,0-0.37,0c-0.08,0.07-0.15,0.13-0.23,0.2c-0.45,0-0.9,0-1.34,0   c-0.06,0.06-0.1,0.1-0.18,0.18c-0.29,0-0.61,0-0.93,0c-0.17-0.24-0.45-0.16-0.68-0.25c-0.06-0.02-0.09-0.09-0.15-0.14   c-0.48,0-0.96,0-1.45,0c-0.06,0-0.11,0.04-0.18,0.06c-0.04,0.04-0.08,0.09-0.12,0.13c-0.59,0-1.17,0-1.75,0   c-0.07,0.07-0.14,0.13-0.22,0.2c-0.45,0-0.9,0-1.28,0c-0.31,0.16-0.55,0.28-0.75,0.39c-0.16-0.16-0.3-0.29-0.39-0.39   c-0.21,0-0.34,0-0.48,0c-0.13,0.13-0.27,0.26-0.4,0.38c-0.28,0-0.53,0-0.78,0c-0.23-0.24-0.59-0.26-0.75-0.58   c-0.69,0-1.37,0-2.05,0c-0.06,0-0.12,0.03-0.17,0.05c-0.05,0.05-0.09,0.09-0.14,0.14c-0.19,0-0.38,0-0.58,0   c-0.07-0.06-0.14-0.13-0.2-0.19c-0.13,0-0.26,0-0.39,0c-0.09,0.14-0.25,0.16-0.39,0.22c-0.16,0.07-0.27,0.25-0.36,0.34   c-0.79,0-1.49,0-2.18,0c-0.14-0.14-0.25-0.25-0.37-0.37c-0.13,0-0.26,0-0.42,0c-0.08,0.27-0.44,0.16-0.58,0.38   c-0.46,0-0.91,0-1.35,0c-0.12-0.12-0.24-0.24-0.36-0.36c-0.47,0-0.95,0-1.4,0c-0.14,0.14-0.25,0.25-0.37,0.37   c-0.58,0-1.17,0-1.87,0c-0.13-0.16-0.31-0.39-0.46-0.58c-0.12,0-0.19-0.02-0.25,0c-0.25,0.11-0.53,0.16-0.73,0.37   c-0.03,0.03-0.12,0.01-0.18,0.02c-0.13-0.08-0.2-0.27-0.43-0.18c-0.12,0.31-0.47,0.35-0.73,0.53c-0.14,0.1-0.37,0.11-0.52-0.06   c-0.07-0.08-0.16-0.1-0.27-0.09c-0.06,0.05-0.13,0.12-0.21,0.19c-1.67,0-3.36,0-4.9,0c-0.27-0.02-0.28-0.23-0.44-0.19   c-0.17-0.02-0.2,0.15-0.32,0.2c-0.4-0.05-0.68,0.22-0.97,0.37c-0.35,0-0.67,0-0.92,0c-0.32-0.2-0.65-0.27-0.79-0.57   c-0.67,0-1.32,0-1.96,0c-0.07,0.07-0.14,0.13-0.2,0.19c-0.14,0-0.27,0-0.38,0c-0.08-0.07-0.16-0.13-0.2-0.17c-0.22,0-0.41,0-0.53,0   c-0.28,0.15-0.49,0.26-0.7,0.38c-0.18,0.06-0.38-0.07-0.56,0.05c-0.05,0.05-0.09,0.09-0.14,0.14c-0.25,0-0.51,0-0.81,0   c-0.08-0.26-0.42-0.16-0.57-0.37c-0.07,0.06-0.14,0.12-0.19,0.16c-0.55,0-1.06,0-1.56,0c-0.06-0.06-0.11-0.11-0.16-0.16   c-0.21,0-0.42,0-0.63,0c-0.25,0.37-0.71,0.41-0.96,0.75c-0.19-0.19-0.37-0.37-0.56-0.56c-0.24-0.13-0.52-0.18-0.73-0.35   c-0.09-0.07-0.18-0.05-0.26-0.05c-0.07,0.07-0.15,0.13-0.2,0.18c-0.15,0-0.28,0-0.39,0c-0.1-0.1-0.17-0.21-0.39-0.17   c-0.07,0.07-0.18,0.18-0.29,0.29c-0.13,0.13-0.38,0.07-0.47,0.28c-0.39,0-0.78,0-1.17,0c-0.14,0.23-0.44,0.19-0.6,0.36   c-0.09-0.09-0.19-0.18-0.28-0.26c-0.01-0.1,0.03-0.21-0.1-0.29c-0.17,0-0.36,0-0.57,0c-0.25,0.15-0.39,0.47-0.72,0.6   c-0.1-0.08-0.2-0.15-0.29-0.21c-0.21,0-0.4,0-0.61,0c-0.13,0.29-0.36,0.18-0.58,0.15c-0.05-0.05-0.09-0.09-0.17-0.17   c-0.38,0-0.79,0-1.17,0c-0.08-0.08-0.13-0.13-0.18-0.18c-0.51,0-1.03,0-1.56,0c-0.06,0.06-0.13,0.12-0.2,0.19   c-0.13,0-0.26,0-0.38,0c-0.1,0.07-0.15,0.22-0.33,0.19c-0.22-0.12-0.46-0.25-0.67-0.37c-0.28,0-0.53,0-0.78,0   c-0.11,0.25-0.45,0.12-0.55,0.37c-0.45,0-0.9,0-1.35,0c-0.02,0-0.05,0.04-0.07,0.06c-0.07,0.1,0,0.26-0.14,0.33   c-0.77,0-1.55,0-2.33,0c-0.07-0.07-0.14-0.13-0.22-0.2c-0.19,0-0.39,0-0.57,0c-0.05-0.05-0.1-0.1-0.17-0.17c-0.52,0-1.06,0-1.6,0   c-0.05,0.05-0.1,0.1-0.15,0.15c-0.92,0-1.85,0-2.78,0c-0.24-0.08-0.4-0.29-0.64-0.37c-0.32,0.16-0.67,0.29-0.88,0.57   c-0.42,0-0.81,0-1.16,0c-0.1-0.08-0.17-0.14-0.23-0.18c-0.21,0-0.42-0.04-0.54,0.2c-0.44,0-0.89,0-1.34,0   c-0.03,0-0.05,0.03-0.08,0.05c-0.05,0.05-0.09,0.09-0.14,0.14c-0.51,0-1.03,0-1.55,0c-0.35-0.41-0.87-0.53-1.3-0.81   c-0.19,0.22-0.5,0.18-0.65,0.42c-0.26,0-0.52,0-0.79,0c-0.17,0.31-0.52,0.38-0.8,0.56c-0.05-0.05-0.09-0.09-0.17-0.17   c-0.31,0-0.66,0-0.97,0c-0.08-0.08-0.13-0.13-0.18-0.18c-0.31,0-0.64,0-1,0c-0.09,0.24-0.44,0.14-0.57,0.38c-0.33,0-0.65,0-1,0   c-0.09-0.28-0.43-0.19-0.58-0.37c-0.2,0-0.39,0-0.57,0c-0.13,0.13-0.25,0.25-0.37,0.37c-0.07-0.06-0.14-0.12-0.21-0.19   c-0.45,0-0.9,0-1.35,0c-0.18-0.12-0.25-0.39-0.54-0.39c-0.09,0.06-0.19,0.13-0.31,0.21c-0.16,0-0.35,0-0.53,0   c-0.13,0.13-0.25,0.25-0.37,0.37c-0.28,0-0.57,0-0.86,0c-0.06,0-0.11-0.04-0.17-0.05c-0.04-0.05-0.09-0.09-0.14-0.14   c-0.26,0-0.52,0-0.78,0c-0.07-0.07-0.14-0.13-0.2-0.19c-0.47,0-0.92,0-1.23,0c-0.37,0.11-0.39,0.35-0.48,0.55   c-0.22,0.05-0.44,0.06-0.65,0c-0.05-0.05-0.09-0.09-0.15-0.15c-0.31,0-0.63,0-0.95,0c-0.08-0.07-0.15-0.13-0.23-0.2   c-0.12,0-0.24,0-0.38,0c-0.06,0.06-0.13,0.12-0.2,0.19c-0.26,0-0.52,0-0.84,0c-0.09-0.12-0.21-0.27-0.29-0.38   c-0.26,0-0.45,0-0.63,0c-0.13,0.13-0.24,0.24-0.38,0.38c-0.4,0-0.82,0-1.24,0c-0.06,0-0.12-0.03-0.17-0.05   c-0.05-0.05-0.09-0.09-0.14-0.14c-0.22,0.01-0.44-0.06-0.66,0.06c-0.04,0.04-0.08,0.09-0.12,0.13c-0.46,0-0.92,0-1.36,0   c-0.07-0.06-0.14-0.12-0.21-0.18c-0.05,0.05-0.1,0.1-0.17,0.17c-0.59,0-1.19,0-1.78,0c-0.08-0.06-0.14-0.11-0.2-0.16   c-0.07,0.07-0.11,0.11-0.17,0.17c-0.18,0-0.37,0-0.55,0c-0.12,0.08-0.22,0.18-0.33,0.19c-0.16,0.01-0.2,0.15-0.31,0.2   c-0.58,0-1.17,0-1.82,0c-0.09-0.12-0.2-0.27-0.28-0.37c-0.66,0-1.24,0-1.8,0c-0.13,0.13-0.23,0.29-0.36,0.34   c-0.15,0.06-0.3,0.08-0.39,0.22c-0.46,0-0.91,0-1.36,0c-0.07,0.07-0.14,0.13-0.21,0.19c-0.13,0-0.26,0-0.38,0   c-0.08-0.07-0.15-0.13-0.2-0.18c-0.28,0-0.53,0-0.79,0C9.3,19.82,9.1,19.79,9,19.88c-0.27,0.24-0.5,0.24-0.74-0.02   c-0.18,0.01-0.29-0.08-0.4-0.2c-0.08-0.09-0.14-0.21-0.3-0.2c-0.19,0.01-0.24-0.2-0.37-0.28c0.07-0.07,0.13-0.14,0.19-0.21   c0-0.13,0-0.26,0-0.46c-0.12-0.09-0.27-0.2-0.4-0.3c0-0.25,0-0.44,0-0.61c-0.13-0.16-0.32-0.25-0.37-0.45   c-0.06-0.19,0.22-0.23,0.19-0.41c-0.04-0.21,0.33-0.26,0.19-0.49c-0.26-0.28-0.57-0.51-0.7-0.89c-0.04-0.1-0.15-0.21-0.42-0.16   c-0.03,0.05-0.11,0.19-0.24,0.39c0,0.08,0,0.28,0,0.46c0.07,0.08,0.13,0.15,0.19,0.21c0.03,0.24-0.04,0.44-0.18,0.6   c0,0.73,0,1.44,0,2.14c0.24,0.13,0.17,0.34,0.18,0.52c-0.08,0.11-0.17,0.21-0.26,0.3c-0.77,0-1.56,0-2.34,0   c-0.13,0.16-0.51,0.15-0.69,0.2c-0.36,0.02-0.32,0.16-0.49,0.17c-0.12,0.01-0.24-0.14-0.36-0.14c-0.09,0-0.31,0.04-0.39,0.08   c-0.18,0.07-0.33,0.13-0.44,0.3c0.01,0.07,0.01,0.16,0.13,0.23c0.14,0.09,0.3,0.13,0.41,0.14c0.15,0,0.3,0,0.44,0   c0.13,0,0.24-0.2,0.36-0.2c0.08,0,0.18,0.2,0.26,0.2c0.28,0,0.55,0,0.81,0c0.12-0.05,0.21-0.09,0.26-0.11   c0.23-0.02,0.3,0.1,0.42,0.1c0.2,0.01,0.35,0.06,0.46,0.14c0.23,0,0.46,0,0.69,0c0.09-0.04,0.17-0.08,0.25-0.13c0.1,0,0.2,0,0.29,0   c0.08,0.06,0.14,0.14,0.18,0.26c0.09,0.3-0.13,0.32-0.1,0.51c0.02,0.14,0.18,0.23,0.32,0.52c0,0.74-0.19,0.66-0.19,1.36   c0.07,0.08,0.12,0.14,0.17,0.2c-0.07,0.09-0.13,0.16-0.16,0.2c0,0.36,0,0.68,0,0.98c0.06,0.06,0.11,0.11,0.17,0.17   c0,0.11,0,0.24,0,0.4c-0.04,0.11-0.26,0.17-0.18,0.39c0.06,0.06,0.12,0.13,0.19,0.2c0,0.65,0,1.29,0,1.94   c0.07,0.07,0.13,0.14,0.2,0.22c0,0.45,0,0.9,0,1.34c0.07,0.08,0.12,0.14,0.18,0.21c-0.1,0.1-0.21,0.18-0.18,0.33   c0.07,0.1,0.13,0.2,0.19,0.27c0.04,0.19-0.1,0.25-0.18,0.35c0,0.12,0,0.25,0,0.38c-0.07,0.07-0.13,0.14-0.2,0.21   c0,0.13,0,0.26,0,0.32c0.15,0.29,0.28,0.53,0.4,0.77c-0.08,0.12-0.14,0.22-0.19,0.29c0,1,0,1.96,0,2.92   c0.25,0.11,0.12,0.45,0.37,0.55c0,1.81,0,3.63,0,5.48c0.27,0.08,0.16,0.44,0.39,0.58c0,0.26,0,0.52,0,0.77   c-0.09,0.1-0.22,0.17-0.18,0.33c0.06,0.09,0.13,0.19,0.17,0.27c0,0.28,0,0.54,0,0.78c-0.12,0.1-0.21,0.19-0.17,0.35   c0.05,0.06,0.11,0.13,0.18,0.21c0,0.12,0,0.25,0,0.37c0.13,0.14,0.27,0.28,0.4,0.42c0,2.01,0,4.02,0,6.01   c0.07,0.09,0.13,0.16,0.17,0.2c0,0.22,0,0.42,0,0.57c-0.05,0.11-0.18,0.12-0.14,0.24c0.23,0.11,0.1,0.44,0.35,0.54   c0,0.13,0,0.26,0,0.39C7.63,53.73,7.5,53.86,7.37,54c0.13,0.13,0.24,0.24,0.36,0.36c0,0.28,0,0.56,0,0.82   c-0.07,0.07-0.11,0.11-0.17,0.17c0,0.12,0,0.25,0,0.39c0.12,0.12,0.25,0.26,0.38,0.4c0,0.14,0,0.26,0,0.38   c-0.07,0.08-0.13,0.15-0.19,0.21c-0.03,0.24,0.05,0.44,0.21,0.63c0,1.01,0,2.05,0,3.08c0.26,0.11,0.11,0.45,0.37,0.55   c0,0.45,0,0.9,0,1.4c-0.25,0.08-0.15,0.43-0.38,0.58c-0.03,0.02,0,0.12,0.01,0.18c0.08,0.1,0.21,0.16,0.19,0.31   c0,0.17-0.26,0.21-0.16,0.52c0.07,0.05,0.23,0.16,0.35,0.24c0,0.73,0,1.37,0,2.02c0.03,0.13,0.24,0.14,0.18,0.38   c-0.09,0.17-0.22,0.41-0.35,0.64c0.18,0.18,0.37,0.37,0.55,0.55c0,0.22,0.06,0.44-0.05,0.65c-0.05,0.05-0.09,0.09-0.14,0.13   c0,0.46,0,0.91,0,1.36c0.07,0.07,0.13,0.14,0.19,0.2c0,0.27,0,0.53,0,0.77c-0.07,0.08-0.13,0.15-0.18,0.2c0,0.22,0,0.41,0,0.58   c0.08,0.09,0.14,0.17,0.2,0.25c0,0.26,0,0.51,0,0.76c0.25,0.11,0.12,0.45,0.37,0.55c0,0.52,0,1.03,0,1.56   c-0.06,0.06-0.12,0.13-0.19,0.2c0,0.2,0,0.39,0,0.58c0.07,0.07,0.13,0.14,0.2,0.22c0,0.19,0,0.39,0,0.57   c0.05,0.05,0.1,0.1,0.16,0.16C9.19,76.71,9.14,76.92,9,77.05c-0.17,0.16-0.4,0.26-0.64,0.41c-0.68,0-1.39,0-2.09,0   c-0.11,0.25-0.45,0.11-0.55,0.37c-0.32,0-0.64,0-0.99,0c-0.12,0.21-0.38,0.31-0.48,0.58c0.01,0.11,0.02,0.24,0.03,0.46   c0.29-0.22,0.33,0.1,0.42,0.12c0.6,0,1.12,0,1.59,0c0.11-0.08,0.18-0.14,0.22-0.17c0.2-0.04,0.25,0.15,0.36,0.16   c0.17,0.02,0.3,0.09,0.39,0.22c0.2,0,0.39,0,0.58,0c0.07-0.07,0.14-0.13,0.22-0.2c0.13,0,0.26,0,0.37,0   c0.08-0.07,0.14-0.12,0.22-0.18c0.07,0.26,0.38,0.1,0.47,0.31c0,0.31,0,0.64,0,0.95c0.08,0.1,0.19,0.16,0.2,0.32   c0.01,0.11,0.15,0.2,0.18,0.31c0.03,0.12,0.01,0.25,0.01,0.36c0.13,0.08,0.19,0.21,0.32,0.26c-0.02,0.21-0.03,0.43-0.05,0.63   C9.75,81.97,9.73,82,9.7,82.02c0.03,0.13-0.03,0.28,0.04,0.4c-0.01,0.16-0.02,0.33-0.03,0.47c0.21,0.65,0.41,0.72,0.66,0.01   c-0.01-0.25-0.03-0.5-0.05-0.74c0.18-0.25,0.3-0.55,0.56-0.74c-0.35-0.24-0.42-0.7-0.76-0.95c-0.02-0.01-0.02-0.06-0.03-0.11   c0.01-0.1,0.01-0.23,0.02-0.32c0.18-0.18,0.42,0.03,0.57-0.18c0-0.15-0.01-0.31,0-0.47c0.01-0.19-0.05-0.38,0.03-0.53   c0.26-0.23,0.34,0.11,0.51,0.1c1.23,0,2.45,0,3.67,0c0.09-0.13,0.24-0.25,0.33-0.16c0.18,0.18,0.48,0.15,0.62,0.38   c0.2,0,0.39,0,0.57,0c0.08-0.07,0.15-0.13,0.23-0.2c1.1,0,2.2,0,3.3,0c0.1-0.16,0.24-0.22,0.41-0.18c0.19,0.04,0.25-0.17,0.39-0.2   c1.21,0,2.41,0,3.63,0c0.06-0.05,0.13-0.12,0.22-0.19c0.11,0,0.24,0,0.38,0c0.06,0.05,0.13,0.12,0.2,0.19c0.32,0,0.64,0,0.96,0   c0.07,0.06,0.14,0.13,0.21,0.19c0.14-0.25,0.39-0.17,0.6-0.21c0.08-0.09,0.16-0.2,0.31-0.17c0.1,0.07,0.2,0.13,0.29,0.19   c0.11,0,0.21,0,0.31,0c0.1-0.07,0.2-0.14,0.27-0.19c0.2,0,0.36,0,0.53,0c0.07-0.06,0.14-0.13,0.21-0.19c0.13,0,0.26,0,0.38,0   c0.07,0.07,0.14,0.13,0.2,0.19c0.2,0,0.4,0,0.58,0c0.08-0.07,0.15-0.13,0.17-0.15c0.22-0.09,0.29,0.04,0.4,0.14   c0.27,0,0.55,0,0.79,0c0.11-0.08,0.18-0.14,0.2-0.15c0.38,0,0.7,0,0.99,0c0.07,0.07,0.11,0.11,0.17,0.17c0.64,0,1.29,0,1.94,0   c0.07,0.07,0.14,0.13,0.21,0.2c0.19,0,0.39,0,0.58,0c0.07-0.07,0.14-0.13,0.22-0.2c0.26,0,0.52,0,0.76,0   c0.11-0.08,0.17-0.22,0.35-0.18c0.08,0.05,0.18,0.12,0.28,0.19c0.24,0.05,0.41-0.09,0.56-0.17c0.23,0,0.42,0,0.59,0   c0.07,0.07,0.12,0.12,0.16,0.16c0.22-0.01,0.44,0.06,0.66-0.05c0.04-0.04,0.08-0.09,0.12-0.13c0.27,0,0.53,0,0.78,0   c0.07,0.07,0.14,0.13,0.2,0.19c0.79,0,1.57,0,2.33,0c0.08-0.07,0.16-0.13,0.22-0.19c0.76,0,1.51,0,2.25,0   c0.05,0,0.1,0.06,0.16,0.09c0,0.13,0,0.26,0,0.39c-0.06,0.07-0.12,0.14-0.18,0.2c0.07,0.07,0.13,0.15,0.2,0.22   c0,0.58,0,1.16,0,1.79c0.2-0.01,0.35,0.08,0.49,0.22c0.04,0.04,0.19,0.04,0.26-0.07c0.05-0.2-0.05-0.45,0.21-0.59   c0-0.13,0-0.25,0-0.38c0.13-0.14,0.27-0.28,0.4-0.42c0-0.32,0-0.65,0-0.97c0.25-0.1,0.12-0.43,0.34-0.55   c0.05-0.03,0.03-0.18,0.04-0.27c0.03-0.24,0.32-0.41,0.19-0.7c0.2-0.2,0.23-0.49,0.39-0.7c0-0.12,0-0.21,0-0.3   c0.07-0.08,0.14-0.14,0.19-0.22c0.03-0.05,0.01-0.12,0.03-0.33c0.13-0.13,0.33-0.33,0.56-0.56c0-0.03-0.04-0.16,0.01-0.22   c0.3-0.39,0.37-0.92,0.79-1.23c0.2-0.15,0.38-0.33,0.42-0.6c0.01-0.05,0.08-0.11,0.13-0.14c0.49-0.19,0.79-0.63,1.16-0.97   c0.12-0.11,0.25-0.22,0.34-0.35c0.11-0.15,0.28-0.12,0.4-0.21c0.13-0.1,0.23-0.32,0.35-0.32c0.25,0,0.33-0.17,0.47-0.3   c0.16-0.15,0.4-0.14,0.55-0.33c0.11-0.14,0.21-0.33,0.43-0.36c0.25-0.03,0.32-0.29,0.54-0.4c0.11,0,0.24,0,0.52,0   c0.04-0.08,0.13-0.26,0.19-0.38c0.24,0,0.41,0.02,0.57-0.01c0.11-0.02,0.2-0.15,0.31-0.18c0.33-0.09,0.46-0.43,0.73-0.59   c0.2,0.07,0.26-0.15,0.45-0.21c0.21,0,0.46,0,0.64,0c0.28-0.15,0.5-0.26,0.71-0.38c0.19-0.02,0.38,0.05,0.56-0.05   c0.05-0.05,0.09-0.09,0.14-0.14c0.45,0,0.9,0,1.35,0c0.07-0.07,0.14-0.13,0.21-0.19c0.2,0,0.39,0,0.58,0   c0.08,0.07,0.15,0.13,0.2,0.18c0.54,0,1.05,0,1.6,0c0.07-0.27,0.3-0.19,0.48-0.18c0.15,0,0.21,0.23,0.41,0.19   c0.15-0.03,0.31-0.01,0.43-0.01c0.09,0.09,0.13,0.13,0.19,0.19c0.31,0,0.64,0,0.96,0c0.14,0.13,0.28,0.27,0.42,0.4   c0.32,0,0.64,0,1.04,0c0.08,0.12,0.2,0.27,0.28,0.4c0.3-0.06,0.48,0.07,0.67,0.18c0.16,0,0.32,0,0.5,0   c0.27,0.25,0.55,0.52,0.83,0.78c0.34-0.05,0.38,0.44,0.71,0.39c0.21,0.19,0.42,0.39,0.63,0.58c0.41,0.07,0.69,0.38,1.03,0.57   c0.11,0.06,0.21,0.12,0.3,0.2c0.16,0.15,0.33,0.29,0.35,0.54c0,0.05,0.09,0.09,0.13,0.14c0.15,0.16,0.44,0.12,0.53,0.35   c0.08,0.2,0.15,0.41,0.35,0.54c0.22,0.14,0.3,0.38,0.42,0.59c0.1,0,0.2-0.02,0.25,0.07c0.02,0.1,0.04,0.19,0.06,0.27   c0.13,0.05,0.25,0.08,0.35,0.12c0,0.09,0,0.15,0,0.25c0.4,0.13,0.35,0.63,0.68,0.86c0.08,0.06,0.07,0.26,0.15,0.31   c0.18,0.12,0.11,0.35,0.26,0.49c0.13,0.11,0.1,0.35,0.28,0.47c0.15,0.11,0.27,0.26,0.4,0.39c0,0.35,0,0.67,0,0.98   c0.2,0.2,0.38,0.38,0.57,0.56c-0.07,0.2,0.12,0.28,0.2,0.42c0,0.18,0,0.37,0,0.56c0.1,0.1,0.19,0.19,0.29,0.29   c0.04-0.05,0.08-0.11,0.13-0.14c0.11-0.05,0.22-0.08,0.35-0.13c0-0.56,0-1.11,0-1.66c0-0.06,0.03-0.12,0.05-0.17   c0.02,0.02,0.04,0.04,0.06,0.06c0.13-0.19,0.25-0.37,0.32-0.48c0.63,0,1.14,0,1.64,0c0.1,0.13,0.19,0.2,0.35,0.17   c0.06-0.06,0.13-0.12,0.2-0.19c2.14,0,4.28,0,6.42,0c0.11-0.23,0.39-0.16,0.55-0.34c0.11-0.12,0.33-0.1,0.44-0.02   c0.19,0.15,0.4,0.23,0.62,0.31c0.12-0.12,0.23-0.23,0.34-0.35c0.33,0,0.65,0,0.97,0c0.07,0.07,0.14,0.13,0.2,0.19   c0.14,0,0.27,0,0.38,0c0.08-0.07,0.15-0.13,0.23-0.2c1.88,0,3.76,0,5.62,0c0.06-0.06,0.1-0.1,0.18-0.18c1.35,0,2.74,0,4.11,0   c0.12-0.27,0.46-0.13,0.56-0.38c0.07,0.06,0.14,0.13,0.21,0.19c0.13,0,0.25,0,0.38,0c0.07,0.07,0.14,0.13,0.2,0.19   c0.14,0,0.27,0,0.55,0c0.04-0.08,0.13-0.26,0.22-0.43c0.33,0.17,0.6,0.3,0.85,0.44c0.11,0,0.2,0,0.3,0   c0.07-0.06,0.14-0.13,0.21-0.19c2.08,0,4.15,0,6.22,0c0.07,0.07,0.14,0.13,0.2,0.19c0.14,0,0.27,0,0.38,0   c0.08-0.07,0.16-0.13,0.23-0.2c1.16,0,2.33,0,3.48,0c0.06-0.06,0.1-0.1,0.16-0.16c0.59,0,1.2,0,1.8,0   c0.13,0.24,0.34,0.16,0.54,0.18c0.07-0.06,0.14-0.12,0.21-0.19c1.8,0,3.62,0,5.47,0c0.08-0.27,0.44-0.16,0.59-0.4   c0.25,0,0.51,0,0.75,0c0.09-0.07,0.16-0.13,0.2-0.17c0.22,0,0.41,0,0.58,0c0.1,0.08,0.17,0.14,0.2,0.16c0.5,0,0.95,0,1.38,0   c0.07-0.07,0.11-0.11,0.19-0.19c0.25,0.07,0.54-0.06,0.81,0.05c0.06,0.06,0.1,0.1,0.15,0.15c0.45,0,0.9,0,1.36,0   c0.07-0.06,0.14-0.13,0.21-0.19c0.13,0,0.26,0,0.38,0c0.08-0.07,0.15-0.13,0.2-0.18c0.21,0,0.4,0,0.58,0   c0.09,0.07,0.16,0.13,0.2,0.17c1,0,1.97,0,2.93,0c0.06-0.06,0.11-0.11,0.16-0.16c0.27,0,0.56,0,0.83,0   c0.1,0.12,0.19,0.21,0.35,0.17c0.06-0.05,0.13-0.12,0.2-0.19c0.32,0,0.64,0,0.96,0c0.07-0.07,0.14-0.13,0.21-0.19   c0.13,0,0.26,0,0.38,0c0.08,0.07,0.15,0.13,0.2,0.18c1.51,0,3,0,4.58,0c0.07-0.11,0.18-0.28,0.22-0.34   c0.32-0.11,0.36,0.17,0.55,0.15c0.08,0,0.18,0,0.28,0c0.1-0.07,0.19-0.15,0.25-0.19c0.22-0.03,0.26,0.19,0.37,0.18   c0.19-0.01,0.28,0.13,0.39,0.2c0.34,0,0.66,0,1,0c0.15-0.31,0.52-0.33,0.74-0.57c0.25,0,0.5,0,0.74,0   c0.25,0.14,0.49,0.27,0.69,0.39c0.23-0.03,0.32-0.22,0.54-0.25c0.15-0.01,0.27-0.24,0.47-0.45c0.15,0.33,0.52,0.22,0.68,0.49   c0.19,0,0.39,0,0.58,0c0.07-0.07,0.14-0.13,0.2-0.19c0.21,0,0.4,0,0.58,0c0.08,0.07,0.15,0.13,0.22,0.19   c0.22-0.04,0.46,0.1,0.64-0.08c0.02-0.11,0.04-0.2,0.05-0.27c0.3-0.15,0.5,0.03,0.71,0.15c0.16,0,0.32,0,0.5,0   c0.06-0.06,0.13-0.12,0.22-0.19c0.11,0,0.3-0.05,0.36,0.01c0.17,0.2,0.47,0.15,0.62,0.37c0.08-0.06,0.15-0.13,0.22-0.19   c0.32,0,0.64,0,0.95,0c0.06-0.06,0.1-0.1,0.18-0.18c0.83,0,1.7,0,2.53,0c0.08-0.08,0.13-0.13,0.17-0.17   c0.22-0.02,0.44-0.06,0.67,0.03c0.1,0.11,0.21,0.22,0.32,0.34c0.14,0,0.27,0,0.39,0c0.07,0.06,0.14,0.12,0.2,0.18   c0.08-0.07,0.15-0.13,0.23-0.2c0.19,0,0.38,0,0.54,0c0.1-0.08,0.17-0.14,0.25-0.2c0.39,0,0.77,0,1.08,0   c0.15-0.05,0.15-0.2,0.27-0.13c0.05,0.05,0.1,0.1,0.14,0.14c0.26,0,0.51,0,0.78,0c0.07-0.06,0.14-0.13,0.2-0.19   c0.2,0,0.39,0,0.58,0c0.08,0.07,0.15,0.13,0.2,0.18c0.41,0,0.79,0,1.17,0c0.05-0.05,0.1-0.1,0.18-0.18c0.64,0,1.31,0,1.95,0   c0.15-0.15,0.26-0.26,0.39-0.39c0.18,0,0.38,0,0.57,0c0.1,0.06,0.2,0.17,0.3,0.18c0.16,0.01,0.2,0.15,0.31,0.2   c0.58,0,1.17,0,1.75,0c0.15-0.22,0.42-0.21,0.61-0.36c0.1,0.24,0.44,0.1,0.54,0.34c0.15,0,0.33,0.08,0.45-0.04   c0.15-0.16,0.42-0.12,0.53-0.3c0.21,0.12,0.42,0.24,0.61,0.34c0.6,0,1.18,0,1.75,0c0.06-0.06,0.11-0.11,0.19-0.19   c0.25,0,0.53,0,0.82,0c0.07-0.17,0.19-0.16,0.32-0.2c0.14-0.04,0.21-0.25,0.42-0.18c0.06,0.06,0.13,0.12,0.19,0.18   c1.57,0,3.12,0,4.66,0c0.09-0.07,0.15-0.15,0.23-0.18c0.09-0.03,0.2,0.02,0.29-0.01c0.11-0.04,0.2-0.14,0.31-0.18   c0.09-0.03,0.19-0.01,0.29-0.01c0.09,0,0.19,0.01,0.26,0.02c0.13,0.13,0.24,0.24,0.37,0.37c0.12,0,0.25,0,0.39,0   c0.06-0.06,0.13-0.12,0.2-0.19c0.13,0,0.26,0,0.38,0c0.07-0.07,0.14-0.13,0.21-0.2c0.39,0,0.78,0,1.15,0   c0.08-0.07,0.15-0.13,0.21-0.18c0.22-0.08,0.28,0.16,0.34,0.17c0.93,0,1.77,0,2.57,0c0.11-0.08,0.18-0.14,0.25-0.19   c0.28,0.16,0.88-0.04,1.1,0.26c0,0.06,0.02,0.58,0.06,0.89c0.07,0.61,0.18,1.26,0.19,1.41c0.01,0.25,0.29,0.42,0.16,0.71   c-0.11,0.2-0.07,0.37-0.12,0.64c0.03,0.05,0.37,0.26,0.43,0.29c0.01,0-0.34,0.14-0.34,0.19c0.04,0.37-0.1,0.65,0.28,0.9   c0.15-0.03,0.15,0.22,0.29,0.05c0.04-0.26,0.08-0.52,0.12-0.78c0.01-0.06-0.02-0.13-0.02-0.2c-0.03-0.06-0.06-0.12-0.08-0.17   c0.02-0.15,0.05-0.3,0.07-0.44c0.23-0.19,0.12-0.52,0.28-0.79c-0.04-0.09-0.07-0.18-0.12-0.28c0.02-0.16-0.02-0.66,0.01-1.07   c0.02-0.29,0.16-0.31,0.13-0.6c-0.02-0.22-0.13-0.44-0.13-0.63c0-0.39,0.05-0.42,0.05-0.57c0.24-0.11,0.08-0.04,0.29-0.03   c0.09,0.06,0.16,0.12,0.24,0.17c0.02,0.01,0.06,0,0.08,0c0.28-0.15,0.55-0.29,0.86-0.46c0.19,0.19,0.42,0.27,0.59,0.29   c0.2,0,0.4-0.01,0.59-0.01c0.1-0.08,0.17-0.05,0.33-0.06c0.08,0,0.16-0.09,0.23-0.15l0.13-0.23l-0.1-0.37L192.63,72.2z    M188.34,49.35c0,0.2,0,0.39,0,0.57c-0.06,0.06-0.1,0.1-0.16,0.16c0,0.33,0,0.68,0,1.01c0.06,0.06,0.11,0.11,0.17,0.17   c0,0.18,0,0.37,0,0.57c-0.21,0.14-0.11,0.49-0.4,0.58c0.07,0.07,0.12,0.12,0.16,0.16c0.02,0.02,0.05,0.05,0.05,0.07   c0,0.32,0,0.64,0,0.95c-0.06,0.06-0.11,0.11-0.15,0.15c0.09,0.21,0.14,0.45,0.34,0.62c0,0.25,0,0.51,0,0.77   c-0.23,0.27-0.3,0.64-0.52,0.94c-0.11,0.14-0.04,0.3-0.04,0.46c0.25,0.09,0.1,0.44,0.36,0.54c0,0.38,0,0.76,0,1.23   c-0.1,0.07-0.25,0.19-0.42,0.31c0.28,0.18,0.24,0.48,0.43,0.66c0.06,0.06,0.01,0.24,0.01,0.34c-0.08,0.1-0.14,0.17-0.19,0.23   c0,0.18,0,0.34,0,0.54c0.13,0.14,0.27,0.3,0.4,0.45c-0.1,0.36-0.44,0.49-0.62,0.8c0.11,0.22,0.24,0.46,0.4,0.78c0,0.3,0,0.68,0,1.1   c-0.04,0.05-0.1,0.12-0.17,0.2c0,0.11,0,0.24,0,0.37c-0.07,0.07-0.13,0.14-0.2,0.22c0,0.19,0,0.38,0,0.58   c0.06,0.07,0.13,0.14,0.2,0.21c0,0.13,0,0.26,0,0.37c0.07,0.08,0.13,0.15,0.18,0.2c0,0.67,0,1.32,0,1.95   c-0.06,0.06-0.1,0.1-0.17,0.17c0,0.2,0,0.42,0,0.62c0.06,0.06,0.11,0.11,0.16,0.16c0,0.57,0,1.15,0,1.76   c-0.04,0.05-0.1,0.12-0.17,0.2c0.06,0.06,0.12,0.13,0.18,0.2c0,0.12,0,0.25,0,0.38c0.07,0.07,0.13,0.14,0.2,0.21   c0,0.1,0,0.2,0,0.34c-0.02,0.04-0.04,0.07-0.07,0.1c-0.36,0-0.72,0-1.07,0c-0.19,0.23-0.48,0.26-0.78,0.42c0,0-0.01,0-0.01,0   c-0.1-0.15-0.2-0.3-0.28-0.42c-0.41,0-0.73,0-1.07,0c-0.06,0.05-0.13,0.12-0.2,0.19c-0.64,0-1.29,0-1.95,0   c-0.04,0.04-0.08,0.09-0.17,0.19c-0.24,0.02-0.53,0.01-0.8,0c-0.08-0.07-0.15-0.13-0.2-0.18c-0.17-0.04-0.26,0.05-0.34,0.15   c-0.18,0.04-0.95,0.14-1.33,0.05c-0.06-0.05-0.12-0.1-0.19-0.15c-0.13-0.02-0.29-0.03-0.43-0.05c-0.07-0.26-0.16-0.48-0.44-0.55   c-0.13,0-0.01-0.09-0.1,0c-0.18,0.18-0.36,0.37-0.55,0.57c-0.32,0-0.64,0-1.01,0c-0.04-0.03-0.11-0.09-0.2-0.16   c-0.16,0-0.35,0-0.58,0c-0.05,0.04-0.12,0.1-0.2,0.18c-0.37,0-0.76,0-1.15,0c-0.07,0.07-0.14,0.13-0.22,0.2c-0.19,0-0.38,0-0.58,0   c-0.04-0.04-0.08-0.09-0.16-0.17c-0.25,0-0.54,0-0.79,0c-0.08-0.08-0.13-0.13-0.2-0.2c-0.42,0-0.87,0-1.32,0   c-0.16-0.01-0.21,0.21-0.41,0.18c-0.12-0.02-0.25-0.03-0.35,0.1c-0.12,0.16-0.3,0.07-0.46,0.1c-0.07-0.06-0.14-0.12-0.22-0.19   c-0.18,0-0.37,0-0.58,0c-0.06,0.06-0.13,0.12-0.2,0.19c-0.19,0-0.38,0-0.58,0c-0.07-0.07-0.14-0.13-0.24-0.23   c-0.23,0.12-0.47,0.24-0.8,0.4c-0.25,0-0.59,0-0.92,0c-0.06-0.06-0.11-0.11-0.18-0.18c-0.17,0-0.37,0.03-0.55-0.01   c-0.23-0.05-0.32,0.2-0.5,0.2c-0.2,0-0.38,0.01-0.5,0.2c-0.24-0.12-0.29,0.24-0.56,0.18c-0.05-0.04-0.15-0.11-0.25-0.18   c-0.16,0-0.32,0-0.55,0c-0.1-0.1-0.21-0.28-0.37-0.36c-0.14-0.07-0.3-0.08-0.41-0.26c-0.13,0.19-0.25,0.36-0.44,0.65   c-0.03,0.02-0.19-0.07-0.33-0.04c-0.13-0.13-0.25-0.25-0.38-0.38c-0.11,0-0.24,0-0.45,0c-0.07,0.1-0.18,0.25-0.27,0.37   c-0.33,0-0.59,0-0.85,0c-0.16-0.26-0.53-0.15-0.66-0.46c-0.24,0.19-0.39,0.39-0.58,0.44c-0.17,0.04-0.23,0.21-0.4,0.21   c-0.03,0-0.06,0-0.1,0c-0.06,0-0.13,0-0.2,0c-0.07-0.06-0.14-0.12-0.21-0.19c-0.19,0-0.38,0-0.58,0c-0.07,0.06-0.14,0.13-0.21,0.19   c-0.19,0-0.38,0-0.58,0c-0.05,0.05-0.09,0.09-0.14,0.14c-0.06,0.02-0.12,0.05-0.17,0.05c-0.22,0.01-0.45,0-0.66,0   c-0.13-0.13-0.25-0.25-0.38-0.38c-0.31,0-0.63,0-0.96,0c-0.15,0.19-0.49,0.1-0.58,0.37c-0.74,0-1.45,0-2.17,0   c-0.04-0.04-0.09-0.09-0.14-0.13c-0.06-0.02-0.11-0.06-0.17-0.06c-0.62,0-1.23,0-1.84,0c-0.2,0.23-0.49,0.26-0.79,0.43   c-0.1-0.15-0.2-0.31-0.28-0.42c-0.41,0-0.73,0-1.07,0c-0.06,0.05-0.13,0.12-0.2,0.19c-0.64,0-1.29,0-1.95,0   c-0.04,0.04-0.08,0.09-0.17,0.19c-0.24,0.02-0.53,0.01-0.8,0c-0.08-0.07-0.15-0.13-0.2-0.18c-0.17-0.04-0.26,0.05-0.34,0.15   c-0.22,0.05-0.44,0.11-0.6-0.14c-0.67,0-1.34,0-1.99,0c-0.12,0.13-0.06,0.27-0.07,0.39c-0.01,0.09,0,0.19,0,0.34   c-0.21-0.07-0.41-0.13-0.54-0.24c-0.15-0.13-0.39-0.06-0.48-0.27c-0.22,0.08-0.45,0.14-0.62,0.33c-0.18,0-0.37,0-0.59,0   c-0.18-0.07-0.24-0.35-0.49-0.38c-0.21,0.03-0.29,0.23-0.47,0.37c-0.16,0-0.34,0-0.59,0c-0.25-0.1-0.36-0.45-0.68-0.58   c-0.31,0.12-0.45,0.44-0.72,0.6c-0.16,0-0.32,0-0.49,0c-0.3-0.13-0.42-0.47-0.76-0.62c-0.24,0.15-0.41,0.38-0.65,0.59   c-0.29,0-0.61,0-0.93,0c-0.08,0.06-0.16,0.12-0.26,0.2c-0.61,0-1.26,0-1.94,0c-0.04-0.04-0.11-0.1-0.2-0.17c-0.17,0-0.36,0-0.55,0   c-0.21,0.12-0.42,0.24-0.63,0.36c-0.06-0.05-0.13-0.12-0.19-0.18c-0.17,0-0.33,0-0.53,0c-0.05,0.04-0.12,0.09-0.24,0.17   c-0.14,0-0.33,0-0.58,0c0.03,0.01-0.01,0.01-0.02-0.01c-0.28-0.34-0.73-0.46-1-0.76c-0.27,0.03-0.31,0.28-0.68,0.38   c0,0-0.19,0-0.38,0c-0.08,0.07-0.15,0.12-0.28,0.22c-0.23,0-0.51,0-0.76,0c-0.08,0.08-0.13,0.13-0.18,0.18c-0.25,0-0.51,0-0.78,0   c-0.06-0.05-0.13-0.12-0.2-0.18c-0.12,0-0.25,0-0.38,0c-0.07,0.06-0.14,0.13-0.2,0.19c-0.13,0-0.26,0-0.38,0   c-0.08-0.07-0.15-0.13-0.21-0.19c-0.11,0-0.21,0-0.31,0c-0.21,0.04-0.26,0.28-0.51,0.36c-0.07-0.1-0.17-0.26-0.24-0.36   c-0.28,0-0.47,0-0.67,0c-0.07,0.07-0.14,0.13-0.2,0.19c-0.21,0.08-0.28-0.13-0.43-0.2c-0.11,0.01-0.29-0.03-0.36,0.04   c-0.23,0.22-0.6,0.23-0.73,0.55c-0.15,0-0.28,0-0.42,0c-0.22-0.12-0.03-0.35-0.13-0.51c-0.13-0.13-0.3-0.03-0.46-0.07   c-0.18,0.18-0.37,0.37-0.57,0.57c-0.3,0-0.62,0-0.97,0c-0.18-0.1-0.4-0.22-0.66-0.37c-0.33,0-0.71,0-1.11,0   c-0.14,0.22-0.47,0.16-0.62,0.39c-0.65,0-1.29,0-1.93,0c-0.12,0.12-0.24,0.24-0.37,0.37c-0.43,0-0.88,0-1.39,0   c-0.09-0.09-0.23-0.23-0.36-0.36c-0.24,0.1-0.3-0.23-0.56-0.2c-0.06,0.04-0.15,0.12-0.26,0.2c-0.18,0-0.38,0-0.55,0   c-0.08,0.07-0.16,0.13-0.22,0.19c-0.37,0-0.73,0-1.11,0c-0.06-0.04-0.13-0.1-0.23-0.18c-0.16,0-0.35,0-0.62,0   c-0.07,0.11-0.17,0.28-0.22,0.37c-0.77,0-1.42,0-2.07,0c-0.07,0.07-0.14,0.13-0.21,0.2c-0.1,0-0.19,0-0.31,0   c-0.34-0.17-0.68-0.35-1.11-0.57c-0.16,0-0.41,0-0.69,0c-0.24,0.21-0.63,0.24-0.79,0.57c-0.28,0-0.54,0-0.79,0   c-0.08-0.07-0.15-0.13-0.21-0.19c-0.51-0.08-0.81,0.48-1.39,0.37c-0.07-0.1-0.19-0.25-0.27-0.37c-0.2,0-0.33,0-0.46,0   c-0.07,0.06-0.14,0.13-0.2,0.19c-0.33,0-0.65,0-0.97,0c-0.57-0.37-0.57-0.37-1-0.36c-0.13,0.14-0.03,0.31-0.07,0.46   c-0.19,0.19-0.43,0.05-0.65,0.1c-0.07-0.06-0.14-0.12-0.22-0.18c-0.06,0.06-0.13,0.12-0.2,0.18c-0.19,0-0.38,0-0.58,0   c-0.14-0.23-0.44-0.2-0.63-0.38c-0.07-0.06-0.24-0.01-0.34-0.01c-0.12,0.11-0.21,0.2-0.3,0.29c-0.01,0.1,0.03,0.21-0.1,0.29   c-0.17,0-0.36,0-0.58,0c-0.05-0.04-0.12-0.1-0.2-0.18c-0.24,0-0.5,0-0.77,0c-0.06,0.05-0.13,0.12-0.2,0.19c-0.12,0-0.25,0-0.38,0   c-0.07,0.06-0.14,0.13-0.19,0.17c-0.36-0.25-0.85-0.2-1.17-0.55c-0.31,0-0.63,0-1.02,0c-0.08,0.11-0.2,0.26-0.3,0.38   c-0.19,0-0.32,0-0.45,0c-0.07,0.07-0.14,0.13-0.21,0.2c-0.4-0.05-0.67-0.46-1.11-0.39c-0.28,0.15-0.42,0.47-0.65,0.58   c-0.11,0-0.15,0.01-0.17,0c-0.19-0.18-0.37-0.36-0.55-0.55c-0.1,0.05-0.19,0.13-0.29,0.16c-0.09,0.03-0.22-0.03-0.28,0.01   c-0.16,0.12-0.3,0.24-0.51,0.18c-0.14-0.04-0.27-0.13-0.41-0.19c-0.48-0.22-0.49-0.22-1.01,0c-0.06,0.02-0.1,0.06-0.16,0.09   c0,0.06,0,0.13,0,0.19c-0.19,0.2-0.43,0.06-0.67,0.11c-0.12-0.12-0.23-0.32-0.4-0.37c-0.16-0.05-0.29-0.1-0.39-0.22   c-0.2,0-0.39,0-0.59,0c-0.19,0.19-0.37,0.37-0.57,0.57c-0.18,0-0.37,0-0.55,0c-0.27-0.14-0.54-0.28-0.79-0.41   c-0.11,0.1-0.18,0.16-0.24,0.22c-0.13,0-0.26,0-0.38,0c-0.07-0.07-0.14-0.12-0.21-0.18c-0.05,0.05-0.1,0.1-0.17,0.17   c-0.33,0-0.67,0-1.01,0c-0.14-0.15-0.04-0.32-0.08-0.47c-0.11-0.11-0.23-0.23-0.35-0.35c0.06-0.19,0.21-0.36,0.15-0.61   c-0.35-0.45-0.91-0.76-1.15-1.49c0-0.05,0-0.24,0-0.46c-0.08-0.08-0.17-0.18-0.26-0.26c-0.1-0.09-0.18-0.19-0.14-0.34   c-0.13-0.07-0.27-0.14-0.4-0.2c-0.11-0.05-0.22-0.09-0.33-0.14c-0.04-0.22-0.16-0.4-0.34-0.54c-0.13,0-0.26,0-0.41,0   c-0.09-0.12-0.19-0.23-0.27-0.37c-0.15-0.27-0.16-0.24-0.44-0.42c-0.23-0.15-0.54-0.17-0.72-0.52c-0.01-0.07-0.02-0.22-0.04-0.37   c-0.12-0.05-0.28-0.06-0.33-0.15c-0.16-0.27-0.46-0.34-0.7-0.45c-0.24-0.12-0.41-0.27-0.6-0.44c-0.32,0-0.64,0-0.96,0   c-0.2-0.24-0.55-0.36-0.52-0.76c-0.29,0-0.54,0-0.83,0c-0.16-0.22-0.34-0.45-0.45-0.6c-0.41,0-0.67,0-0.88,0   c-0.24-0.14-0.45-0.26-0.7-0.4c-0.48,0-0.99,0-1.5,0c-0.12-0.12-0.23-0.31-0.36-0.33c-0.2-0.03-0.31-0.2-0.49-0.24   c-0.09-0.02-0.19,0-0.3,0c-0.07,0.06-0.14,0.12-0.21,0.19c-0.45,0-0.9,0-1.36,0c-0.13-0.12-0.27-0.25-0.4-0.38   c-0.06,0.06-0.1,0.1-0.19,0.19c-0.11-0.01-0.33,0.04-0.4-0.05c-0.16-0.18-0.34-0.14-0.59-0.16c-0.09,0.12-0.21,0.27-0.31,0.41   c-0.25-0.08-0.34,0.09-0.46,0.18c-0.25,0-0.51,0-0.76,0c-0.43,0.28-0.6,0.35-0.95,0.39c-0.15-0.13-0.31-0.27-0.47-0.42   c-0.35,0.12-0.49,0.45-0.76,0.61c-0.33-0.1-0.56,0.28-0.96,0.18c-0.09,0.13-0.2,0.29-0.27,0.39c-0.18,0.01-0.27,0.05-0.35-0.04   c-0.06-0.06-0.11-0.17-0.31-0.12c-0.18,0.15-0.38,0.43-0.66,0.54c-0.32,0.14-0.46,0.43-0.74,0.6c-0.17,0-0.37,0-0.56,0   c-0.09,0.21-0.34,0.15-0.47,0.28c-0.01,0.06-0.01,0.13-0.02,0.2c-0.13,0.13-0.26,0.27-0.39,0.41c0,0.13,0,0.26,0,0.38   c-0.1,0.1-0.19,0.19-0.28,0.28c-0.25,0-0.51,0-0.78,0c-0.22,0.23-0.44,0.47-0.68,0.72c0,0.02,0,0.09,0,0.14   c-0.13,0.15-0.34,0.28-0.37,0.44c-0.04,0.23-0.18,0.4-0.32,0.43c-0.27,0.06-0.47,0.33-0.78,0.22c-0.17,0.21-0.05,0.44-0.09,0.66   c-0.1,0.11-0.21,0.21-0.21,0.4c0,0.09-0.18,0.17-0.26,0.28c-0.08,0.12-0.14,0.27-0.21,0.4c-0.07,0-0.13,0-0.19,0   c-0.16,0.23-0.49,0.32-0.49,0.67c-0.19,0.17-0.39,0.34-0.56,0.5c0,0.31,0,0.56,0,0.9c-0.14,0.07-0.32,0.15-0.35,0.16   c-0.06,0.28-0.08,0.37-0.11,0.49c-0.12,0.01-0.25,0.02-0.43,0.03c-0.12,0.11-0.28,0.26-0.42,0.38c-0.33,0.02-0.36-0.3-0.58-0.35   c-0.09,0.2-0.4,0.11-0.54,0.34c-0.33,0-0.67,0-0.99,0c-0.12,0.12-0.2,0.24-0.44,0.19c-0.06-0.1-0.15-0.27-0.21-0.36   c-0.26,0-0.39,0-0.53,0c-0.06,0.06-0.13,0.12-0.2,0.19c-0.45,0-0.9,0-1.35,0c-0.07,0.07-0.14,0.13-0.2,0.19   c-0.21,0.08-0.28-0.14-0.42-0.19c-0.16,0-0.32,0-0.5,0c-0.09,0.06-0.19,0.13-0.29,0.19c-0.16,0.03-0.23-0.08-0.33-0.18   c-0.64,0-1.28,0-1.94,0c-0.15,0.19-0.47,0.14-0.61,0.38c-0.13,0-0.26,0-0.39,0c-0.11-0.12-0.21-0.24-0.4-0.21   c-0.18-0.18-0.37-0.37-0.55-0.55c-0.17,0.18-0.47,0.14-0.61,0.37c-0.39,0-0.78,0-1.16,0c-0.07,0.07-0.14,0.13-0.2,0.19   c-0.16,0.04-0.26-0.04-0.35-0.17c-0.24,0-0.49,0-0.79,0c-0.06,0.04-0.17,0.11-0.27,0.17c-0.16,0.03-0.23-0.09-0.33-0.18   c-0.25,0-0.5,0-0.78,0c-0.05,0.05-0.13,0.11-0.2,0.18c-0.07-0.06-0.14-0.12-0.2-0.18c-0.33,0-0.65,0-0.97,0   c-0.12,0.12-0.23,0.23-0.37,0.37c-0.1,0.01-0.22,0.01-0.43,0.02c-0.07-0.12-0.18-0.28-0.25-0.39c-0.28,0-0.47,0-0.69,0   c-0.12,0.12-0.26,0.25-0.4,0.38c-0.2,0-0.39,0-0.58,0c-0.57-0.37-0.57-0.37-1-0.36c-0.05,0.05-0.09,0.09-0.15,0.15   c-0.18,0-0.37,0-0.56,0c-0.08,0.07-0.15,0.13-0.23,0.2c-0.37,0-0.76,0-1.13,0c-0.11,0.08-0.2,0.15-0.27,0.21   c-0.26-0.03-0.34-0.23-0.49-0.34c-0.18-0.09-0.38-0.03-0.56-0.05c-0.27,0.14-0.54,0.28-0.8,0.42c-0.1-0.08-0.17-0.14-0.25-0.22   c-0.18,0-0.37,0-0.56,0c-0.07-0.07-0.14-0.13-0.22-0.2c-0.19,0-0.38,0-0.58,0c-0.11,0.11-0.22,0.23-0.35,0.36c-0.3,0-0.62,0-1,0   c-0.02-0.02-0.09-0.07-0.2-0.15c-0.15,0-0.34,0-0.6,0c-0.09,0.09-0.22,0.22-0.36,0.36c-0.23-0.09-0.3,0.22-0.53,0.21   c-0.11-0.06-0.25-0.12-0.38-0.2c-0.11-0.06-0.21-0.13-0.31-0.19c-0.23,0-0.45,0-0.68,0c-0.19,0.1-0.37,0.2-0.56,0.3   c-0.26,0.13-0.32,0.14-0.59-0.03c-0.18-0.11-0.45-0.04-0.49-0.26c-0.24-0.04-0.28,0.17-0.39,0.17c-0.14,0.01-0.25,0.05-0.34,0.18   c-0.37,0-0.75,0-1.18,0c-0.35-0.16-0.48-0.57-0.71-0.92c0.1-0.2,0.19-0.43,0.33-0.62c0.13-0.18,0.31-0.32,0.47-0.48   c-0.12-0.12-0.24-0.24-0.37-0.37c0-0.56,0-1.14,0-1.73c-0.15-0.17-0.29-0.33-0.41-0.46c0.01-0.27,0.23-0.34,0.33-0.5   c0.1-0.15,0.05-0.38,0.25-0.44c0-0.2,0-0.36,0-0.52c-0.12-0.3-0.47-0.42-0.59-0.71c0.03-0.28,0.29-0.35,0.39-0.53   c0-0.2,0-0.4,0-0.6c-0.3-0.2-0.4-0.54-0.58-0.82c-0.03-0.16,0.11-0.22,0.19-0.33c0-0.24,0-0.5,0-0.77   c-0.13-0.13-0.26-0.27-0.38-0.4c0-0.21,0-0.4,0-0.59c0.12-0.12,0.24-0.24,0.35-0.35c0.03-0.22,0.14-0.45-0.15-0.57   c0-0.47,0-0.92,0-1.4c0.05-0.05,0.11-0.12,0.18-0.2c0-0.12,0-0.25,0-0.38c-0.06-0.14-0.21-0.09-0.31-0.13   c-0.25-0.25,0.05-0.34,0.12-0.49c0-0.19-0.19-0.52-0.58-1.02c-0.06-0.2,0.22-0.23,0.19-0.41c-0.03-0.17,0.15-0.19,0.19-0.36   c0-0.21,0-0.47,0-0.73c-0.24-0.1-0.14-0.4-0.34-0.55c-0.12-0.09-0.07-0.3-0.01-0.45c0.02-0.06,0.13-0.09,0.13-0.14   c-0.01-0.26,0.34-0.41,0.23-0.68C9.99,58.53,9.85,58.3,9.71,58c0-0.13,0-0.32,0-0.51c0.12-0.12,0.23-0.23,0.35-0.35   c0.03-0.18,0.1-0.35-0.06-0.53c-0.22-0.25-0.22-0.63-0.49-0.87c0-0.19,0-0.39,0-0.58c-0.07-0.07-0.13-0.14-0.2-0.21   c0.01-0.1-0.03-0.21,0.08-0.26c0.28-0.14,0.28-0.48,0.47-0.69c0.09-0.1,0.09-0.31-0.01-0.45c-0.18-0.25-0.25-0.58-0.53-0.73   c0-0.35,0-0.67,0-0.98c0.07-0.08,0.13-0.15,0.18-0.21c0.04-0.17-0.05-0.26-0.17-0.36c0-0.18,0-0.37,0-0.6   c0.03-0.04,0.09-0.11,0.16-0.19c0.03-0.21,0.07-0.43-0.17-0.59c0-0.12-0.05-0.31,0.01-0.37c0.19-0.18,0.16-0.47,0.37-0.62   c-0.15-0.09-0.16-0.26-0.22-0.39c-0.06-0.14-0.22-0.23-0.34-0.36c0-0.44,0-0.89,0-1.34c-0.07-0.08-0.13-0.15-0.2-0.23   c0-0.31,0-0.63,0-0.94c-0.06-0.13-0.23-0.16-0.2-0.33c0.02-0.06,0.03-0.12,0.07-0.16c0.16-0.17,0.32-0.32,0.52-0.52   c-0.01-0.12,0.03-0.33-0.05-0.41c-0.18-0.16-0.13-0.35-0.15-0.56c-0.3-0.18-0.38-0.53-0.57-0.81c-0.08-0.11,0.04-0.24,0.18-0.34   c0-0.45,0-0.93,0-1.35c0.1-0.17,0.21-0.12,0.3-0.13c0.2-0.19,0.06-0.43,0.11-0.71c-0.2-0.15-0.42-0.33-0.65-0.51   c0.1-0.1,0.15-0.15,0.2-0.2c0.09-0.21,0.04-0.43,0.03-0.65c-0.12-0.12-0.23-0.23-0.36-0.36c0-0.18,0-0.37,0-0.54   c0.14-0.27,0.28-0.54,0.41-0.8c-0.15-0.14-0.27-0.25-0.35-0.33c-0.04-0.06-0.07-0.09-0.07-0.11c0-0.29,0-0.58,0-0.87   c-0.11-0.21-0.23-0.43-0.38-0.71c0-0.11,0-0.3,0-0.51c0.18-0.15,0.14-0.47,0.38-0.61c0-0.19,0-0.39,0-0.58   c-0.05-0.05-0.09-0.09-0.18-0.18c-0.04-0.37,0.01-0.78-0.03-1.19c-0.05-0.05-0.09-0.09-0.16-0.16c0-0.17,0-0.35,0-0.49   c-0.17-0.32-0.31-0.58-0.46-0.87c0.34-0.2,0.42-0.56,0.62-0.83c0.05-0.06,0.01-0.19,0.01-0.31c-0.11-0.29-0.47-0.4-0.58-0.71   c0-0.03-0.01-0.07,0-0.1c0.05-0.08,0.12-0.15,0.19-0.23c0-0.11,0-0.24,0-0.38c-0.12-0.13-0.25-0.27-0.38-0.4   c0.05-0.05,0.1-0.1,0.17-0.17c0-0.23,0-0.49,0-0.7c0.14-0.25,0.25-0.46,0.41-0.74c-0.19-0.14-0.41-0.32-0.63-0.48   c0.16-0.32,0.21-0.59,0.42-0.8c0.04-0.21,0.06-0.43-0.02-0.67c-0.08-0.02-0.17-0.03-0.27-0.06c-0.17-0.19-0.04-0.42-0.08-0.64   c0.06-0.07,0.12-0.14,0.19-0.21c0-0.32,0-0.64,0-0.97c-0.06-0.07-0.13-0.14-0.19-0.21c-0.05-0.26,0.33-0.41,0.19-0.7   c-0.02-0.18-0.31-0.26-0.13-0.54c0.24-0.05,0.53,0.01,0.8-0.02c0.08,0.08,0.15,0.14,0.21,0.2c2.15,0,4.29,0,6.42,0   c0.05-0.05,0.1-0.1,0.18-0.18c0.7,0,1.44,0,2.14,0c0.08-0.08,0.13-0.13,0.18-0.18c0.14,0.02,0.21,0.22,0.39,0.17   c0.18-0.05,0.31,0.05,0.41,0.19c0.65,0,1.3,0,1.95,0c0.06-0.06,0.13-0.12,0.2-0.19c1.94,0,3.89,0,5.83,0   c0.1-0.24,0.42-0.13,0.55-0.37c0.3,0,0.62,0,1.02,0c-0.02-0.01-0.04-0.01,0,0c0,0,0,0,0,0c0,0,0.01,0,0.01,0   c0.2,0.21,0.47,0.27,0.73,0.36c0.06,0.02,0.13,0,0.25,0c0.09-0.12,0.21-0.27,0.33-0.42c0.08,0.08,0.13,0.13,0.18,0.18   c0.21,0.1,0.43,0.04,0.65,0.03c0.05-0.05,0.09-0.09,0.16-0.16c2.57,0,5.16,0,7.75,0c0.08-0.06,0.16-0.12,0.26-0.2   c4.76,0,9.56,0,14.28,0c0.22-0.05,0.28-0.28,0.5-0.2c0.06,0.05,0.13,0.11,0.21,0.18c2.45,0,4.91,0,7.39,0   c0.06-0.06,0.13-0.12,0.2-0.19c3.05,0,6.09,0,9.14,0c0.05-0.05,0.09-0.09,0.17-0.17c0.25-0.08,0.53,0.02,0.79-0.04   c0.07,0.07,0.11,0.11,0.18,0.18c1.36,0,2.75,0,4.13,0c0.05-0.05,0.09-0.09,0.14-0.14c0.18-0.12,0.49,0.12,0.57-0.24   c0.7,0,1.37,0,2.01,0c0.08-0.08,0.13-0.13,0.18-0.18c0.45,0,0.9,0,1.36,0c0.06,0.06,0.13,0.12,0.2,0.19c0.19,0,0.39,0,0.58,0   c0.07,0.07,0.14,0.13,0.24,0.23c0.23-0.12,0.47-0.24,0.83-0.42c1.71,0,3.55,0,5.35,0c0.08-0.08,0.13-0.13,0.21-0.21   c3.04,0,6.11,0,9.15,0c0.08-0.08,0.13-0.13,0.18-0.18c0.25,0,0.51,0,0.78,0c0.06,0.06,0.13,0.12,0.2,0.19c0.13,0,0.26,0,0.39,0   c0.05-0.05,0.09-0.09,0.17-0.17c0.25-0.08,0.53,0.02,0.79-0.03c0.07,0.07,0.11,0.11,0.18,0.18c0.26,0,0.54,0,0.82,0   c0.05-0.05,0.09-0.09,0.14-0.14c0.22-0.05,0.43-0.06,0.65,0c0.05,0.05,0.09,0.09,0.15,0.15c0.57,0,1.15,0,1.76,0   c0.05-0.05,0.12-0.11,0.2-0.18c0.25,0,0.5,0,0.77,0c0.06,0.06,0.13,0.12,0.2,0.19c0.13,0,0.26,0,0.38,0   c0.07-0.07,0.14-0.13,0.22-0.2c1.3,0,2.59,0,3.87,0c0.46-0.28,0.61-0.35,0.99-0.39c0.08,0.13,0.17,0.3,0.18,0.32   c0.38,0.15,0.46-0.02,0.58-0.11c0.26,0,0.52,0,0.78,0c0.05,0.05,0.09,0.09,0.16,0.16c0.4,0.15,0.66-0.18,1.14-0.34   c1.19,0,2.55,0,3.97,0c0.09-0.13,0.21-0.28,0.29-0.4c0.27,0,0.46,0,0.67,0c0.1,0.11,0.21,0.23,0.27,0.3   c0.08,0.05,0.1,0.09,0.13,0.09c0.45,0,0.9,0,1.34,0c0.06-0.06,0.11-0.11,0.17-0.17c0.43,0,0.88,0,1.38,0   c0.03,0.02,0.1,0.08,0.2,0.16c0.22,0,0.48,0,0.81,0c0.08-0.1,0.19-0.26,0.28-0.37c0.26,0,0.46,0,0.65,0   c0.14,0.07,0.08,0.22,0.14,0.33c0.21,0.12,0.43,0.04,0.65,0.05c0.41-0.27,0.59-0.35,0.99-0.39c0.07,0.13,0.15,0.31,0.19,0.39   c0.35,0,0.55,0,0.76,0c0.06-0.05,0.13-0.12,0.2-0.18c0.32,0,0.64,0,0.98,0c0.04,0.04,0.08,0.09,0.16,0.18   c0.24,0.02,0.53,0.01,0.81,0c0.12-0.12,0.23-0.23,0.35-0.35c0.41-0.03,0.41-0.03,1,0.34c0.07-0.06,0.13-0.12,0.21-0.18   c0.12,0,0.25,0,0.38,0c0.07-0.07,0.14-0.13,0.21-0.2c0.97,0,1.94,0,2.91,0c0.05-0.05,0.1-0.1,0.17-0.17c0.16,0,0.35,0,0.6,0   c0.02,0.02,0.09,0.07,0.2,0.15c3.42,0,6.88,0,10.33,0c0.06-0.06,0.11-0.11,0.16-0.16c0.57,0,1.15,0,1.76,0   c0.05,0.04,0.12,0.1,0.2,0.17c0.11,0,0.24,0,0.38,0c0.06-0.05,0.13-0.12,0.2-0.19c0.45,0,0.9,0,1.36,0   c0.14-0.24,0.46-0.18,0.62-0.39c0.16,0,0.32,0,0.49,0c0.28,0.19,0.66,0.23,0.8,0.58c0.16,0,0.29,0,0.43,0   c0.06-0.06,0.13-0.12,0.2-0.19c0.64,0,1.29,0,1.94,0c0.04-0.05,0.09-0.09,0.18-0.18c0.11-0.01,0.05,0,0.2-0.01   c0.14-0.25,0.39-0.16,0.6-0.21c0.14-0.14,0.29-0.28,0.45-0.44c0.09-0.32,0.02-0.68,0.08-1c-0.14-0.14-0.25-0.26-0.36-0.38   c-0.04-0.1,0.02-0.26-0.14-0.32c-0.06,0-0.12-0.01-0.18-0.01c-0.15-0.13-0.1-0.46-0.15-0.61c0.15-0.15,0.29-0.29,0.44-0.43   c0.01-0.19,0.03-0.39,0.04-0.58c0.05-0.05,0.1-0.1,0.15-0.14c0.29-0.4-0.21-0.6-0.11-0.93c-0.14,0-0.2,0-0.27,0   c-0.18-0.19-0.03-0.43-0.06-0.7c0.13-0.1,0.29-0.22,0.42-0.3c0.02-0.33,0.04-0.59,0.06-0.85c-0.1-0.11-0.27-0.21-0.41-0.35   c0.01-0.45,0.03-0.93,0.04-1.37c-0.14-0.15-0.26-0.26-0.38-0.39c0.01-0.37,0.02-0.76,0.04-1.21c0.11-0.08,0.26-0.2,0.4-0.31   c-0.06-0.24,0.08-0.34,0.18-0.43c0.01-0.47,0.03-0.93,0.04-1.34c-0.26-0.38-0.19-0.87-0.53-1.19c0.06-0.07,0.12-0.13,0.18-0.21   c0.01-0.24,0.01-0.5,0.02-0.77c-0.05-0.06-0.12-0.13-0.18-0.2c0-0.13,0.01-0.26,0.01-0.39c0.12-0.11,0.25-0.22,0.35-0.35   c0.07-0.09,0.09-0.22,0.13-0.33c0.47,0,0.93,0,1.38,0c0.14-0.13,0.29-0.27,0.46-0.43c0.23,0.12,0.47,0.25,0.82,0.43   c0.15,0,0.43,0,0.68,0c0.08,0.08,0.12,0.13,0.17,0.18c0.44,0,0.9,0,1.36,0c0.06-0.05,0.13-0.12,0.21-0.19c0.77,0,1.55,0,2.33,0   c0.2,0.18,0.06,0.42,0.08,0.63c0.01,0.22-0.01,0.44-0.01,0.63c-0.09,0.08-0.13,0.13-0.19,0.18c-0.01,0.31-0.02,0.63-0.03,0.96   c0.19,0.15,0.13,0.47,0.36,0.61c0,0.13-0.01,0.26-0.01,0.38c-0.07,0.07-0.14,0.14-0.2,0.21c-0.01,0.17-0.01,0.33-0.02,0.51   c0.1,0.3,0.46,0.41,0.56,0.71c0.02,0.16-0.12,0.22-0.2,0.32c-0.04,0.18,0.03,0.37-0.15,0.53c-0.13,0.12-0.12,0.35-0.28,0.47   c0.11,0.28-0.17,0.46-0.21,0.7c-0.02,0.09,0,0.19,0,0.27c0.06,0.06,0.1,0.1,0.16,0.16c-0.01,0.31-0.02,0.63-0.03,1   c0.13,0.1,0.28,0.21,0.35,0.27c0.11,0.3-0.07,0.38-0.16,0.5c-0.01,0.2-0.01,0.39-0.02,0.58c0.05,0.05,0.09,0.09,0.14,0.14   c0.09,0.13-0.11,0.12-0.13,0.04c-0.01,0.48-0.02,0.8-0.03,1.13c0.17,0.35,0.36,0.73,0.54,1.09c-0.01,0.21-0.19,0.27-0.29,0.39   c-0.08,0.1-0.19,0.19-0.28,0.28c0.04,0.19,0.45,0.27,0.57,0.42c0,0.38-0.15,0.92-0.15,1.33c-0.05,0.06-0.12,0.13-0.19,0.2   c0,0.12,0,0.25,0,0.38c0.07,0.14,0.23,0.08,0.32,0.13c0.13,0.13,0.24,0.24,0.36,0.36c0.19,0,0.38,0,0.58,0   c0.07-0.06,0.14-0.13,0.21-0.19c0.52,0,1.03,0,1.55,0c0.08-0.07,0.15-0.13,0.2-0.19c0.16-0.04,0.26,0.04,0.35,0.17   c0.89,0,1.79,0,2.75,0c0.03-0.02,0.1-0.08,0.2-0.16c0.09,0,0.22,0,0.38,0c0.04,0.04,0.12,0.1,0.2,0.17c0.37,0,0.75,0,1.16,0   c0.06-0.05,0.13-0.11,0.2-0.18c0.18,0,0.38,0,0.58,0c0.07,0.06,0.14,0.13,0.2,0.19c0.33,0,0.65,0,0.97,0   c0.05-0.05,0.09-0.09,0.14-0.14c0.06-0.02,0.12-0.05,0.17-0.05c0.42,0,0.84,0,1.24,0c0.06,0.06,0.11,0.11,0.18,0.18   c0.06-0.05,0.12-0.1,0.21-0.16c1.2,0,2.43,0,3.6,0c0.21-0.05,0.26-0.3,0.54-0.15c0,0,0.07,0.07,0.15,0.14c0.12,0,0.25,0,0.38,0   c0.14-0.13,0.27-0.26,0.44-0.42c0.24,0.12,0.48,0.25,0.8,0.41c1.01,0,2.11,0,3.22,0c0.15-0.18,0.47-0.14,0.61-0.38   c0.11,0.12,0.22,0.24,0.32,0.34c0.23,0.1,0.45,0.06,0.67,0.04c0.12-0.12,0.23-0.23,0.35-0.35c0.34,0,0.69,0,1.02,0   c0.07,0.07,0.11,0.11,0.17,0.17c0.07-0.06,0.14-0.12,0.21-0.19c0.58,0,1.16,0,1.75,0c0.04,0.04,0.08,0.09,0.14,0.15   c0.26,0.12,0.56-0.02,0.81,0.06c0.07-0.07,0.12-0.12,0.16-0.16c0.15-0.08,0.3-0.04,0.46-0.02c0.03,0.05,0.07,0.11,0.07,0.16   c0,2.69,0,5.38,0,8.1c-0.11,0.1-0.23,0.21-0.37,0.33c0.11,0.21,0.21,0.41,0.35,0.69c0,0.1,0,0.29,0,0.51   c-0.04,0.04-0.1,0.11-0.17,0.2c0,0.5,0,1.01,0,1.53c-0.07,0.08-0.13,0.15-0.2,0.22c0,0.18,0,0.38,0,0.58   c0.06,0.07,0.13,0.14,0.19,0.2c0,1.23,0,2.47,0,3.7c-0.05,0.05-0.09,0.09-0.17,0.17c-0.01,0.12-0.02,0.27-0.04,0.43   c-0.05,0.05-0.09,0.09-0.18,0.18c0,0.15-0.03,0.34,0.01,0.52c0.04,0.17,0.25,0.28,0.19,0.51c-0.06,0.21,0.28,0.29,0.19,0.5   c-0.1,0.24,0.2,0.31,0.2,0.51c0.03,0.11-0.08,0.15-0.13,0.23c-0.03,0.05-0.04,0.11-0.07,0.17c-0.04,0.08-0.08,0.16-0.15,0.29   c0.1,0.18,0.22,0.41,0.35,0.65c0.03,0.14-0.1,0.21-0.19,0.31c0,0.12,0,0.25,0,0.37c-0.07,0.07-0.13,0.14-0.2,0.22   c0.01,0.09-0.05,0.2,0.06,0.26c0.19,0.1,0.1,0.35,0.27,0.48c0.13,0.1,0.05,0.29,0.04,0.45c-0.27,0.12-0.07,0.52-0.37,0.56   c0,0.1-0.01,0.14,0,0.16c0.05,0.08,0.11,0.15,0.19,0.24c0,0.11,0,0.23,0,0.36c0.07,0.07,0.13,0.14,0.2,0.22c0,0.12,0,0.25,0,0.38   c-0.23,0.11-0.14,0.41-0.34,0.54c-0.05,0.05,0.01,0.07,0.04,0.14c0.12,0.28,0.36,0.51,0.3,0.86c-0.05,0.06-0.11,0.13-0.19,0.21   c0,0.11,0,0.24,0,0.38c0.06,0.06,0.12,0.13,0.19,0.2c0.07,0.2-0.12,0.27-0.2,0.41c0,0.96,0,1.93,0,2.9   c-0.18,0.13-0.27,0.29-0.21,0.53c0.14,0.16,0.29,0.32,0.43,0.48c-0.16,0.25-0.19,0.55-0.41,0.74   C188.2,48.87,188.15,49.19,188.34,49.35z"></path>
	<path class="st0" d="M138.33,47.16c-0.28-0.09-0.11-0.38-0.21-0.53c-0.14-0.2-0.14-0.49-0.37-0.63c0-0.19,0-0.39,0-0.49   c-0.15-0.32-0.33-0.55-0.37-0.81c-0.03-0.2-0.19-0.33-0.2-0.5c-0.01-0.21-0.21-0.29-0.23-0.5c-0.01-0.15-0.25-0.28-0.37-0.42   c-0.34-0.41-0.86-0.67-1.04-1.22c-0.03-0.08-0.13-0.19-0.2-0.2c-0.3-0.02-0.42-0.26-0.61-0.42c-0.14-0.12-0.26-0.31-0.43-0.37   c-0.34-0.13-0.66-0.3-0.97-0.46c-0.32-0.16-0.67-0.28-0.95-0.52c-0.4,0.05-0.69-0.21-1.04-0.41c-0.22,0-0.48,0-0.71,0   c-0.07-0.07-0.11-0.11-0.17-0.17c-0.9,0-1.8,0-2.73,0c-0.05,0.05-0.13,0.11-0.2,0.18c-0.25,0-0.51,0-0.76,0   c-0.14,0.13-0.28,0.27-0.42,0.4c-0.2,0-0.39,0-0.67,0c-0.07,0.11-0.18,0.28-0.24,0.37c-0.22,0.01-0.35,0.02-0.47,0.03   c-0.2,0.11-0.24,0.4-0.54,0.39c-0.11,0-0.23,0.17-0.4,0.2c-0.13,0.03-0.23,0.22-0.35,0.33c-0.12,0.11-0.24,0.21-0.33,0.28   c-0.01,0.16,0.02,0.26-0.09,0.33c-0.09,0.01-0.18,0.05-0.29-0.08c0-2.58,0-5.2,0-7.73c-0.26-0.41-0.61-0.55-0.9-0.73   c-0.41,0-0.79,0-1.12,0c-0.39,0.23-0.51,0.6-0.69,0.88c0,1.32,0,2.61,0,3.89c0.12,0.1,0.21,0.19,0.17,0.36   c-0.05,0.06-0.11,0.13-0.19,0.21c0,2.35,0,4.71,0,7.08c0,0.06,0.04,0.11,0.06,0.17c0.04,0.04,0.09,0.09,0.13,0.13   c-0.07,0.07-0.13,0.14-0.19,0.2c0,0.73,0,1.44,0,2.14c0.12,0.15,0.3,0.23,0.35,0.42c-0.05,0.05-0.09,0.09-0.14,0.14   c0,2.29,0,4.59,0,6.87c0.13,0.09,0.2,0.2,0.16,0.36c0.16,0.15,0.33,0.3,0.52,0.48c0.34,0,0.73,0,1.14,0   c0.2-0.22,0.42-0.45,0.7-0.75c0-0.26,0-0.61,0-0.92c0.1-0.1,0.17-0.17,0.25-0.25c0.34,0.32,0.66,0.68,1.04,0.95   c0.37,0.25,0.8,0.4,1.22,0.6c0.08,0,0.18,0,0.34,0c0.09,0.12,0.21,0.27,0.29,0.37c0.22,0.04,0.39-0.05,0.51,0.11   c0.12,0.16,0.29,0.08,0.44,0.11c0.15,0.03,0.21,0.24,0.41,0.19c0.18-0.04,0.31,0.04,0.41,0.19c0.39,0,0.78,0,1.16,0   c0.07,0.07,0.14,0.13,0.21,0.2c0.26,0,0.52,0,0.77,0c0.07-0.07,0.14-0.13,0.22-0.2c0.39,0,0.77,0,1.16,0   c0.09-0.15,0.27-0.15,0.39-0.23c0.14-0.09,0.25-0.19,0.42-0.16c0.21,0.05,0.28-0.25,0.5-0.2c0.15,0.03,0.31,0.01,0.47,0.01   c-0.03-0.05-0.07-0.1-0.1-0.15c0.12-0.04,0.25-0.08,0.36-0.11c-0.22-0.29-0.22-0.29-0.1-0.5c0.18,0.12,0.25,0.4,0.54,0.38   c0.18-0.2,0.37-0.42,0.52-0.58c0.16,0,0.22,0,0.29,0c0.09-0.09,0.19-0.19,0.28-0.28c0.01-0.15,0.02-0.31,0.03-0.45   c0.1-0.02,0.15-0.04,0.21-0.05c0.03-0.01,0.07-0.01,0.09-0.03c0.3-0.29,0.59-0.59,0.85-0.85c0.01-0.42,0.01-0.42,0.13-0.48   c0.12,0.18,0.26,0.28,0.46,0.09c0-0.26,0-0.52,0-0.78c0.16-0.19,0.34-0.33,0.43-0.6c0.07-0.22,0.34-0.37,0.53-0.56   c0-0.25,0-0.51,0-0.8c0.27-0.08,0.16-0.43,0.38-0.57c-0.06-0.07-0.12-0.14-0.16-0.19c-0.07-0.23,0.16-0.29,0.18-0.44   c0.02-0.19-0.04-0.39,0.19-0.52c-0.06-0.07-0.12-0.14-0.18-0.21c0.01-0.15-0.06-0.31,0.05-0.45c0.1-0.07,0.26,0,0.33-0.14   c0-0.13,0-0.26,0-0.38c-0.22-0.19-0.25-0.48-0.4-0.73C138.18,47.35,138.24,47.28,138.33,47.16z M135.99,48.97   c-0.1,0.07-0.26,0.19-0.41,0.3c0.1,0.11,0.17,0.18,0.25,0.28c-0.22,0.58-0.62,1.08-0.8,1.69c-0.44,0.33-0.45,0.95-0.88,1.29   c-0.06,0-0.13,0-0.18,0c-0.14,0.07-0.07,0.23-0.14,0.33c-0.31,0.14-0.63,0.23-0.88,0.48c-0.22,0.22-0.52,0.29-0.8,0.42   c-0.02,0.09-0.05,0.18-0.07,0.26c-0.09,0.09,0.06,0.07-0.07,0.07c-0.19,0-0.39,0-0.58,0c-0.1,0.24-0.41,0.14-0.55,0.34   c-0.04,0.05-0.18,0.06-0.26,0.04c-0.24-0.04-0.33,0.29-0.6,0.21c-0.18-0.05-0.39-0.01-0.58-0.01c-0.29,0-0.58,0-0.95,0   c-0.07-0.12-0.17-0.29-0.22-0.38c-0.39,0-0.65,0-0.9,0c-0.11-0.18-0.32-0.17-0.47-0.27c-0.15-0.1-0.23-0.29-0.45-0.33   c-0.13-0.02-0.25-0.18-0.36-0.29c-0.46-0.46-0.92-0.92-1.38-1.37c-0.09-0.09-0.18-0.18-0.28-0.28c-0.09-0.09-0.2-0.17-0.27-0.28   c-0.05-0.07-0.02-0.2-0.08-0.25c-0.1-0.1-0.12-0.2-0.14-0.34c-0.02-0.11-0.19-0.15-0.19-0.31c0-0.08-0.08-0.16-0.16-0.31   c0-0.3,0-0.68,0-1.02c-0.14-0.26-0.25-0.47-0.37-0.69c0.15-0.15,0.12-0.45,0.35-0.59c0-0.45,0-0.91,0-1.36   c0.26-0.24,0.34-0.58,0.47-0.88c0.15-0.34,0.49-0.56,0.56-0.93c0.31-0.19,0.33-0.59,0.61-0.82c0.28-0.22,0.51-0.5,0.76-0.75   c0.37,0.04,0.63-0.2,0.92-0.35c0.13-0.07,0.31-0.02,0.41-0.19c0.08-0.13,0.24-0.04,0.36-0.07c0.06-0.01,0.13-0.03,0.16-0.08   c0.11-0.17,0.39-0.05,0.48-0.29c0.83,0,1.67,0,2.53,0c0.16,0.15,0.45,0.14,0.6,0.36c0.26,0,0.52,0,0.78,0   c0.14,0.13,0.28,0.27,0.42,0.4c0.22-0.08,0.3,0.2,0.5,0.21c0.1,0,0.21,0.13,0.29,0.21c0.42,0.41,0.83,0.82,1.24,1.23   c-0.03,0.28,0.2,0.39,0.35,0.54c0.14,0.14,0.18,0.35,0.29,0.46c0.16,0.17,0.08,0.46,0.33,0.56c0,0.19,0,0.39,0,0.58   c0.07,0.07,0.13,0.14,0.2,0.21c0.07,0.2-0.13,0.27-0.21,0.43c0.11,0.23,0.17,0.5,0.39,0.72C135.99,48.38,135.99,48.63,135.99,48.97   z"></path>
	<path class="st0" d="M86.01,53.78c0.06-0.06,0.11-0.11,0.15-0.15c0-0.48,0-0.96,0-1.41c-0.07-0.07-0.12-0.12-0.17-0.17   c0-3.82,0-7.65,0-11.47c-0.07-0.07-0.13-0.14-0.2-0.21c0-0.06,0-0.13,0-0.19c-0.06-0.09-0.17-0.07-0.25-0.11   c-0.11-0.05-0.21-0.14-0.29-0.24c-0.14-0.18-0.41-0.14-0.56-0.32c-0.05-0.06-0.25-0.01-0.26-0.01c-0.42,0.42-0.79,0.79-1.16,1.16   c0,0.16,0,0.34,0,0.53c0.15,0.11,0.24,0.23,0.13,0.41c-0.15,0.09-0.31,0.04-0.46,0.03c-0.11-0.06-0.07-0.17-0.08-0.25   c-0.17-0.17-0.33-0.33-0.5-0.5c-0.19-0.01-0.43,0.03-0.57-0.2c-0.29,0.03-0.47-0.34-0.89-0.15c-0.08-0.14-0.18-0.31-0.26-0.46   c-0.25,0-0.44,0-0.62,0c-0.13-0.13-0.25-0.25-0.36-0.36c-0.41-0.04-0.83,0.02-1.2-0.03c-0.09-0.09-0.13-0.13-0.18-0.18   c-0.71,0-1.43,0-2.14,0c-0.07,0.07-0.14,0.13-0.21,0.2c-0.32,0-0.65,0-0.91,0c-0.26,0.15-0.47,0.26-0.72,0.4c-0.16,0-0.35,0-0.56,0   c-0.17,0.34-0.53,0.41-0.82,0.56c-0.46,0.24-0.94,0.44-1.33,0.78c-0.04,0.04-0.13,0.02-0.17,0.05c-0.19,0.18-0.38,0.35-0.55,0.55   c-0.16,0.19-0.42,0.29-0.48,0.58c-0.06,0.27-0.34,0.37-0.49,0.58c-0.09,0.13-0.23,0.2-0.3,0.36c-0.17,0.42-0.39,0.81-0.57,1.22   c-0.05,0.11,0.02,0.25-0.09,0.35c-0.06,0.06-0.07,0.17-0.11,0.24c-0.06,0.11-0.13,0.2-0.22,0.32c0,0.37,0,0.75,0,1.12   c-0.23,0.13-0.13,0.45-0.37,0.55c0,0.65,0,1.3,0,2.04c0.1,0.07,0.26,0.18,0.4,0.28c0,0.43,0,0.82,0,1.13   c0.15,0.27,0.26,0.49,0.38,0.7c0,0.16,0,0.32,0,0.49c0.06,0.1,0.14,0.2,0.19,0.31c0.16,0.32,0.29,0.66,0.48,0.97   c0.13,0.21,0.38,0.36,0.48,0.58c0.12,0.28,0.36,0.44,0.55,0.65c0.17,0.19,0.36,0.37,0.55,0.55c0.18,0.17,0.34,0.34,0.6,0.43   c0.22,0.09,0.36,0.37,0.57,0.52c0.08,0.06,0.22,0.1,0.33,0.14c0.23,0.09,0.41,0.27,0.66,0.29c0.14,0.3,0.49,0.07,0.67,0.27   c0.2,0.23,0.5-0.01,0.72,0.14c0.11,0.11,0.23,0.23,0.34,0.34c0.26,0,0.52,0,0.77,0c0.07,0.07,0.14,0.13,0.2,0.19   c0.21,0,0.4,0,0.59,0c0.08-0.23,0.35-0.12,0.47-0.28c-0.13-0.14-0.26-0.28-0.38-0.41c0-0.11-0.01-0.21,0.1-0.27   c0.31,0,0.64,0,0.96,0c0.09,0.1,0.24,0.16,0.26,0.33c-0.3,0.13-0.61,0.32-0.68,0.42c0.28,0.01,0.55,0.1,0.81-0.14   c0.09-0.09,0.3-0.07,0.44,0.01c0.06,0.06,0.1,0.1,0.15,0.15c0.12,0,0.25,0,0.39,0c0.13-0.13,0.27-0.26,0.41-0.39   c0.2,0,0.39,0,0.57,0c0.1-0.1,0.19-0.19,0.29-0.29c-0.14-0.06-0.27-0.13-0.4-0.19c0.01-0.11-0.03-0.21,0.1-0.29   c0.11,0,0.24,0,0.38,0c0.05,0.05,0.12,0.11,0.2,0.18c0.12,0,0.25,0,0.38,0c0.13-0.13,0.27-0.26,0.4-0.38   c0.23-0.04,0.46,0.09,0.66-0.08c0-0.07,0.01-0.13,0.02-0.26c0.13-0.12,0.3-0.27,0.46-0.42c0.23,0.08,0.3-0.21,0.5-0.21   c0.12,0.03,0.26-0.06,0.36,0.07c-0.11,0.18-0.12,0.39-0.19,0.57c-0.07,0.2-0.21,0.37-0.17,0.63c0.22,0.21,0.45,0.43,0.71,0.67   c0.15,0,0.35,0,0.54,0c0.07,0.07,0.14,0.13,0.21,0.2c0.2,0.07,0.27-0.13,0.43-0.2c0.11,0,0.24,0,0.28,0   c0.28-0.27,0.51-0.49,0.74-0.7c0-0.52,0-1.04,0-1.54c-0.06-0.06-0.1-0.1-0.16-0.16C86.01,54.19,86.01,53.98,86.01,53.78z    M83.47,48.34c0,0.31,0,0.64,0,0.96c-0.07,0.07-0.13,0.15-0.2,0.22c0.08,0.34-0.14,0.59-0.29,0.84c-0.09,0.15-0.1,0.29-0.11,0.45   c-0.08,0.22-0.26,0.36-0.43,0.49c-0.19,0.15-0.11,0.42-0.33,0.55c-0.16,0.1-0.28,0.26-0.42,0.41c-0.16,0.16-0.31,0.33-0.42,0.45   c-0.44,0.1-0.76,0.28-1,0.58c-0.4,0.03-0.53,0.43-0.85,0.62c-0.1,0-0.26-0.05-0.35,0.01c-0.13,0.09-0.24,0.2-0.42,0.17   c-0.14-0.03-0.25,0.04-0.32,0.18c-0.61,0-1.22,0-1.81,0c-0.06-0.06-0.11-0.11-0.17-0.17c-0.24,0-0.5,0-0.74,0   c-0.27-0.18-0.52-0.35-0.86-0.43c-0.22-0.22-0.47-0.48-0.73-0.74c-0.12,0-0.25,0-0.33,0c-0.39-0.39-0.76-0.76-1.16-1.16   c-0.08-0.47-0.55-0.8-0.77-1.43c0-0.09,0-0.25,0-0.42c-0.06-0.07-0.12-0.14-0.19-0.21c0-0.96,0-1.93,0-2.91   c0.27-0.29,0.36-0.69,0.57-1.03c0.12-0.19,0.18-0.47,0.33-0.63c0.19-0.19,0.23-0.44,0.4-0.62c0.29-0.3,0.59-0.6,0.9-0.89   c0.08-0.08,0.23-0.08,0.32-0.15c0.11-0.07,0.19-0.18,0.29-0.28c0.11,0,0.24,0,0.4,0c0.18-0.3,0.51-0.41,0.93-0.6   c0.25,0,0.64,0,0.97,0c0.26-0.15,0.47-0.26,0.69-0.38c0.24,0.12,0.52,0.16,0.72,0.38c0.45,0,0.9,0,1.35,0   c0.12,0.17,0.35,0.16,0.47,0.28c0.16,0.16,0.44,0.1,0.55,0.34c0.1,0.23,0.43,0.11,0.54,0.34c0.09,0.19,0.31,0.18,0.46,0.28   c0.16,0.11,0.26,0.3,0.42,0.4c0.23,0.15,0.18,0.46,0.4,0.62c0.18,0.13,0.35,0.3,0.48,0.48c0.12,0.17,0.24,0.36,0.29,0.56   c0.04,0.14,0.12,0.21,0.2,0.31c0,0.12,0,0.25,0,0.38c0.07,0.07,0.13,0.14,0.2,0.21c0.07,0.2-0.13,0.27-0.19,0.39   c0,0.14,0,0.27,0,0.49c0.11,0.07,0.28,0.18,0.36,0.24C83.68,48.17,83.56,48.24,83.47,48.34z"></path>
	<path class="st0" d="M55.18,40.12c-0.17-0.24-0.47-0.28-0.7-0.43c-0.62,0-1.23,0-1.85,0c-0.03,0-0.05,0.03-0.12,0.08   c-0.08,0.08-0.19,0.2-0.29,0.31c-0.2,0-0.4,0-0.66,0c-0.09,0.12-0.2,0.27-0.3,0.4c-0.18,0-0.31,0-0.47,0   c-0.08,0.37-0.51,0.31-0.71,0.57c-0.16-0.22-0.46-0.33-0.51-0.66c-0.02-0.12-0.21-0.23-0.34-0.3c-0.21-0.12-0.44-0.2-0.64-0.33   c-0.09-0.06-0.18-0.06-0.32-0.07c-0.1,0.12-0.22,0.27-0.32,0.4c-0.17,0-0.3,0-0.41,0c-0.11,0.1-0.2,0.19-0.29,0.28   c0,0.13,0,0.26,0,0.39c-0.23,0.14-0.2,0.43-0.36,0.6c0.06,0.07,0.12,0.15,0.15,0.18c0,0.49,0,0.94,0,1.37   c-0.06,0.06-0.11,0.11-0.19,0.19c0.29,0.09,0.16,0.44,0.4,0.58c0.03,0.01,0,0.12,0,0.18c-0.07,0.07-0.13,0.15-0.2,0.22   c0,0.91,0,1.81,0,2.71c-0.05,0.05-0.1,0.1-0.18,0.18c0.21,0.2,0.27,0.49,0.4,0.75c-0.07,0.08-0.14,0.15-0.21,0.23   c0,0.76,0,1.54,0,2.32c-0.07,0.07-0.13,0.14-0.22,0.23c0.29,0.09,0.19,0.42,0.38,0.58c-0.06,0.07-0.12,0.15-0.15,0.18   c0,1.53,0,3.02,0,4.49c0.22,0.17,0.23,0.45,0.42,0.63c0.21,0.2,0.48,0.27,0.73,0.43c0.23-0.06,0.49,0.05,0.72-0.05   c0.29-0.29,0.57-0.56,0.84-0.83c0-3.63,0-7.26,0-10.88c0.17-0.28,0.45-0.43,0.6-0.74c0.15-0.3,0.46-0.53,0.7-0.78   c0.22-0.23,0.47-0.44,0.68-0.69c0.23-0.27,0.64-0.29,0.8-0.61c0.24-0.01,0.46-0.03,0.64-0.04c0.08-0.08,0.12-0.12,0.17-0.17   c0.39,0,0.77,0,1.16,0c0.07-0.07,0.14-0.13,0.21-0.19c0.09-0.02,0.2,0.03,0.27-0.08c0-0.17,0.07-0.3,0.22-0.41   c0-0.38,0-0.77,0-1.15C55.24,40.17,55.2,40.14,55.18,40.12z"></path>
	<path class="st0" d="M66.13,35.69c-0.33-0.12-0.11-0.46-0.27-0.67c-0.16-0.21-0.25-0.48-0.4-0.77c-0.16-0.16-0.37-0.37-0.58-0.58   c-0.12,0-0.24,0-0.38,0c-0.14-0.13-0.28-0.27-0.41-0.4c-0.52,0-1.04,0-1.63,0c-0.09,0.12-0.2,0.27-0.29,0.39c-0.16,0-0.26,0-0.41,0   c-0.45,0.44-0.86,0.86-1.27,1.27c0.05,0.27-0.31,0.42-0.19,0.7c-0.13,0.24-0.25,0.48-0.41,0.77c0,0.2,0,0.46,0,0.69   c-0.06,0.06-0.11,0.11-0.18,0.18c0,0.24,0,0.49,0,0.75c0,0.29,0.01,0.58,0,0.88c-0.01,0.25,0.05,0.51-0.05,0.79   c-0.41,0-0.82,0-1.2,0c-0.19,0.19-0.37,0.34-0.51,0.52c-0.15,0.19-0.25,0.41-0.36,0.58c0,0.35,0,0.67,0,0.97   c0.29,0.29,0.57,0.57,0.88,0.88c0.38,0,0.79,0,1.24,0c0,4.4,0,8.77,0,13.13c0.26,0.23,0.48,0.47,0.75,0.65   c0.09,0.06,0.22,0.1,0.31,0.19c0.02,0.02,0.06,0.02,0.09,0.02c0.16,0,0.32,0,0.49,0c0.14-0.06,0.2-0.27,0.36-0.21   c0.38-0.19,0.55-0.53,0.74-0.94c0-4.07,0-8.22,0-12.37c0-0.02-0.05-0.04-0.03-0.02c-0.08-0.09-0.12-0.14-0.16-0.18   c0.09-0.09,0.18-0.18,0.28-0.28c0.13,0,0.25,0,0.38,0c0.07-0.07,0.14-0.13,0.22-0.2c0.13,0,0.26,0,0.38,0   c0.08-0.07,0.15-0.13,0.22-0.2c0.45,0,0.9,0,1.35,0c0.13-0.15,0.08-0.39,0.28-0.48c0-0.32,0-0.65,0-0.94   c-0.24-0.25-0.46-0.49-0.68-0.72c-0.2,0-0.4,0-0.58,0c-0.08-0.07-0.15-0.13-0.22-0.2c-0.19,0-0.38,0-0.57,0   c-0.06-0.06-0.1-0.1-0.18-0.18c-0.25,0-0.53,0-0.71,0c-0.18-0.14-0.28-0.22-0.35-0.27c-0.09-0.25,0.13-0.31,0.19-0.49   c0-0.35,0-0.74,0-1.11c0.06-0.06,0.1-0.1,0.18-0.18c0-0.31,0-0.66,0-0.97c0.15-0.15,0.26-0.26,0.38-0.38c0-0.03,0-0.06,0-0.08   c0.13-0.21,0.21-0.34,0.26-0.42c0.2,0,0.29,0,0.39,0c0.19,0.17,0.37,0.34,0.54,0.49c0,0.31,0,0.56,0,0.8   c0.23,0.23,0.43,0.43,0.64,0.64c0.21,0.04,0.46-0.04,0.6,0.21c0.13,0,0.26,0,0.38,0c0.42-0.23,0.38-0.76,0.7-1.07   c0-0.19,0-0.38,0-0.58c-0.06-0.07-0.13-0.14-0.2-0.21C66.13,35.95,66.13,35.82,66.13,35.69z"></path>
	<path class="st0" d="M117.86,40.33c-0.14-0.14-0.26-0.35-0.42-0.4c-0.19-0.06-0.31-0.19-0.42-0.22c-0.58,0-1.09,0-1.59,0   c-0.13,0.24-0.45,0.13-0.55,0.37c-0.27-0.08-0.49,0.07-0.69,0.2c-0.21,0.13-0.44,0.2-0.64,0.33c-0.3,0.19-0.65,0.31-0.97,0.45   c-0.27-0.31-0.26-0.78-0.64-0.99c-0.34,0.05-0.57-0.18-0.85-0.29c-0.05-0.02-0.09-0.04-0.13-0.06c-0.12,0.12-0.24,0.24-0.35,0.35   c-0.06,0-0.13,0-0.18,0c-0.23,0.23-0.47,0.46-0.69,0.69c-0.02,0.02,0,0.06,0,0.1c-0.03,0.12,0.08,0.16,0.19,0.31   c0,4.72,0,9.45,0,14.18c-0.07,0.07-0.13,0.14-0.2,0.21c0.15,0.41,0.15,0.41,1.09,1.24c0.33,0,0.65,0,0.96,0   c0.15-0.15,0.27-0.31,0.43-0.42c0.22-0.16,0.26-0.42,0.39-0.62c0.11-0.17,0.11-0.43-0.15-0.59c0-0.25,0-0.5,0-0.76   c0-0.29,0-0.57,0-0.83c0.16-0.11,0.27-0.27,0.18-0.35c-0.2-0.18-0.16-0.48-0.37-0.62c0-0.39,0-0.78,0-1.15   c0.07-0.08,0.13-0.16,0.2-0.23c0-0.19,0-0.38,0-0.56c0.1-0.1,0.21-0.18,0.17-0.36c-0.04-0.05-0.1-0.12-0.19-0.23   c0-0.22,0-0.48,0-0.73c0-0.29,0-0.57,0-0.83c-0.16-0.11-0.23-0.21-0.19-0.37c0.06-0.06,0.12-0.13,0.19-0.2c0-0.26,0-0.51,0-0.77   c-0.07-0.07-0.13-0.14-0.19-0.2c0-0.2,0-0.4,0-0.58c0.07-0.08,0.13-0.15,0.2-0.23c0-0.39,0-0.77,0-1.2   c0.39-0.1,0.34-0.55,0.62-0.78c0.28-0.22,0.5-0.51,0.76-0.75c0.28-0.24,0.45-0.63,0.88-0.69c0.21-0.29,0.54-0.4,0.83-0.55   c0.11,0,0.21,0,0.3,0c0.07-0.07,0.14-0.13,0.22-0.2c0.32,0,0.64,0,0.96,0c0.68-0.45,0.68-0.45,1.04-1.09   C117.8,40.8,117.97,40.51,117.86,40.33z"></path>
	<path class="st0" d="M105.63,45.42c-0.12-0.12-0.24-0.24-0.39-0.39c0-0.44,0-0.92,0-1.36c-0.08-0.08-0.13-0.13-0.19-0.19   c0-0.08,0.01-0.18,0-0.27c-0.01-0.12,0.05-0.26-0.03-0.35c-0.07-0.07-0.11-0.11-0.16-0.16c0.08-0.34-0.13-0.6-0.29-0.85   c-0.16-0.24-0.38-0.46-0.61-0.62c-0.27-0.17-0.23-0.52-0.47-0.69c-0.11-0.07-0.21-0.27-0.27-0.26c-0.27,0.07-0.34-0.33-0.6-0.22   c-0.19-0.16-0.31-0.41-0.61-0.41c-0.11-0.23-0.42-0.12-0.55-0.34c-0.04-0.06-0.24-0.02-0.39-0.03c-0.06-0.05-0.13-0.12-0.2-0.18   c-0.03,0-0.06,0-0.09,0c-0.36,0-0.71,0-0.99,0c-0.31-0.15-0.54-0.28-0.79-0.39c-0.28-0.11-0.42,0.24-0.68,0.22   c-0.1,0.2-0.35,0.12-0.47,0.27c-0.04,0.04-0.1,0.06-0.16,0.09c-0.16,0-0.32,0-0.5,0c-0.07,0.06-0.14,0.12-0.21,0.19   c-0.17,0.03-0.34,0-0.53,0.12c-0.21,0.13-0.4,0.29-0.6,0.42c-0.23,0.14-0.49,0.22-0.72,0.37c-0.13,0.09-0.3,0.04-0.41,0.19   c-0.11,0.14-0.22,0.33-0.46,0.28c-0.07,0.13-0.13,0.27-0.21,0.4c-0.05,0.08-0.14,0.13-0.2,0.18c-0.08-0.01-0.14-0.02-0.26-0.05   c0-2.41,0-4.83,0-7.2c-0.32-0.32-0.62-0.62-0.91-0.92c-0.44,0-0.89,0-1.29,0c-0.2,0.18-0.37,0.33-0.53,0.47   c0.08,0.22-0.14,0.28-0.18,0.4c0,5.6,0,11.17,0,16.72c0.07,0.08,0.12,0.15,0.17,0.21c-0.06,0.06-0.11,0.11-0.16,0.16   c0,0.66,0,1.34,0,1.99c0.07,0.07,0.11,0.11,0.17,0.17c0,0.66,0,1.34,0,2.02c0,0.03-0.01,0.07,0,0.1c0.01,0.03,0.03,0.05,0.05,0.08   c0.11,0.07,0.17,0.18,0.14,0.3c0.22,0.34,0.55,0.52,0.95,0.71c0.12,0,0.32,0,0.51,0c0.1-0.24,0.39-0.15,0.55-0.34   c0.16-0.2,0.38-0.35,0.51-0.47c0-1.07,0-2.04,0-3c-0.09-0.1-0.22-0.17-0.18-0.33c0.06-0.1,0.13-0.2,0.21-0.33c0-1.91,0-3.85,0-5.8   c0.14-0.07,0.14-0.19,0.19-0.31c0.05-0.14,0.2-0.24,0.31-0.36c0.11-0.11,0.04-0.3,0.2-0.41c0.12-0.08,0.22-0.19,0.27-0.37   c0.05-0.16,0.23-0.29,0.36-0.43c0.11-0.12,0.19-0.22,0.23-0.39c0.04-0.16,0.23-0.34,0.39-0.41c0.37-0.15,0.62-0.43,0.87-0.7   c0.12-0.13,0.29-0.12,0.4-0.21c0.29-0.24,0.69-0.26,0.95-0.54c0.19,0,0.39,0,0.58,0c0.07-0.07,0.14-0.13,0.2-0.19   c0.47,0,0.92,0,1.36,0c0.05,0.05,0.09,0.12,0.15,0.14c0.35,0.1,0.67,0.28,0.98,0.46c0.35,0.21,0.61,0.56,0.91,0.85   c0.07,0.07,0.15,0.12,0.19,0.15c0.04,0.27-0.07,0.51,0.08,0.71c0.09,0.02,0.18,0.04,0.3,0.06c0,0.29,0,0.57,0,0.8   c0.1,0.12,0.16,0.19,0.19,0.23c0,0.23,0,0.42,0,0.6c-0.11,0.1-0.21,0.18-0.19,0.29c0.16,0.16,0.29,0.29,0.43,0.43   c-0.1,0.11-0.16,0.18-0.23,0.24c0,0.75,0,1.5,0,2.24c0,0.08,0,0.19,0.19,0.11c0-0.62,0-1.27,0-1.91c0-0.05,0.06-0.11,0.09-0.16   c0.06,0,0.13,0,0.21,0c0.07,0.08,0.16,0.18,0.26,0.29c0,1.03,0,2.09,0,3.12c-0.2,0.31-0.61,0.27-0.75,0.58c0,0.46,0,0.91,0,1.38   c0.1,0.05,0.17,0.13,0.24,0.2c0,0.86,0,1.53,0,2.49c-0.03,0.06-0.05,0.13-0.02,0.22c0,0,0.01,0.01,0.02,0.02c0,0.01,0,0.01,0,0.01   c0.22,0.17,0.23,0.45,0.42,0.63c0.21,0.2,0.48,0.27,0.73,0.43c0.23-0.06,0.49,0.05,0.72-0.05c0,0,0.01,0,0.01,0   c0.03,0,0.06,0,0.09,0c0.02,0,0.04-0.02,0.05-0.03l0.66-0.64c0,0,0-0.01,0-0.01c0.03-0.1,0.05-0.21,0.05-0.33   c0-0.45-0.01-0.87-0.02-1.26c0.06-0.06,0.11-0.12,0.16-0.17c0-1.11,0-2.21,0-3.3c-0.07-0.08-0.13-0.15-0.2-0.23   C105.63,48.9,105.63,47.16,105.63,45.42z"></path>
	<path class="st0" d="M27.99,42.8c-0.26,0.12-0.45,0.32-0.58,0.57c-0.27,0.54-0.53,1.07-0.82,1.65c0.16,0.12,0.32,0.24,0.43,0.33   c-0.02,0.28,0.06,0.51-0.06,0.72c-0.2-0.16-0.46-0.32-0.52-0.27c0,0.19,0,0.41,0,0.57c-0.1,0.12-0.15,0.2-0.18,0.23   c0,0.44,0,0.82,0,1.16c0.08,0.11,0.14,0.19,0.16,0.22c0.07,0.27-0.3,0.32-0.18,0.56c0.06,0.07,0.13,0.14,0.2,0.21   c0,0.51,0,1.03,0,1.54c0.07,0.08,0.13,0.15,0.19,0.21c-0.06,0.44,0.32,0.72,0.39,1.12c-0.06,0.07-0.12,0.14-0.18,0.21   c0.07,0.21,0.33,0.07,0.45,0.26c0.1,0.16,0.14,0.34,0.24,0.49c0.2,0.3,0.27,0.68,0.57,0.93c0.12,0.42,0.47,0.66,0.76,0.95   c0.15,0.15,0.25,0.36,0.51,0.41c0.27,0.05,0.37,0.34,0.57,0.49c0.05,0.04,0.1,0.06,0.16,0.09c0.16,0,0.32,0,0.49,0   c0.1,0.06,0.2,0.14,0.31,0.19c0.13,0.07,0.26,0.16,0.41,0.19c0.15,0.03,0.32-0.02,0.43,0.15c0.4,0.06,0.76,0.21,1.1,0.46   c0.23,0,0.49,0,0.72,0c0.06,0.06,0.11,0.11,0.15,0.15c0.61,0,1.22,0,1.8,0c0.07-0.07,0.12-0.12,0.17-0.17c0.38,0,0.77,0,1.12,0   c0.24-0.14,0.45-0.26,0.69-0.4l1.15-0.42c0.11-0.22,0.44-0.1,0.54-0.34c0.24,0.04,0.34-0.14,0.47-0.28   c0.15-0.17,0.41-0.13,0.55-0.34c0.12-0.19,0.31-0.33,0.47-0.49c0.23-0.23,0.46-0.46,0.69-0.69c0.22-0.23,0.51-0.43,0.63-0.71   c0.14-0.32,0.43-0.46,0.6-0.74c0-0.37,0-0.76,0-1.15c-0.16-0.16-0.32-0.32-0.49-0.48c-0.32,0-0.64,0-0.97,0   c-0.14,0.13-0.27,0.26-0.41,0.39c-0.11,0-0.21-0.01-0.27,0.09c0,0.06-0.01,0.12-0.01,0.15c-0.77,0.77-1.53,1.53-2.29,2.29   c-0.27-0.12-0.44,0.18-0.68,0.2c-0.12,0.01-0.24,0-0.35,0.1c-0.25,0.22-0.63,0.22-0.87,0.49c-0.58,0-1.16,0-1.75,0   c-0.07-0.06-0.14-0.13-0.21-0.2c-0.26,0-0.51,0-0.76,0c-0.08-0.07-0.15-0.13-0.15-0.14c-0.57-0.1-1-0.34-1.39-0.63   c-0.37-0.27-0.8-0.41-1.1-0.58c-0.3-0.29-0.54-0.51-0.78-0.75c0-0.11,0-0.23,0-0.35c-0.13-0.13-0.24-0.24-0.37-0.37   c0-0.12,0-0.24,0-0.35c-0.16-0.15-0.29-0.28-0.4-0.38c0-0.19,0-0.32,0-0.45c-0.07-0.07-0.13-0.14-0.19-0.2c0-0.27,0-0.53,0-0.78   c0.1-0.1,0.19-0.19,0.28-0.28c0.84,0,1.68,0,2.53,0c0.07,0.06,0.14,0.13,0.21,0.19c0.26,0,0.52,0,0.77,0   c0.08-0.07,0.15-0.13,0.2-0.18c0.28,0,0.53,0,0.78,0c0.05,0.05,0.1,0.1,0.17,0.17c2.73,0,5.47,0,8.12,0   c0.28-0.28,0.51-0.5,0.75-0.75c-0.01-0.06,0.04-0.13,0.1-0.22c0.07-0.09,0.1-0.22,0.14-0.33c0.03-0.07,0.19-0.08,0.1-0.2   c-0.05-0.05-0.1-0.1-0.14-0.14c0.06-0.07,0.13-0.14,0.23-0.24c-0.13-0.25-0.27-0.52-0.44-0.84c0-0.19,0-0.45,0-0.65   c-0.08-0.12-0.18-0.2-0.17-0.28c0.02-0.21-0.28-0.28-0.2-0.5c0.08-0.23-0.15-0.33-0.21-0.5c-0.12-0.34-0.29-0.66-0.47-0.97   c-0.14-0.24-0.49-0.33-0.49-0.67c-0.23-0.23-0.45-0.46-0.68-0.69c-0.25-0.25-0.51-0.5-0.75-0.76c-0.24-0.25-0.64-0.28-0.8-0.61   c-0.15,0-0.27,0-0.47,0c-0.09-0.12-0.2-0.27-0.29-0.4c-0.19,0-0.31,0-0.42,0c-0.13-0.13-0.24-0.24-0.39-0.39c-0.25,0-0.53,0-0.78,0   c-0.08-0.08-0.13-0.13-0.17-0.17c-0.39,0-0.77,0-1.16,0c-0.07-0.07-0.14-0.13-0.21-0.19c-0.59,0-1.17,0-1.74,0   c-0.08,0.07-0.15,0.13-0.22,0.2c-0.32,0-0.64,0-0.96,0c-0.05,0.05-0.1,0.1-0.15,0.15c-0.29,0.12-0.63-0.06-0.91,0.13   c-0.02,0.1,0.04,0.21-0.13,0.31c-0.16,0-0.37,0-0.56,0c-0.13,0.13-0.21,0.22-0.31,0.31c-0.04,0.04-0.11,0.07-0.16,0.07   c-0.3,0.02-0.36,0.46-0.71,0.41c-0.02,0-0.07,0.05-0.06,0.06c0.06,0.22-0.21,0.3-0.21,0.5c0.19,0.03,0.41-0.07,0.53,0.05   c-0.37,0.37-0.72,0.72-1.07,1.07c-0.03-0.12-0.25-0.14-0.24-0.33c0,0,0,0,0,0c0,0,0,0,0,0c0,0,0,0,0,0   c-0.11,0.02-0.24-0.05-0.39,0.09c0,0.14,0.01,0.31,0,0.48L27.99,42.8z M39.41,45.89c-0.27,0.05-0.32-0.1-0.44-0.17   c-0.56,0-1.14,0-1.73,0c-0.13,0.13-0.27,0.26-0.4,0.38c-0.21,0-0.4,0-0.59,0c-0.05-0.05-0.1-0.1-0.17-0.17c-0.26,0-0.54,0-0.82,0   c-0.05,0.05-0.1,0.1-0.18,0.18c-0.44,0-0.92,0-1.36,0c-0.08,0.08-0.13,0.13-0.18,0.18c-0.18,0-0.37,0-0.59,0   c-0.05-0.05-0.12-0.11-0.2-0.18c-0.31,0-0.63,0-0.97,0c-0.06,0.06-0.13,0.12-0.2,0.19c-0.73,0-1.47,0-2.22,0c0-0.22,0-0.37,0-0.52   c0.22-0.08,0.45-0.12,0.56-0.46c0-0.01-0.02-0.14,0.01-0.27c0.03-0.12,0.2-0.15,0.19-0.31c-0.02-0.2,0.28-0.27,0.21-0.5   c0.19-0.1,0.16-0.32,0.27-0.47c0.12-0.18,0.35-0.14,0.47-0.28c0.13-0.15,0.38-0.07,0.48-0.27c0.25,0,0.38-0.19,0.54-0.34   c0.13-0.13,0.38-0.06,0.47-0.28c0.26,0,0.52,0,0.79,0c0.11-0.11,0.22-0.23,0.34-0.35c0.25-0.09,0.51-0.02,0.76-0.04   c0.22-0.01,0.45,0,0.67,0c0.14,0.28,0.47,0.1,0.59,0.24c0.16,0.19,0.46,0.08,0.56,0.34c0.25,0,0.51,0,0.76,0   c0.13,0.16,0.35,0.16,0.47,0.27c0.17,0.15,0.43,0.11,0.55,0.32c0.24-0.04,0.32,0.18,0.46,0.29c0,0.06,0,0.13,0,0.2   c0.23,0.23,0.43,0.49,0.69,0.68c0.25,0.18,0.25,0.51,0.47,0.68c0,0.13,0,0.26,0,0.39C39.55,45.72,39.47,45.87,39.41,45.89z"></path>
	<path class="st0" d="M68.3,81.24c-0.02-0.09,0.08-0.12,0.11-0.18c0-0.07,0-0.15,0-0.22c-0.05-0.05-0.12-0.1-0.15-0.16   c-0.14-0.26-0.27-0.52-0.4-0.77c0-0.06,0-0.12,0-0.17c-0.2-0.16-0.26-0.42-0.44-0.59c0.02-0.19-0.26-0.21-0.22-0.41   c-0.06-0.07-0.13-0.13-0.19-0.2c-0.12-0.12-0.23-0.23-0.35-0.35c-0.01-0.05-0.02-0.1-0.04-0.17c-0.13,0.03-0.2-0.06-0.27-0.13   c-0.12-0.12-0.25-0.22-0.35-0.36c-0.12-0.15-0.3-0.18-0.44-0.29c-0.09,0-0.18,0-0.28,0c-0.02,0-0.03-0.01-0.05-0.02   c-0.09-0.11-0.21-0.17-0.34-0.24c-0.12-0.07-0.2-0.21-0.27-0.3c-0.17,0-0.27,0-0.39,0c-0.14-0.25-0.44-0.27-0.66-0.44   c-0.32,0-0.65,0-1.05,0c-0.07-0.09-0.18-0.22-0.27-0.34c-0.09,0-0.16,0.01-0.22,0.01c-0.08,0.08-0.14,0.14-0.21,0.21   c-0.07,0-0.14,0-0.22,0c-0.03-0.03-0.07-0.07-0.12-0.11c-0.18,0-0.37,0-0.6,0c-0.04,0.06-0.1,0.15-0.15,0.21   c-0.15-0.08-0.27-0.15-0.37-0.2c-0.24,0-0.46,0-0.66,0c-0.08,0.08-0.14,0.14-0.21,0.21c-0.07,0-0.15,0-0.28,0   c-0.04,0.06-0.1,0.15-0.15,0.23c-0.17,0-0.32,0-0.46,0c-0.11,0.1-0.21,0.19-0.35,0.25c-0.12,0.06-0.2,0.2-0.29,0.3   c-0.1,0-0.17,0-0.26,0c-0.21,0.22-0.43,0.44-0.65,0.67c-0.19,0-0.37,0-0.55,0c-0.06,0.06-0.11,0.11-0.16,0.16c0,0.03,0,0.07,0,0.12   c-0.14,0.14-0.28,0.28-0.43,0.42c0.02,0.19-0.2,0.24-0.24,0.4c-0.04,0.17-0.23,0.23-0.3,0.37c-0.04,0.09-0.1,0.18-0.15,0.29   c0,0.12,0,0.27,0,0.41c-0.15,0.03-0.04,0.22-0.17,0.26c-0.05,0-0.11,0-0.14,0.06c0,0.03,0,0.07,0,0.1   c-0.08,0.08-0.15,0.16-0.23,0.24c0,0.11,0,0.22,0,0.33c-0.19,0.08-0.02,0.33-0.2,0.42c-0.01,0.12-0.02,0.25-0.03,0.36   c-0.08,0.08-0.14,0.14-0.21,0.21c0,0.33,0,0.66,0,0.99c-0.08,0.08-0.15,0.16-0.22,0.23c0,0.08,0,0.16,0,0.28   c0.06,0.04,0.16,0.1,0.23,0.15c0,0.23,0,0.41,0,0.58c0.08,0.08,0.14,0.14,0.21,0.21c0,0.15,0,0.29,0,0.44   c-0.07,0.08-0.15,0.16-0.22,0.23c0,0.12,0,0.23,0,0.34c0.12,0.09,0.12,0.26,0.24,0.35c0.12,0.09,0.21,0.2,0.32,0.3   c-0.05,0.13,0.07,0.17,0.11,0.25c0,0.06,0,0.14,0,0.26c0.06,0.04,0.16,0.1,0.23,0.15c0,0.23,0,0.41,0,0.6   c0.06,0.01,0.11,0.02,0.17,0.04c0.12,0.12,0.24,0.25,0.37,0.39c0.01,0.01,0,0.04,0,0.06c-0.03,0.05-0.06,0.11-0.09,0.16   c0.14,0.04,0.04,0.21,0.17,0.24c0.18,0.09,0.37,0.18,0.59,0.29c0.13,0.13,0.29,0.27,0.44,0.44c0.14,0.17,0.38,0.2,0.5,0.39   c0.08,0,0.15,0,0.24,0c0.05,0.06,0.12,0.13,0.16,0.2c0.07,0.12,0.12,0.25,0.18,0.37c0.02,0.04,0.08,0.07,0.11,0.1   c0.11,0,0.2,0,0.29,0c0.12,0.09,0.23,0.16,0.39,0.08c0.03-0.03,0.05-0.05,0.08-0.08c0.24,0.22,0.29,0.24,0.63,0.33   c0.06,0.02,0.12,0.07,0.19,0.12c0.09,0,0.2,0,0.32,0c0.02,0.13,0.15,0.07,0.21,0.13c0.08,0.06,0.13,0.18,0.28,0.2   c0.08-0.07,0.17-0.15,0.26-0.22c0.12,0,0.23,0,0.33,0c0.11,0.07,0.15,0.24,0.34,0.21c0.05-0.07,0.12-0.15,0.17-0.22   c0.55,0,1.07,0,1.59,0c0.09-0.09,0.18-0.18,0.28-0.28c0-0.03,0-0.07,0-0.1c0.06-0.11,0.23-0.03,0.27-0.18c0.23,0,0.46,0,0.68,0   c0.05-0.05,0.07-0.07,0.1-0.1c0.07,0,0.14,0,0.23,0c0.14-0.22,0.4-0.25,0.6-0.39c0-0.04,0-0.07,0-0.12   c0.07-0.04,0.15-0.07,0.22-0.11c0-0.04,0-0.08,0-0.11c0.04-0.06,0.09-0.06,0.2-0.05c0.12-0.14,0.26-0.31,0.37-0.45   c0.2,0,0.34,0,0.47,0c0.18-0.07,0.16-0.25,0.25-0.36c0.05-0.06,0.04-0.17,0.05-0.26c0.06-0.06,0.17-0.12,0.18-0.19   c0.02-0.11,0.12-0.18,0.14-0.28c0.01-0.05,0-0.11,0-0.19c0.11-0.09,0.23-0.2,0.33-0.29c0-0.1-0.01-0.16,0.05-0.19   c0.03,0,0.07,0,0.11-0.01c0.1-0.1,0.22-0.18,0.29-0.32c-0.01-0.07-0.01-0.15-0.04-0.21c-0.04-0.06-0.1-0.11-0.07-0.23   c0.21,0.01,0.3-0.18,0.43-0.32c-0.01-0.09,0.03-0.19-0.06-0.26c-0.1-0.09-0.05-0.2-0.03-0.32c0.21-0.04,0.16-0.29,0.31-0.4   c0-0.55,0-1.11,0-1.68c0.16-0.05,0.1-0.25,0.21-0.33c0-0.37,0-0.74,0-1.1c-0.11-0.11-0.22-0.22-0.32-0.32   C68.3,81.28,68.3,81.26,68.3,81.24z M66.53,83.73c-0.03,0.03-0.06,0.07-0.09,0.11c0,0.21,0,0.42,0,0.64   c-0.03,0.03-0.06,0.07-0.1,0.1c0,0.12,0,0.25,0,0.34c-0.13,0.25-0.25,0.48-0.37,0.71c-0.06,0.11-0.08,0.25-0.18,0.34   c0.03,0.18-0.22,0.21-0.2,0.38c-0.1,0.1-0.2,0.19-0.29,0.3c-0.07,0.08-0.17,0.12-0.17,0.26c0,0.04-0.08,0.12-0.12,0.12   c-0.13,0-0.17,0.12-0.26,0.17c-0.08,0.04-0.16,0.06-0.22,0.13c-0.07,0.08-0.15,0.15-0.23,0.23c-0.07,0.07-0.13,0.13-0.22,0.22   c-0.13,0-0.25,0-0.37,0c-0.06,0.06-0.11,0.11-0.17,0.17c-0.08,0-0.18,0-0.26,0c-0.15,0.13-0.35,0.16-0.5,0.28   c-0.04,0.03-0.12,0-0.17,0c-0.04,0.04-0.07,0.07-0.1,0.09c-0.24,0-0.47,0-0.7,0c-0.1,0.02-0.15,0.18-0.29,0.1   c-0.03-0.03-0.07-0.06-0.11-0.09c-0.2,0-0.42,0-0.63,0c-0.04-0.03-0.07-0.06-0.11-0.1c-0.27,0-0.55,0-0.82,0   c-0.15-0.12-0.34-0.17-0.5-0.28c-0.04-0.03-0.12,0-0.17,0c-0.06-0.06-0.12-0.12-0.18-0.18c-0.05,0-0.11,0-0.16,0   c-0.13-0.05-0.16-0.22-0.31-0.19c-0.08-0.08-0.17-0.14-0.23-0.23c-0.05-0.07-0.2,0-0.19-0.14c0-0.09-0.09-0.11-0.13-0.18   c-0.11,0.02-0.16-0.07-0.22-0.13c-0.05-0.05-0.11-0.09-0.11-0.19c0-0.05-0.07-0.13-0.12-0.13c-0.21-0.01-0.24-0.2-0.32-0.33   c-0.1-0.16-0.16-0.34-0.24-0.51c-0.04-0.01-0.08-0.02-0.12-0.03c-0.08-0.1,0-0.21-0.07-0.34c-0.03-0.03-0.1-0.1-0.15-0.16   c0-0.07,0.01-0.15-0.02-0.19c-0.05-0.06-0.1-0.12-0.08-0.2c0.01-0.07-0.03-0.11-0.1-0.17c0-0.15,0-0.32,0-0.47   c-0.04-0.04-0.06-0.06-0.09-0.09c0-0.12,0-0.24,0-0.36c-0.12-0.09-0.07-0.26-0.18-0.3c-0.02-0.1,0.03-0.12,0.07-0.18   c0-0.11,0-0.25,0-0.36c0.04-0.04,0.06-0.06,0.08-0.08c0.02-0.06-0.04-0.06-0.07-0.12c0-0.07,0-0.16,0-0.24   c0.09-0.19,0.19-0.37,0.27-0.55c0.02-0.04,0-0.09,0-0.13c0.03-0.04,0.06-0.07,0.1-0.11c0-0.18,0-0.37,0-0.54   c0.07-0.08,0.13-0.15,0.18-0.22c0.02-0.02,0.01-0.06,0.02-0.07c0.11-0.17,0.27-0.25,0.36-0.42c0.08-0.16,0.23-0.28,0.36-0.43   c0-0.01,0-0.04,0-0.08c0.11-0.11,0.22-0.22,0.33-0.33c0.03,0,0.06,0,0.1,0c0.05-0.11,0.11-0.23,0.16-0.36   c0.05,0,0.11-0.01,0.14-0.01c0.14-0.14,0.27-0.27,0.39-0.39c0.15,0.08,0.18-0.1,0.28-0.07c0.12,0.04,0.19-0.08,0.29-0.1   c0.08-0.02,0.14-0.11,0.23-0.18c0.04,0,0.12,0.03,0.15,0c0.09-0.09,0.23-0.07,0.3-0.18c0.15,0,0.31,0,0.46,0   c0.04-0.03,0.07-0.06,0.1-0.09c0.18,0.02,0.3-0.09,0.5-0.18c0.31,0,0.68,0,1.1,0c0.03,0.05,0.09,0.12,0.14,0.2   c0.06-0.05,0.09-0.08,0.12-0.11c0.09,0,0.19,0,0.28,0c0.25,0.17,0.29,0.18,0.66,0.2c0.1,0.07,0.1,0.07,0.26,0.08   c0.08,0.11,0.23,0.15,0.34,0.25c0.1,0.09,0.24,0.11,0.33,0.22c0.09,0.12,0.25,0.13,0.38,0.2c0.01,0.04,0.02,0.08,0.03,0.13   c0.07,0.05,0.17,0.04,0.23,0.13c0.04,0.07,0.12,0.08,0.19,0.11c0.08,0.03,0.13,0.12,0.2,0.19c0.07,0.07,0.14,0.12,0.19,0.2   c0.04,0.06,0.03,0.14,0.1,0.19c0.08,0.05,0.11,0.14,0.13,0.22c0.04,0.01,0.08,0.02,0.12,0.03c0.07,0.14,0.14,0.29,0.22,0.45   c0,0.05,0,0.13,0,0.2c0.05,0.1,0.11,0.2,0.18,0.33c0,0.06,0,0.15,0,0.24c0.03,0.04,0.06,0.07,0.1,0.11c0,0.09,0,0.18,0,0.26   c0.02,0.07,0.11,0.08,0.1,0.16c-0.02,0.08,0.08,0.09,0.1,0.15c0,0.15,0,0.31,0,0.46c0.02,0.02,0.05,0.05,0.08,0.08   c0,0.08,0,0.17,0,0.29c-0.01,0.01-0.04,0.05-0.07,0.1c0,0.1,0,0.22,0,0.36C66.48,83.53,66.59,83.6,66.53,83.73z"></path>
</g>
</svg>
