<?xml version="1.0" encoding="UTF-8"?>
<svg xmlns="http://www.w3.org/2000/svg" width="60" height="61" viewBox="0 0 60 61" fill="none">
  <g clip-path="url(#clip0)">
    <path d="M51 1.54419V5.54419" stroke="white" stroke-width="2" stroke-linecap="round" stroke-linejoin="round"></path>
    <path d="M49 3.54419H53" stroke="white" stroke-width="2" stroke-linecap="round" stroke-linejoin="round"></path>
    <path d="M17 20.5442V24.5442" stroke="white" stroke-width="2" stroke-linecap="round" stroke-linejoin="round"></path>
    <path d="M15 22.5442H19" stroke="white" stroke-width="2" stroke-linecap="round" stroke-linejoin="round"></path>
    <path d="M8 59.5442C12 42.5442 20 36.5442 31 36.5442C33.6 36.5442 38.4 37.4442 44 41.1442" stroke="white" stroke-width="2" stroke-linecap="round" stroke-linejoin="round"></path>
    <path d="M58.9 45.4442L56.2 34.5442C54.2 26.5442 48.2 19.5442 46.2 16.5442C45.7 15.7442 44.9 14.4442 44.2 13.1442C42.8 10.7442 40.9 8.64419 38.6 7.14419L31.6 2.54419C30.6 1.84419 29.5 1.54419 28.3 1.54419H27.5C25.3 1.54419 23.2 2.74419 22.2 4.74419C21.5 6.24419 21.5 7.94419 22.3 9.34419C23.4 11.3442 25.3 13.5442 28.1 13.5442C30.3 13.4442 32.5 13.7442 34.6 14.3442C34.9 14.4442 35.2 14.6442 35.4 14.8442C40 19.7442 38.1 25.6442 38.1 30.5442C38.1 32.0442 38.3 33.5442 38.7 35.0442C38.9 35.7442 38.7 36.4442 38.1 36.9442C37.6 37.4442 36.9 37.6442 36.2 37.4442C34.5 36.8442 32.8 36.5442 31 36.5442C27.9 36.4442 24.8 37.0442 22 38.2442C21.5 38.4442 20.9 38.4442 20.3 38.2442C18.1 37.1442 15.6 36.5442 13 36.5442C9.1 36.6442 5.2 37.7442 1.9 39.9442C1.4 40.2442 1 40.9442 1 41.5442V57.5442C1 58.0442 1.2 58.5442 1.6 58.9442C2 59.3442 2.5 59.5442 3 59.5442H17.8C18.6 59.5442 19.4 59.2442 19.9 58.6442L20.6 57.9442C20.9 57.6442 21.3 57.5442 21.6 57.7442C25.3 58.9442 29.2 59.5442 33.1 59.5442C50.3 59.5442 56.8 50.8442 58.6 47.6442C59 47.0442 59.1 46.2442 58.9 45.4442Z" stroke="white" stroke-width="2" stroke-linecap="round" stroke-linejoin="round"></path>
  </g>
  <defs>
    <clipPath id="clip0">
      <rect width="60" height="60" fill="white" transform="translate(0 0.544189)"></rect>
    </clipPath>
  </defs>
</svg>
