<svg width="262" height="276" viewBox="0 0 262 276" fill="none" xmlns="http://www.w3.org/2000/svg">
<g clip-path="url(#clip0)">
<path d="M54.3 99.9H54.6C53.9 100 54.1 99.9 54.3 99.9ZM8.69998 17.3C8.59998 17.4 8.59998 17.4 8.69998 17.3C8.69998 17.3 8.79997 17.2 8.89997 17.1C8.99997 17 9.09998 16.9 9.29998 16.7C9.19998 16.8 8.99998 16.9 8.69998 17.3ZM9.89997 16.1C10.6 15.6 10.4 15.8 9.89997 16.1V16.1ZM83.3 18.9C83.6 19.1 83.8 19.4 84 19.9C83.8 19.6 83.5 19.3 83.3 18.9ZM95.6 46C95.7 46.4 96 47.1 95.8 47.4C95.4 47 95.6 46.6 95.6 46ZM93.9 65.8L94.2 65.2C94.3 65 94.4 64.8 94.5 64.6C94.5 64.8 94.5 65 94.5 65.2C94.5 65.4 94.5 65.6 94.4 65.7C94.3 66 94.3 66.3 94.3 66.4C94.3 66.7 94.3 66.7 94.7 66.2C94.5 66.1 94.5 65.7 94.6 65.2C94.7 64.7 94.8 64.1 95 63.4C95.2 62.8 95.3 62.1 95.3 61.6C95.3 61.1 95.3 60.7 95.1 60.6C95.2 60.3 95.3 60 95.4 59.8C95.4 60 95.4 60.1 95.3 60.3C95.7 59.5 95.5 59.1 95.4 58.7C95.3 58.5 95.3 58.3 95.2 58C95.2 57.7 95.2 57.3 95.3 56.8C95.4 56 95.6 55.5 95.7 56.1C95.7 55.5 95.7 54.9 95.6 54.4C95.6 53.9 95.8 54 95.8 54.5V53.2C95.8 52.8 95.8 52.3 95.8 51.9C95.7 51.5 95.4 50.7 95.3 50.3C95.4 49.6 95.4 50.6 95.5 50.5C95.4 50 95.3 49.5 95.2 49.1C95.3 48.8 95.4 48.9 95.5 49.3C95.6 49.5 95.6 49.7 95.6 49.9C95.6 50.1 95.6 50.4 95.6 50.7C95.8 50.4 95.9 50.1 96 49.9C96 49.7 96 49.5 95.9 49.2C95.8 49 95.8 48.7 95.7 48.2C95.7 47.8 95.7 47.2 95.7 46.5L95.8 47.2C95.8 47.4 95.9 47.7 95.9 47.9C96 47.7 96.1 47.4 96.1 47.2C96.1 46.9 96.1 46.7 96.1 46.4C96.1 45.8 96.1 45.1 96.1 44.3C96.1 44.5 95.9 45.3 95.8 45.9C95.6 46.5 95.5 46.8 95.3 46C95.3 45.8 95.3 45.5 95.3 45.2C95.3 44.9 95.2 44.5 95 44.1C95.3 44 95.1 43.2 94.9 42.2H95.3C95 41.1 94.7 41.2 94.4 40.6C94.2 39.4 94.4 39 94.7 38.7C94.3 36.7 94.5 40.2 93.8 37.9C93.7 37.5 93.7 37.1 93.6 36.7C93.5 36.3 93.4 36 93.2 35.6C93 35.2 92.9 34.9 92.7 34.5C92.5 34.1 92.3 33.7 92.1 33.3C91.8 32.2 92.4 33.4 92.4 33L91.7 32.2C92 32 92.1 32 92.2 32C91.7 31.3 91.8 32.1 91.1 30.9C90.8 30.8 90.7 30.1 90.5 29.3C90.3 28.5 90 27.5 89.3 26.8C89.2 26.4 89.6 26.8 89.7 26.6C88.2 24.8 88.5 25 87 23.7C86.8 23.2 86.6 22.7 86.4 22.2C86.8 23.4 85.6 22.3 84.6 21.5C84.7 21.9 84.8 22.3 84.9 22.5L84.2 21.7L83.9 21.3L83.5 20.9C83.4 20.7 83.7 20.7 84 20.9C83.9 20.8 83.8 20.7 83.7 20.7C83.4 20 83.8 20.2 84.3 20.4C84.4 20.7 84.5 20.9 84.5 21.2C85 21.5 85.5 21.7 85.7 21.4C85.6 21.3 85.4 21.1 85.2 20.9C85.3 21 85.4 21 85.4 20.9C85.4 20.8 85.2 20.7 84.9 20.5C84.9 20.3 85 20 85 19.8H84.8L84 18.6L83.6 18L83.2 17.4C82.3 16.8 81.5 16.3 80.6 15.8C80.1 15.5 79.7 15.2 79.1 14.8C78.6 14.5 78 14.1 77.4 13.6C78.2 13.9 77.9 13.3 78.2 13C78.4 13.5 78.8 13.8 79.4 14.2C80 14.6 80.6 15.1 81.2 15.7C80.6 15.1 80.9 15.1 81.1 15.2L80 14.5L78.8 13.7C79.1 13.5 78.5 13.1 78 12.5C78 12.9 77.5 12.7 76.9 12.2C76.6 12 76.2 11.7 75.9 11.5C75.6 11.3 75.2 11.1 75 10.9C75 10.8 75.1 10.7 75.4 10.8C75.6 10.9 76 11.1 76.6 11.6C76.1 10.9 75.6 10.8 75.1 10.6C74.8 10.5 74.6 10.5 74.3 10.3C74 10.2 73.8 10 73.5 9.7C73.8 9.9 73.9 10 74.1 10C73.3 9.7 71.7 8.5 72.2 8.6L72.5 8.8C72 8.4 71.4 8.1 70.7 7.7C70.4 7.5 70 7.3 69.7 7.1C69.3 6.9 69 6.7 68.6 6.6C67.2 5.9 66 5.6 65.7 5.7C65.7 5.6 66.2 5.2 66.4 5.2C65.6 5.2 64.9 5.1 64.1 5.2C63.3 5.2 62.6 5.2 61.9 5.3C62.1 5.2 62 4.7 62.1 4.4C62.1 4.2 62.2 4.1 62.4 4C62.6 3.9 62.9 3.9 63.4 4C62.9 3.7 62.3 3.4 61.1 3.2C61.4 3.4 61.8 4.1 61.3 4C60.1 3.1 60.5 3.4 58.9 2.5C59.4 2.8 58.6 3.2 57.8 3C58 2.9 57.9 2.3 58.2 2.4C57.4 2.4 56.6 2.5 55.9 2.5C56.5 2.5 56.1 2 55.7 1.7C55.9 1.9 53.8 1.3 53.2 1.3L54.1 1.6C52.9 1.3 52.2 1.5 51.6 1.6C51.3 1.7 51 1.7 50.6 1.8C50.2 1.8 49.7 1.9 49.1 1.8C49.4 1.7 49.9 1.1 48.7 0.9C48.5 1 48.3 1.1 48 1.2C47.7 1.3 47.3 1.5 46.9 1.7C46.5 1.9 46 2 45.5 2.1C45 2.2 44.5 2.4 43.9 2.4L43.4 2C42.9 2 42.3 2.2 41.8 2.2C42.1 2.1 42.4 1.9 42.8 1.8C43.2 1.6 43.7 1.5 44.3 1.3C45.4 0.9 46.5 0.7 47.3 0.5C46.4 0.3 47 0.3 45.6 0.3C45.1 0.1 46.4 0.1 46.8 0.1C46.2 0.1 45.7 0 45.1 0H43.4C43.5 0.2 42.8 0.3 42.2 0.4C41.6 0.5 40.9 0.6 41 0.8L42.8 0.5L44.6 0.3C44.7 0.5 44.2 0.7 43.3 0.9C42.9 1 42.4 1.1 41.9 1.2C41.4 1.3 40.8 1.3 40.2 1.4C39.9 1.4 40 1.2 40.2 1.1C40.4 0.9 40.6 0.8 40.6 0.7C40.3 0.8 38.4 1.2 38.2 1.1L39.2 0.8C38.5 0.8 38 1 37.5 1.1C37 1.3 36.4 1.4 35.6 1.4C35.1 1.5 34 1.4 33.9 1.6C34.8 1.7 35.2 2.7 34.7 3.1C34.6 3.1 33.9 3.2 33.2 3.2C32.5 3.3 31.7 3.4 31.4 3.4C30.5 3.4 32.5 2.5 31.7 2.5C31.7 2.6 31.2 2.8 31.1 2.9C30.5 3 31.3 2.6 30.1 3C30 3.3 27.7 3.8 29.6 3.4C29 3.6 28.7 3.7 28.4 3.8C28.2 3.8 28.1 3.9 27.8 3.9C27.6 4 27.3 4.1 27 4.2C27.2 4.2 27 4.5 26.6 4.8C26.2 5 25.6 5.3 25 5.6C25 5.5 24.8 5.5 24.6 5.6C24 5.8 23.5 6 23.1 6.2C22.6 6.4 22.2 6.6 21.8 6.8C21.4 7 21 7.2 20.6 7.4C20.2 7.6 19.7 7.9 19.3 8.2C19.1 8.3 18.1 8.8 18.5 8.4C18.2 8.6 18 8.8 17.4 9.2C16.2 9.8 18.7 8.3 17.7 8.7C17.7 8.8 17.3 9.1 16.9 9.4C16.7 9.6 16.4 9.8 16.2 9.9C16 10.1 15.7 10.3 15.5 10.4C15.8 10.3 17.4 9.1 18.2 8.5C18.3 8.6 18 9 17.4 9.4C17.1 9.6 16.8 9.9 16.4 10.2C16 10.5 15.6 10.9 15.1 11.2C14.4 11.8 14.2 11.9 14.1 11.8C14.1 11.8 14.2 11.6 14.1 11.7C12.7 12.8 12.2 13.3 11.7 13.8C11.5 14 11.3 14.3 11 14.6C10.7 14.9 10.3 15.2 9.79998 15.7C8.89998 16.4 9.59998 15.6 9.29998 15.7C10.3 14.6 11.1 14.2 11.8 13.5L10.8 14.3C11.1 14 11.9 13.2 12.3 12.9C12.1 13 11.7 13.3 11.2 13.8C10.7 14.2 10.1 14.7 9.49998 15.3C8.89998 15.9 8.19998 16.5 7.69998 17.2C7.09998 17.8 6.49998 18.4 6.09998 18.9C5.79998 19.3 5.29998 20 5.59998 19.7L6.09998 19C6.69998 18.5 5.19998 20.3 5.89998 19.5C5.59998 20 5.19998 20.4 4.79998 21C4.39998 21.6 3.99998 22.1 3.49998 22.8L3.19998 23C3.19998 23 3.39998 22.8 3.59998 22.5C3.99998 22.5 4.19998 22.2 4.39998 22C3.99998 22.5 2.89998 24 2.59998 24.6L3.29998 23.7C2.69998 24.7 1.99998 25.9 1.29998 27.1C1.69998 26.6 1.49998 26.8 2.09998 26C1.79998 26.3 2.29998 25.6 2.69998 24.8C3.19998 24.1 3.59998 23.5 3.19998 24C3.39998 23.8 3.69998 23.4 3.99998 23C4.29998 22.6 4.59998 22.2 5.09998 21.7C4.99998 21.7 4.69998 22 5.49998 21.1L5.59998 20.9C5.59998 20.9 5.59998 20.9 5.69998 20.8C5.49998 21 5.39998 21.2 5.29998 21.2C5.39998 21.1 5.49998 20.9 5.69998 20.7C5.89998 20.5 6.09998 20.2 6.29998 20C6.69998 19.5 7.09998 19 7.29998 18.8C7.79998 18.3 7.09998 19 7.39998 18.8L7.99998 18C8.09998 18 9.39998 16.7 8.29998 18C8.69998 17.6 8.99998 17.3 9.29998 16.9C9.59998 16.6 9.99997 16.3 10.4 15.9C10.6 15.7 10.8 15.6 10.9 15.4C11.1 15.2 11.2 15.1 11.4 15C12 14.6 12.7 13.7 12.3 14.2C12.9 13.7 13.5 13.2 14.1 12.7C14.3 12.5 14.6 12.3 14.8 12.2C15 12 15.3 11.9 15.5 11.7C16 11.4 16.5 11 17 10.6C17.5 10.3 18 9.9 18.6 9.6C18.7 9.5 18.9 9.4 19 9.4C19.1 9.3 19.3 9.3 19.4 9.2C19.7 9.1 20 8.9 20.3 8.8C20.6 8.6 21 8.4 21.4 8.2C21.8 8 22.3 7.8 22.9 7.5H23.2C23.6 7.2 24.3 7 25 6.8C25.6 6.6 26.2 6.3 26.4 6.2C26.7 6.2 27.1 6.1 27.6 6C28.1 5.9 28.7 5.6 29.3 5.5C29.9 5.3 30.5 5.1 31.1 4.9C31.7 4.7 32.2 4.6 32.7 4.5V4.3C33 4.2 33.3 4.2 33.6 4.1C33.9 4 34.2 4 34.5 3.9C34.8 3.8 35.1 3.7 35.4 3.7C35.7 3.6 36.1 3.5 36.4 3.5L36.3 3.3C36.9 3.1 37.8 3 38.7 3C39.6 3 40.6 2.9 41.7 2.9C41.6 3 41.1 3 40.7 3C41.3 3.1 41.9 3.1 42.6 3.1C43.2 3.1 43.9 3 44.5 3C45.7 2.9 47 2.8 48.1 3.1C48.7 3.1 49 3.1 49.4 3.2C49.3 3.2 49.3 3.2 49.3 3.2C49.4 3.2 49.4 3.2 49.5 3.2C49.7 3.3 50 3.3 50.2 3.4C49.7 3.1 49.5 3 49.3 3C49.7 3 50.3 3 51 3.1L51.2 3.4H51.3C51.9 3.6 51.8 3.4 51.5 3.1C51.8 3.1 52.1 3.1 52.3 3.1C52.5 3.3 52.9 3.4 53.4 3.5C53.8 3.6 54.3 3.6 54.6 3.9C54.8 3.8 55.6 4 56.4 4.1C56.8 4.2 57.2 4.2 57.5 4.2C57.8 4.2 58.1 4.2 58.2 4.1C58.2 4.2 58.4 4.3 58 4.2C58.7 4.5 59.3 4.7 60 4.8L60.2 5.3L61.8 5.4C62.2 5.7 62.5 5.9 62.5 6C62.6 6 62.4 6 61.9 6C63 6.2 63.4 6.4 63.8 6.5C64.2 6.6 64.5 6.7 65.5 6.9L65.3 7.1C65.6 7.2 66 7.4 66.4 7.5C66.8 7.6 67.1 7.8 67.3 8C67.6 8.3 68.1 8.6 68.8 9.1C69.1 9.3 69.5 9.6 70 9.8C70.2 9.9 70.4 10.1 70.6 10.2C70.8 10.3 71 10.5 71.3 10.7C73.1 11.9 75 13.5 76.4 14.9C76.4 13.8 77.5 16.4 78 16C78 16.3 78.4 16.7 77.8 16.4C78.6 17 79 17.6 79.5 18.1C79.9 18.6 80.3 19 81 19.4C81 19.7 80.5 19.3 80.6 19.5C80.7 19.6 81.1 19.9 81.2 20.1C81.2 20.3 80.9 20 80.6 19.8C81.3 20.5 81.7 20.9 82.1 21C82.5 21.1 82.8 21 83 20.9C83.5 21.9 83.8 22.3 84.5 22.7C84.6 23.1 84.8 23.7 84 22.7C84.4 23.3 86.2 26.4 86.6 26.3C86.6 26.6 87.1 27.2 87.2 27.3C87.4 27.7 87.5 27.9 87.7 28.2C87.8 28.4 87.9 28.6 88 28.8C88.2 29.2 88.4 29.6 88.8 30.3L88.7 29.9C89.5 30.2 89.4 31 89.9 32.2H89.8C90 32.9 90.1 33.3 90.2 33.6C90.3 33.9 90.4 34 90.4 34.2C90.5 34.3 90.5 34.5 90.6 34.8C90.7 35.1 90.8 35.5 90.9 36.2L91.2 35.9C91.6 35.9 91.7 36.6 91.8 37.4C91.9 38.2 91.9 39.2 92.3 40V39.4C92.4 39.6 92.5 39.9 92.5 40.2C92.5 40.5 92.4 40.9 92.4 41.2C92.3 41.9 92.1 42.6 92.1 43C92.1 43.2 91.9 42.7 91.8 42.5C91.8 43.1 91.8 43.4 91.9 43.6C91.9 43.8 92 43.8 92.1 43.8C92.3 43.8 92.5 43.7 92.7 44.5C92.5 44.9 92 44.2 92.2 45.3C92.2 45.6 92.4 46.4 92.7 47.4C92.8 47.9 92.9 48.4 93 48.9C93.1 49.4 93.1 49.9 93 50.3C93.2 49.9 93.3 49.6 93.5 50.4C93.5 51 93.4 51.9 93.3 52.7C93.2 53.5 93.1 54.3 93.3 54.9C93.2 55.1 93.2 55.1 93.2 55.1C93.2 55.6 93.2 56.4 93.2 57.1C93.2 57.8 93.2 58.5 93.3 58.8C93 59 92.8 59.5 92.7 60C92.6 60.6 92.5 61.3 92.4 62C92.2 63.4 92 64.7 91.6 64.5L91.2 65.9C91.1 66.4 90.9 66.9 90.8 67.3L90.7 67.2C90.4 68.1 90.2 68.7 90.1 69.2C90 69.7 90 70 89.9 70.4C89.7 70.8 89.7 70.5 89.7 70.4C89.6 70.7 89.4 71 89.3 71.2C89.2 71.5 89.1 71.7 89 71.9C88.8 72.3 88.6 72.6 88.5 73C88.3 73.7 88 74.3 87.7 75.4L87.3 75.5C87.2 75.8 86.6 76.6 85.9 77.7C85.5 78.2 85.1 78.8 84.7 79.4L84.4 79.8C84.3 79.9 84.2 80.1 84.1 80.2C83.9 80.5 83.7 80.8 83.5 81.1C83.5 81.1 83.5 81 83.6 80.8C83.4 81.1 83.2 81.5 82.9 81.8C82.6 82.1 82.4 82.4 82.1 82.8C81.8 83.1 81.5 83.4 81.2 83.7C80.9 84 80.6 84.3 80.3 84.6C80 84.9 79.8 85.2 79.5 85.4C79.2 85.7 79 85.9 78.8 86.1C78.4 86.6 78.1 87 78.1 87.3C77.7 87.8 77.2 88.3 76.7 88.8C78.7 87.1 76.6 89.3 77.5 88.7C76.8 89.5 75.3 90.3 76.3 89.4C76.4 89.4 76.4 89.3 76.5 89.3C76.6 88.7 73.9 91.3 73.7 91C69.6 94.2 65 96.4 60.4 98C60.6 98 60.8 98 61 98C60.5 98.2 59.9 98.4 59.4 98.5C59 98.6 58.8 98.5 59.9 98.1C59.3 98.2 58 98.9 58 98.9C55.7 99.5 58.8 98.4 58.1 98.6L57.4 99H57.6C57.2 99.2 57 99.2 56.7 99.4C56.4 99.5 56.1 99.7 55.3 99.8C54.4 100 54.8 99.8 54.5 99.9C54.5 99.9 54.4 99.9 54 100L53.5 100.1L53 100.2L51.9 100.4H52.8C51.9 100.6 50.8 100.7 51.8 100.7C51.6 100.7 51.4 100.7 51 100.8C50.7 100.8 50.3 100.8 49.9 100.9C49.5 100.9 49 101 48.6 101C48.1 101 47.6 101.1 47.2 101.1C46.7 101.1 46.2 101.2 45.8 101.2C45.3 101.2 44.9 101.2 44.5 101.2C44.1 101.2 43.8 101.2 43.5 101.2C43.2 101.2 43 101.2 42.9 101.2C42.2 101.2 41.6 101.2 40.9 101.2C40.2 101.1 39.5 101.1 38.6 101C38.8 101 39 101.1 38.9 101.1C38.9 101.1 38.8 101.1 38.6 101.1C38.4 101.1 38.2 101.1 37.8 101C38.1 100.9 37.4 100.8 36.6 100.7C36.2 100.6 35.7 100.5 35.3 100.5C34.9 100.4 34.5 100.3 34.2 100.2C34.7 100.3 33.7 100.2 32.8 99.9C31.9 99.7 31.1 99.5 31.8 99.7C31.2 99.6 31.2 99.5 31.2 99.5C31.2 99.5 31.3 99.5 30.9 99.3C28.2 98.6 25 97.4 21.9 95.9C21.8 95.9 22.4 96.2 21.7 95.8L20.1 94.9C19.5 94.6 19.5 94.6 18.5 94C18.6 94.1 18.9 94.2 18.5 94C15.6 92.2 12.8 90.1 10.3 87.7C7.79998 85.3 5.49998 82.6 3.49998 79.8C4.09998 80.6 3.69998 80.1 3.29998 79.5C3.59998 79.9 3.29998 79.5 3.29998 79.6L2.49998 78.4C2.19998 78 1.99998 77.6 1.69998 77.2C1.59998 77 1.19998 76.3 0.799976 75.7C0.399976 75.1 0.0999756 74.4 0.0999756 74.3L0.499976 75.1C0.199976 74.6 0.399976 74.9 0.699976 75.4C0.999976 75.8 1.19998 76.3 1.29998 76.4C1.49998 76.7 1.69998 77 1.89998 77.4C1.99998 77.6 2.19998 78 2.49998 78.4C2.79998 78.8 3.09998 79.3 3.39998 79.7C3.69998 80.1 3.99998 80.6 4.39998 81.1C4.69998 81.5 4.19998 80.8 4.29998 81C4.49998 81.2 4.69998 81.5 4.89998 81.8C5.19998 82.1 5.49998 82.5 5.89998 83L5.79998 82.9C6.09998 83.2 6.29998 83.6 6.59998 83.9C6.89998 84.2 7.09998 84.5 7.29998 84.7C7.79998 85.2 8.19998 85.7 8.69998 86.2C9.19998 86.7 9.59997 87.2 10.2 87.7C10.5 88 10.8 88.2 11.1 88.5C11.4 88.8 11.7 89.1 12.1 89.4L11.9 89.2C12.6 89.8 12.7 89.9 13 90.1C13.8 90.7 11.1 88.5 11.8 89.1C12 89.3 12.4 89.6 12.9 90C13.1 90.2 13.4 90.4 13.7 90.7C14 90.9 14.3 91.1 14.6 91.4C15.8 92.3 17 93.1 17.3 93.3C18.4 94 17 93.1 18.1 93.8L18.4 94L18.7 94.2C19.4 94.7 19.8 94.9 19.8 94.9C19.6 94.8 19.3 94.6 19.1 94.5C19.3 94.7 19.6 94.8 19.9 95C20.2 95.2 20.5 95.3 20.9 95.5C21.5 95.8 22.1 96.1 22.2 96.2C21.8 96 21.5 95.8 21.1 95.6C22.7 96.5 24.5 97.3 26.4 98.1C26.9 98.3 27.3 98.5 27.8 98.6C28.3 98.8 28.7 98.9 29.2 99.1C29.7 99.2 30.1 99.4 30.6 99.5C31 99.6 31.5 99.8 31.9 99.9L31.6 99.8C34.2 100.4 33.7 100.4 36.6 100.9H36.5C37.1 101 37.9 101.1 38.7 101.2C38.3 101.2 38.7 101.2 39 101.3C39.3 101.4 39.6 101.4 39.1 101.4C42 101.6 40.5 101.5 42.5 101.5L42.9 101.6C43.2 101.6 43.4 101.6 43.7 101.6C44 101.6 44.4 101.6 45.1 101.6C43.9 101.7 46 101.7 44.7 101.8C47.8 102 49.3 101.5 50.7 101.6C52.1 101.2 48 101.7 48.8 101.6C48.1 101.6 49.9 101.3 50.9 101.2C51.4 101.2 51.8 101.2 52.4 101.1C53 101.1 53.8 101.1 55 100.8C54.8 100.8 54.7 100.9 54.5 100.9C55.4 100.8 56.3 100.5 57.4 100.3C58 100 58.9 100 59 99.7C58.3 99.9 57.5 100.1 56.8 100.3C57.4 100.1 58 99.9 58.7 99.6C59.4 99.3 60.2 99 61.2 98.8C61.1 98.9 60.5 99.1 60.1 99.3C60.7 99.2 61.2 98.9 61.9 98.7C61.9 98.8 61.7 98.9 61.4 99C61.1 99.1 60.8 99.2 60.4 99.3C60 99.4 59.6 99.6 59.1 99.7C58.7 99.8 58.3 99.9 57.9 100.1C58.6 100.1 60.4 99.2 59.8 99.7C60.2 99.4 60.8 99.2 61.5 99C62.2 98.8 62.9 98.5 63.7 98.1V98.3C63.9 98.2 64.4 97.9 64.9 97.7L64.2 98.2C65.4 97.5 66.7 97.3 67.9 96.7C66.7 97.3 66.5 97.3 66.5 97.2C66.5 97.1 66.7 97 66.1 97.1C66.9 96.7 67.3 96.4 67.7 96.3C68.1 96.1 68.3 96.1 68.6 96C69.2 95.9 69.7 95.7 71.4 94.8C71 95.1 69.6 95.6 70.3 95.2C70.6 95 71 94.9 71.4 94.7C71.7 94.5 72.1 94.4 72.3 94.3C74.4 92.9 71.9 94.3 72.7 93.7C73.1 93.6 73.4 93.4 73.6 93.1C73.8 92.9 74.1 92.6 74.5 92.2L74.6 92.4C75.8 91.6 75.9 91.4 76 91.2C76.1 91 76.1 90.9 77.2 90.1L76.5 91L77.5 90.1L77.4 90.5C77.7 90.2 77.9 90 78.1 89.8C78.3 89.6 78.5 89.4 78.7 89.3C79.1 89 79.5 88.7 80 88.2C79.6 88.3 79.9 87.8 80.8 86.9C81.2 86.6 81.1 86.8 81.1 86.8C81.1 86.8 81.1 86.8 81.2 86.7C81.3 86.6 81.5 86.4 81.8 86.1C81.6 86.5 81.4 86.9 80.7 87.3C80.7 87.4 80.5 87.7 80.5 87.8C80.9 87.5 81.3 87.1 81.7 86.7C82.1 86.3 82.4 85.9 82.6 85.6C82.4 85.8 82.2 86 82.1 86.1C82.6 85.4 83.2 84.7 83.6 83.9C83.9 83.6 83.8 83.9 83.6 84.2C83.9 83.8 84.1 83.4 84.6 82.8C84.6 83.1 84.8 83.2 84.2 84.1C84.7 83.4 85.2 82.7 85.6 82C85.8 81.9 86.6 81.1 86.5 81.4C87.5 80.4 88.2 78.4 89.3 76.9C89.3 76.8 89.4 76.6 89.6 76.3C90 75.5 90.5 74.9 91 74.1C91.2 73.7 91.4 73.3 91.6 72.9C91.8 72.5 92 72 92.1 71.5L92.9 70.6C93.5 69.1 91.8 71.9 92.7 69.3C93.2 67.5 93.3 68.8 93.6 68.2C93.6 68 93.7 67.7 93.7 67.4C93.7 67.1 93.8 66.7 93.9 66.4C94 65.7 94.3 64.8 94.7 64C94.7 64.3 94.6 64.5 94.5 64.8C94.1 65.3 94 65.5 93.9 65.8Z" fill="#282727"/>
<path d="M83.4 56.7C83.4 56.4 83.5 56 83.5 55.6C83.6 55.2 83.7 54.7 83.8 54.2C83.9 53.7 84 53.2 84.2 52.6C84.4 52.1 84.5 51.6 84.7 51.1C84.9 50.6 85.1 50.2 85.3 49.8C85.5 49.4 85.8 49.1 86 48.8C86.2 48.7 86.3 48.5 86.5 48.5C86.7 48.4 86.9 48.4 87.1 48.4C87.3 48.4 87.5 48.4 87.7 48.5C87.9 48.6 88.1 48.7 88.3 48.9H88.4C88.6 48.8 88.7 48.6 88.8 48.4C89 48 89 47.8 89 47.6C89 47.4 89 47.3 88.9 47.1C88.8 47 88.7 46.8 88.6 46.7C88.5 46.6 88.4 46.5 88.2 46.5C88 46.4 87.9 46.4 87.7 46.4C87.2 46.4 86.7 46.6 86.3 46.9C85.9 47.2 85.5 47.7 85.1 48.3C84.7 48.9 84.4 49.6 84.1 50.4C83.8 51.2 83.6 52.1 83.3 53H83.2C83.2 52.6 83.3 52.2 83.3 51.7C83.3 51.3 83.4 50.9 83.4 50.5C83.4 50.1 83.5 49.8 83.5 49.4C83.5 49.1 83.5 48.8 83.6 48.5C83.6 48.2 83.6 48 83.6 47.9C83.6 47.7 83.6 47.6 83.6 47.6C83.6 47.2 83.5 47 83.4 46.8C83.3 46.6 83 46.5 82.7 46.5C82.5 46.5 82.2 46.6 81.7 46.7C81.2 46.8 80.6 47 79.8 47.3L79.9 47.8C80.1 47.8 80.2 47.7 80.3 47.7C80.4 47.7 80.5 47.6 80.6 47.6C80.7 47.6 80.8 47.6 80.9 47.6C81 47.6 81.1 47.6 81.1 47.6C81.3 47.6 81.4 47.6 81.5 47.7C81.6 47.7 81.7 47.8 81.7 47.9C81.7 48 81.8 48.1 81.8 48.2C81.8 48.3 81.8 48.5 81.8 48.7C81.8 48.9 81.8 49.2 81.8 49.6C81.8 50 81.8 50.4 81.8 50.8C81.8 51.3 81.8 51.8 81.7 52.3C81.7 52.8 81.7 53.4 81.6 53.9C81.5 54.4 82 54.9 82 55.4C82 55.9 81.9 56.4 81.9 56.9H82L83.4 56.7ZM72.3 53.4C72.4 53.2 72.6 52.9 72.7 52.8C72.9 52.6 73.1 52.5 73.4 52.3C73.7 52.2 73.9 52.1 74.3 52C74.6 51.9 74.9 51.9 75.3 51.8C75.6 51.8 76 51.7 76.3 51.7C76.3 52 76.2 52.4 76.1 52.7C76 53 75.9 53.3 75.7 53.6C75.5 53.9 75.4 54.1 75.2 54.4C75 54.6 74.8 54.8 74.6 55C74.4 55.2 74.2 55.3 73.9 55.4C73.7 55.5 73.5 55.5 73.2 55.5C73 55.5 72.9 55.5 72.7 55.4C72.6 55.3 72.5 55.2 72.4 55.1C72.3 55 72.2 54.8 72.2 54.7C72.2 54.5 72.1 54.4 72.1 54.2C72.2 54 72.2 53.7 72.3 53.4ZM76.5 50.4C76.5 50.7 76.5 51 76.4 51.3C75.9 51.3 75.4 51.3 74.9 51.4C74.4 51.5 73.9 51.6 73.5 51.7C73.1 51.8 72.7 52 72.3 52.2C71.9 52.4 71.6 52.6 71.3 52.9C71 53.2 70.8 53.5 70.7 53.8C70.5 54.1 70.5 54.5 70.5 54.9C70.5 55.2 70.6 55.5 70.7 55.8C70.8 56.1 71 56.3 71.1 56.5C71.3 56.7 71.5 56.9 71.8 57C72 57 72.3 57 72.6 57C73 57 73.4 56.9 73.7 56.7C74.1 56.5 74.4 56.3 74.7 56C75 55.7 75.3 55.3 75.6 55C75.9 54.6 76.1 54.2 76.3 53.8C76.3 53.9 76.3 54.1 76.3 54.2C76.3 54.3 76.3 54.4 76.3 54.6C76.3 55 76.4 55.4 76.5 55.7C76.6 56 76.7 56.3 76.9 56.5C77.1 56.7 77.3 56.9 77.6 57C77.9 57.1 78.1 57.2 78.4 57.2C78.8 57.2 79.2 57.1 79.6 57C80 56.8 80.3 56.6 80.6 56.3L80.4 56C80 56.3 79.6 56.4 79.2 56.4C78.8 56.4 78.5 56.2 78.2 55.9C77.9 55.6 77.8 55.1 77.8 54.4C77.8 54 77.8 53.5 77.8 53.1C77.8 52.7 77.9 52.2 77.9 51.8C77.9 51.4 78 51 78 50.6C78 50.2 78 49.9 78 49.6C78 49.2 77.9 48.7 77.8 48.4C77.7 48 77.5 47.7 77.3 47.5C77.1 47.3 76.8 47.1 76.4 46.9C76 46.8 75.6 46.7 75.1 46.7C74.8 46.7 74.5 46.7 74.2 46.8C73.9 46.9 73.6 46.9 73.3 47.1C73 47.2 72.7 47.3 72.4 47.5C72.1 47.7 71.9 47.8 71.6 48C71.4 48.2 71.2 48.4 71.1 48.7C71 48.9 70.9 49.2 70.9 49.5C70.9 49.7 70.9 49.8 71 50C71.1 50.1 71.1 50.3 71.2 50.3C71.3 50.4 71.4 50.5 71.6 50.5C71.7 50.5 71.9 50.6 72 50.6C72.3 50.6 72.5 50.5 72.8 50.4V50.3C72.6 50.1 72.5 49.9 72.4 49.6C72.3 49.4 72.3 49.1 72.3 48.9C72.3 48.7 72.3 48.5 72.4 48.4C72.5 48.2 72.6 48.1 72.7 48C72.8 47.9 73 47.8 73.3 47.7C73.5 47.6 73.8 47.6 74.1 47.6C74.3 47.6 74.6 47.6 74.8 47.7C75 47.8 75.3 47.9 75.5 48.1C75.7 48.3 75.9 48.5 76 48.8C76.1 49.1 76.2 49.4 76.2 49.8C76.5 49.8 76.5 50.1 76.5 50.4ZM67.2 53.2C67 53.9 66.8 54.4 66.5 54.9C66.2 55.4 65.8 55.7 65.4 55.9C65 56.1 64.5 56.3 64.1 56.3C63.8 56.3 63.5 56.3 63.3 56.2C63 56.1 62.8 56 62.6 55.8C62.4 55.6 62.2 55.4 62.1 55.2C62 55 61.8 54.7 61.8 54.4C61.8 54.2 61.8 54 61.9 53.8C62 53.5 62.1 53.3 62.2 52.9C62.3 52.6 62.5 52.2 62.6 51.9C62.8 51.5 63 51.2 63.2 50.8C63.4 50.5 63.6 50.1 63.9 49.8C64.1 49.5 64.4 49.2 64.6 49C64.9 48.8 65.1 48.6 65.4 48.4C65.7 48.3 66 48.2 66.2 48.2C66.4 48.2 66.7 48.3 66.8 48.5C67 48.7 67.1 48.9 67.2 49.2C67.3 49.5 67.4 49.8 67.4 50.1C67.4 50.4 67.5 50.8 67.5 51.1C67.5 51.8 67.4 52.6 67.2 53.2ZM62 37.6C61.9 37.6 61.8 37.6 61.6 37.6C61.5 37.6 61.4 37.7 61.3 37.7C61.2 37.7 61.1 37.8 61.1 37.9C61 38 61 38.1 61 38.2C61 38.7 60.9 39.3 60.9 40C60.9 40.7 60.8 41.4 60.8 42.2C60.8 43 60.7 43.7 60.7 44.5C60.7 45.3 60.6 46.1 60.6 46.9C60.6 47.7 60.5 48.4 60.5 49.1C60.5 49.8 60.4 50.4 60.4 51C60.3 52.3 60.2 53.4 60.1 54.4C60 55.4 59.8 56.3 59.5 57L59.9 57.1C60 56.9 60.2 56.7 60.4 56.5C60.6 56.2 60.7 55.9 60.9 55.5C61.1 55.8 61.3 56 61.6 56.3C61.8 56.5 62.1 56.7 62.4 56.8C62.7 56.9 63 57 63.3 57.1C63.6 57.2 63.9 57.2 64.2 57.2C64.6 57.2 65.1 57.1 65.5 57C65.9 56.9 66.3 56.7 66.7 56.4C67.1 56.1 67.5 55.8 67.8 55.4C68.1 55 68.4 54.6 68.7 54.1C68.9 53.6 69.1 53 69.3 52.4C69.4 51.8 69.5 51.1 69.5 50.4C69.5 50.1 69.5 49.9 69.5 49.6C69.5 49.3 69.4 49 69.3 48.7C69.2 48.4 69.1 48.1 69 47.9C68.9 47.6 68.7 47.4 68.5 47.2C68.3 47 68.1 46.8 67.9 46.7C67.7 46.6 67.4 46.5 67 46.5C66.6 46.5 66.2 46.6 65.8 46.9C65.4 47.1 64.9 47.5 64.5 48C64.1 48.5 63.6 49 63.2 49.7C62.8 50.4 62.4 51.2 62 52.1H61.9C61.9 51.4 62 50.7 62 49.9C62 49.1 62.1 48.3 62.2 47.5C62.3 46.7 62.3 45.9 62.4 45.1C62.5 44.3 62.6 43.5 62.6 42.6C62.7 41.8 62.8 41 62.9 40.2C63 39.4 63.1 38.6 63.2 37.9C62.6 37.6 62.3 37.6 62 37.6ZM53.5 56.7C53.5 56.4 53.6 56 53.6 55.6C53.7 55.2 53.8 54.7 53.9 54.2C54 53.7 54.1 53.2 54.3 52.6C54.5 52 54.6 51.6 54.8 51.1C55 50.6 55.2 50.2 55.4 49.8C55.6 49.4 55.9 49.1 56.1 48.8C56.3 48.7 56.4 48.5 56.6 48.5C56.8 48.4 57 48.4 57.2 48.4C57.4 48.4 57.6 48.4 57.8 48.5C58 48.6 58.2 48.7 58.4 48.9H58.5C58.7 48.8 58.8 48.6 58.9 48.4C59 48.2 59 48 59 47.8C59 47.6 59 47.5 58.9 47.3C58.8 47.2 58.7 47 58.6 46.9C58.5 46.8 58.4 46.7 58.2 46.7C58 46.6 57.9 46.6 57.7 46.6C57.2 46.6 56.7 46.8 56.3 47.1C55.9 47.4 55.5 47.9 55.1 48.5C54.7 49.1 54.4 49.8 54.1 50.6C53.8 51.4 53.6 52.3 53.3 53.2H53.2C53.2 52.8 53.3 52.4 53.3 51.9C53.3 51.5 53.4 51.1 53.4 50.7C53.4 50.3 53.5 50 53.5 49.6C53.5 49.3 53.5 49 53.6 48.7C53.6 48.4 53.6 48.2 53.6 48.1C53.6 47.9 53.6 47.8 53.6 47.8C53.6 47.4 53.5 47.2 53.4 47C53.3 46.8 53 46.7 52.7 46.7C52.5 46.7 52.2 46.8 51.7 46.9C51.2 47 50.6 47.2 49.8 47.5L49.9 48C50.1 48 50.2 47.9 50.3 47.9C50.4 47.9 50.5 47.8 50.6 47.8C50.7 47.8 50.8 47.8 50.9 47.8C51 47.8 51.1 47.8 51.1 47.8C51.3 47.8 51.4 47.8 51.5 47.9C51.6 47.9 51.7 48 51.7 48.1C51.7 48.2 51.8 48.3 51.8 48.4C51.8 48.5 51.8 48.7 51.8 48.9C51.8 49.1 51.8 49.4 51.8 49.8C51.8 50.2 51.8 50.6 51.8 51C51.8 51.5 51.8 52 51.7 52.5C51.7 53 51.7 53.6 51.6 54.1C51.5 54.6 52 54.9 52 55.4C52 55.9 51.9 56.4 51.9 56.9H52L53.5 56.7ZM41.3 52.9C41.3 52.2 41.4 51.6 41.4 51C41.4 50.4 41.5 49.9 41.5 49.3C41.5 48.8 41.6 48.2 41.6 47.7C41.6 47.2 41.7 46.7 41.7 46.1C41.7 45.6 41.8 45 41.8 44.4C41.9 43.8 41.9 43.2 42 42.5C42.1 41.8 42.1 41.1 42.2 40.3C42.3 39.5 42.4 38.6 42.5 37.7C42.2 37.6 41.9 37.5 41.6 37.5C41.5 37.5 41.3 37.5 41.2 37.5C41.1 37.5 41 37.6 40.9 37.6C40.8 37.6 40.7 37.7 40.7 37.8C40.6 37.9 40.6 38 40.6 38.1C40.6 38.8 40.5 39.6 40.5 40.4C40.5 41.2 40.4 42 40.4 42.9C40.4 43.7 40.3 44.6 40.3 45.4C40.3 46.3 40.2 47.1 40.2 48C40.2 48.8 40.1 49.7 40.1 50.5C40.1 51.3 40 52.1 40 52.8C40 53.6 39.9 54.3 39.9 54.9C39.9 55.6 39.8 56.2 39.8 56.7H39.9L41.4 56.5C41.4 55.8 41.5 55.1 41.7 54.4C41.8 53.7 42 53 42.2 52.4C42.4 51.8 42.7 51.2 42.9 50.6C43.2 50.1 43.5 49.6 43.8 49.2C44.1 48.8 44.4 48.5 44.7 48.3C45 48.1 45.3 48 45.6 48C45.9 48 46.2 48.1 46.4 48.4C46.6 48.7 46.7 49.1 46.7 49.6C46.7 49.8 46.7 50.1 46.7 50.5C46.7 50.9 46.6 51.2 46.6 51.7C46.6 52.1 46.5 52.6 46.5 53C46.5 53.5 46.5 53.9 46.5 54.4C46.5 54.8 46.5 55.1 46.5 55.4C46.5 55.7 46.6 56 46.6 56.2C46.7 56.4 46.8 56.6 46.9 56.8C47 56.9 47.2 57 47.5 57C47.7 57 48 57 48.2 56.9C48.5 56.8 48.8 56.7 49 56.6C49.3 56.5 49.6 56.4 49.8 56.2C50.1 56.1 50.3 55.9 50.4 55.8L50.3 55.4C50 55.5 49.8 55.6 49.5 55.7C49.2 55.8 49 55.8 48.7 55.8C48.5 55.8 48.4 55.8 48.3 55.7C48.2 55.7 48.1 55.6 48 55.4C47.9 55.3 47.9 55.1 47.8 54.9C47.8 54.7 47.8 54.4 47.8 54C47.8 53.8 47.8 53.5 47.8 53.3C47.8 53 47.8 52.7 47.9 52.4C47.9 52.1 47.9 51.8 48 51.4C48 51.1 48.1 50.8 48.1 50.5C48.1 50.2 48.1 49.9 48.2 49.7C48.2 49.5 48.2 49.3 48.2 49.1C48.2 48.6 48.1 48.2 48 47.9C47.9 47.6 47.7 47.3 47.5 47.1C47.3 46.9 47.1 46.7 46.8 46.6C46.6 46.5 46.3 46.4 46 46.4C45.6 46.4 45.2 46.5 44.8 46.7C44.4 46.9 44 47.3 43.5 47.8C43.1 48.3 42.7 49 42.3 49.8C42.1 50.8 41.7 51.8 41.3 52.9ZM30.4 53.4C30.5 53.2 30.7 52.9 30.8 52.8C31 52.6 31.2 52.5 31.5 52.3C31.8 52.2 32 52.1 32.4 52C32.7 51.9 33 51.9 33.4 51.8C33.7 51.8 34.1 51.7 34.4 51.7C34.4 52 34.3 52.4 34.2 52.7C34.1 53 34 53.3 33.8 53.6C33.6 53.9 33.5 54.1 33.3 54.4C33.1 54.6 32.9 54.8 32.7 55C32.5 55.2 32.3 55.3 32 55.4C31.8 55.5 31.6 55.5 31.3 55.5C31.1 55.5 31 55.5 30.8 55.4C30.7 55.3 30.6 55.2 30.5 55.1C30.4 55 30.4 54.8 30.3 54.7C30.3 54.5 30.2 54.4 30.2 54.2C30.3 54 30.3 53.7 30.4 53.4ZM34.5 50.4C34.5 50.7 34.5 51 34.4 51.3C33.9 51.3 33.4 51.3 32.9 51.4C32.4 51.5 31.9 51.6 31.5 51.7C31.1 51.8 30.7 52 30.3 52.2C29.9 52.4 29.6 52.6 29.3 52.9C29 53.2 28.8 53.5 28.7 53.8C28.5 54.1 28.5 54.5 28.5 54.9C28.5 55.2 28.6 55.5 28.7 55.8C28.8 56.1 29 56.3 29.1 56.5C29.3 56.7 29.5 56.9 29.8 57C30.1 57.1 30.4 57.2 30.7 57.2C31.1 57.2 31.5 57.1 31.8 56.9C32.2 56.7 32.5 56.5 32.8 56.2C33.1 55.9 33.4 55.5 33.7 55.2C34 54.8 34.2 54.4 34.4 54C34.4 54.1 34.4 54.3 34.4 54.4C34.4 54.5 34.4 54.6 34.4 54.8C34.4 55.2 34.5 55.6 34.6 55.9C34.7 56.2 34.8 56.5 35 56.7C35.2 56.9 35.4 57.1 35.7 57.2C36 57.3 36.2 57.4 36.5 57.4C36.9 57.4 37.3 57.3 37.7 57.2C38.1 57 38.4 56.8 38.7 56.5L38.5 56.2C38.1 56.5 37.7 56.6 37.3 56.6C36.9 56.6 36.6 56.4 36.3 56.1C36 55.8 35.9 55.3 35.9 54.6C35.9 54.2 35.9 53.7 35.9 53.3C35.9 52.9 36 52.4 36 52C36 51.6 36.1 51.2 36.1 50.8C36.1 50.4 36.1 50.1 36.1 49.8C36.1 49.4 36.1 48.9 35.9 48.6C35.8 48.2 35.6 47.9 35.4 47.7C35.2 47.5 34.9 47.3 34.5 47.1C34.2 47 33.7 46.9 33.2 46.9C32.9 46.9 32.6 46.9 32.3 47C32 47.1 31.7 47.1 31.4 47.3C31.1 47.4 30.8 47.5 30.5 47.7C30.2 47.9 30 48 29.7 48.2C29.5 48.4 29.3 48.6 29.2 48.9C29.1 49.1 29 49.4 29 49.7C29 49.9 29 50 29.1 50.2C29.2 50.4 29.2 50.5 29.3 50.5C29.4 50.6 29.5 50.7 29.7 50.7C29.8 50.7 30 50.8 30.1 50.8C30.4 50.8 30.6 50.7 30.9 50.6V50.5C30.7 50.3 30.6 50.1 30.5 49.8C30.4 49.6 30.4 49.3 30.4 49.1C30.4 48.9 30.4 48.7 30.5 48.6C30.6 48.4 30.7 48.3 30.8 48.2C30.9 48.1 31.1 48 31.4 47.9C31.6 47.8 31.9 47.8 32.2 47.8C32.4 47.8 32.7 47.8 32.9 47.9C33.1 48 33.4 48.1 33.6 48.3C33.8 48.5 34 48.7 34.1 49C34.2 49.3 34.3 49.6 34.3 50C34.6 49.8 34.6 50.1 34.5 50.4ZM19.9 46.1C19.9 47.2 19.9 48.3 19.8 49.5C19.8 50.6 19.7 51.8 19.7 53C19.7 54.2 19.6 55.5 19.5 56.8H19.6L21.3 56.6C21.3 56 21.3 55.3 21.4 54.6C21.4 53.9 21.4 53.3 21.5 52.7C21.5 52.1 21.5 51.4 21.6 50.8C21.7 50.2 21.6 49.6 21.7 49C22.4 49.1 23.1 49.1 23.7 49.2C24.3 49.3 24.9 49.3 25.4 49.3C25.7 49.3 25.9 49.3 26.1 49.3C26.3 49.3 26.5 49.2 26.7 49.2C26.9 49.1 27 49.1 27.1 49C27.2 48.9 27.2 48.8 27.2 48.7C27.2 48.5 27.2 48.4 27.1 48.1C26.8 48.2 26.4 48.2 26 48.2C25.6 48.2 25.2 48.2 24.7 48.2C24.3 48.2 23.9 48.2 23.4 48.2C22.9 48.2 22.4 48.2 21.8 48.1C21.8 46.7 21.9 45.5 21.9 44.4C21.9 43.3 22 42.3 22 41.5C22.1 41.5 22.3 41.5 22.4 41.5C22.5 41.5 22.6 41.5 22.7 41.5C22.8 41.5 22.9 41.5 23 41.5H24.4C24.6 41.5 24.8 41.5 25 41.5C25.2 41.5 25.4 41.5 25.7 41.5C26 41.5 26.3 41.5 26.5 41.6C26.7 41.7 26.9 41.7 27 41.9C27.1 42 27.2 42.2 27.3 42.5C27.3 42.7 27.4 43.1 27.4 43.5C27.4 43.6 27.4 43.8 27.4 43.9C27.4 44.1 27.4 44.2 27.4 44.4H28.1C28.1 44.1 28.2 43.8 28.2 43.4C28.2 43 28.3 42.7 28.3 42.4C28.3 42.1 28.3 41.8 28.4 41.6C28.4 41.4 28.4 41.2 28.4 41.1C28.4 40.9 28.3 40.7 28.2 40.6C28.1 40.5 27.9 40.4 27.7 40.4C27.6 40.4 27.4 40.4 27.1 40.4C26.8 40.4 26.3 40.4 25.8 40.4C25.3 40.4 24.7 40.4 24 40.4C23.3 40.4 22.6 40.4 21.8 40.4C21.5 40.4 21.2 40.4 20.9 40.4C20.6 40.4 20.3 40.4 19.9 40.5C19.6 40.5 19.2 40.6 18.8 40.6C18.4 40.7 18 40.7 17.5 40.8L17.6 41.5C17.8 41.5 18.1 41.5 18.2 41.4C18.4 41.4 18.6 41.4 18.7 41.4C18.9 41.4 19.1 41.4 19.3 41.5C19.4 41.5 19.6 41.6 19.6 41.7C19.7 41.8 19.7 41.9 19.8 42C19.8 42.1 19.8 42.3 19.8 42.5C19.9 43.9 19.9 45 19.9 46.1ZM12.5 56.7C12.5 56.4 12.6 56 12.6 55.6C12.7 55.2 12.8 54.7 12.9 54.2C13 53.7 13.1 53.2 13.3 52.6C13.5 52.1 13.6 51.6 13.8 51.1C14 50.6 14.2 50.2 14.4 49.8C14.6 49.4 14.9 49.1 15.1 48.8C15.3 48.7 15.4 48.5 15.6 48.5C15.8 48.4 16 48.4 16.2 48.4C16.4 48.4 16.6 48.4 16.8 48.5C17 48.6 17.2 48.7 17.4 48.9H17.5C17.7 48.8 17.8 48.6 17.9 48.4C18 48.2 18 48 18 47.8C18 47.6 18 47.5 17.9 47.3C17.8 47.2 17.7 47 17.6 46.9C17.5 46.8 17.4 46.7 17.2 46.7C17 46.6 16.9 46.6 16.7 46.6C16.2 46.6 15.7 46.8 15.3 47.1C14.9 47.4 14.5 47.9 14.1 48.5C13.7 49.1 13.4 49.8 13.1 50.6C12.8 51.4 12.6 52.3 12.3 53.2H12.2C12.2 52.8 12.3 52.4 12.3 51.9C12.3 51.5 12.4 51.1 12.4 50.7C12.4 50.3 12.5 50 12.5 49.6C12.5 49.3 12.5 49 12.6 48.7C12.6 48.4 12.6 48.2 12.6 48.1C12.6 47.9 12.6 47.8 12.6 47.8C12.6 47.4 12.5 47.2 12.4 47C12.3 46.8 12 46.7 11.7 46.7C11.5 46.7 11.2 46.8 10.7 46.9C10.2 47 9.6 47.2 8.8 47.5L8.9 48C9.1 48 9.2 47.9 9.3 47.9C9.4 47.9 9.5 47.8 9.6 47.8C9.7 47.8 9.8 47.8 9.9 47.8C10 47.8 10.1 47.8 10.1 47.8C10.3 47.8 10.4 47.8 10.5 47.9C10.6 47.9 10.7 48 10.7 48.1C10.7 48.2 10.8 48.3 10.8 48.4C10.8 48.5 10.8 48.7 10.8 48.9C10.8 49.1 10.8 49.4 10.8 49.8C10.8 50.2 10.8 50.6 10.8 51C10.8 51.5 10.8 52 10.7 52.5C10.7 53 10.7 53.6 10.6 54.1C10.5 54.6 10.5 55.2 10.5 55.7C10.5 56.2 10.4 56.7 10.4 57.2H10.5L12.5 56.7ZM6.3 49.7C6.1 50 5.8 50.2 5.5 50.3C5.1 50.5 4.7 50.6 4.2 50.7C3.6 50.9 3 51 2.3 51C2.3 50.7 2.4 50.4 2.4 50.1C2.5 49.8 2.6 49.5 2.7 49.2C2.8 48.9 2.9 48.7 3.1 48.4C3.3 48.2 3.4 47.9 3.6 47.8C3.8 47.6 4 47.5 4.3 47.4C4.5 47.3 4.8 47.2 5.1 47.2C5.3 47.2 5.5 47.2 5.7 47.3C5.9 47.4 6 47.5 6.2 47.6C6.3 47.7 6.4 47.9 6.5 48.1C6.6 48.3 6.6 48.5 6.6 48.7C6.5 49.2 6.4 49.5 6.3 49.7ZM6.5 55.5C6.1 55.7 5.6 55.8 5.2 55.8C4.8 55.8 4.4 55.7 4 55.5C3.6 55.3 3.3 55 3.1 54.7C2.9 54.4 2.6 53.9 2.5 53.4C2.3 52.9 2.3 52.4 2.3 51.8V51.7C3.2 51.6 4 51.5 4.7 51.4C5.4 51.2 6 51 6.6 50.7C7.2 50.4 7.6 50.1 7.9 49.8C8.2 49.4 8.4 49 8.4 48.5C8.4 48.2 8.3 47.9 8.2 47.6C8 47.4 7.8 47.2 7.6 47C7.4 46.8 7.1 46.7 6.8 46.6C6.5 46.5 6.2 46.5 5.8 46.5C5.3 46.5 4.8 46.6 4.3 46.7C3.8 46.9 3.4 47.1 3 47.4C2.6 47.7 2.3 48 2 48.4C1.7 48.8 1.4 49.2 1.2 49.7C1 50.2 0.8 50.6 0.7 51.1C0.6 51.6 0.5 52.1 0.5 52.6C0.5 53.2 0.6 53.8 0.8 54.3C1 54.8 1.3 55.3 1.6 55.7C1.9 56.1 2.3 56.4 2.8 56.6C3.3 56.8 3.8 56.9 4.3 56.9C4.6 56.9 5 56.9 5.3 56.8C5.6 56.7 6 56.6 6.3 56.4C6.6 56.2 6.9 56 7.2 55.7C7.5 55.4 7.8 55.1 8 54.7C8 54.7 8 54.7 8 54.6V54.5L7.9 54.4L7.8 54.3C7.8 54.3 7.7 54.3 7.7 54.2C7.4 55 7 55.3 6.5 55.5Z" fill="#282727"/>
</g>
<defs>
<clipPath id="clip0">
<rect width="96.5" height="101.7" fill="white"/>
</clipPath>
</defs>
</svg>
