<svg width="165" height="25" viewBox="0 0 165 25" fill="none" xmlns="http://www.w3.org/2000/svg">
<path d="M18.6162 17.1305H6.09932C6.36451 18.0275 6.84185 18.7134 7.58438 19.1883C8.3269 19.6632 9.22854 19.8743 10.3423 19.8743C11.1909 19.8743 11.8804 19.7687 12.4638 19.5049C13.0473 19.2939 13.6837 18.8717 14.3202 18.3441L17.5024 21.6155C15.8052 23.4623 13.3655 24.412 10.1302 24.412C8.11475 24.412 6.36451 24.0427 4.82642 23.2512C3.28833 22.5125 2.1215 21.4572 1.2729 20.0853C0.424301 18.819 0 17.2888 0 15.6003C0 13.9119 0.424301 12.3817 1.21986 11.0626C2.01543 9.74346 3.18226 8.68817 4.61427 7.8967C6.04629 7.15799 7.69045 6.73587 9.49373 6.73587C11.1909 6.73587 12.7821 7.10523 14.161 7.79117C15.54 8.47711 16.6538 9.5324 17.5024 10.8515C18.298 12.1706 18.7223 13.7536 18.7223 15.6003C18.7223 15.7059 18.6692 16.1807 18.6162 17.1305ZM7.16008 11.854C6.52363 12.3817 6.15236 13.1204 5.94021 14.0174H12.9942C12.8351 13.1204 12.4108 12.3817 11.7743 11.854C11.1379 11.3264 10.3423 11.0626 9.44069 11.0626C8.59209 11.0626 7.79653 11.3264 7.16008 11.854ZM29.648 7.36905C30.6557 6.9997 31.7695 6.78864 33.0424 6.78864V12.2234C32.5121 12.1706 32.0347 12.1179 31.6635 12.1179C30.3905 12.1179 29.3298 12.4872 28.6403 13.1732C27.9508 13.8591 27.5796 14.9144 27.5796 16.339V24.201H21.5333V7.05246H27.3144V9.11028C27.8978 8.31881 28.6933 7.7384 29.648 7.36905ZM42.1119 6.89417V11.7485H51.9238V16.6029H42.1119V24.201H35.8004V2.03982H53.2498V6.89417H42.1119ZM69.4793 8.68817C70.9643 10.0073 71.7599 11.9596 71.7599 14.6506V24.201H66.1379V21.9849C65.2893 23.6733 63.5921 24.4648 61.0463 24.4648C59.7203 24.4648 58.5535 24.2537 57.5988 23.7789C56.6442 23.304 55.9016 22.6708 55.3713 21.8793C54.8939 21.0879 54.6287 20.1909 54.6287 19.1883C54.6287 17.5526 55.2652 16.2863 56.4851 15.3893C57.758 14.4923 59.6673 14.0174 62.2662 14.0174H65.7136C65.6075 12.2234 64.3877 11.2736 62.054 11.2736C61.2054 11.2736 60.4098 11.4319 59.5612 11.6958C58.7126 11.9596 57.9701 12.3289 57.3867 12.8038L55.3713 8.74093C56.3259 8.10775 57.4928 7.63287 58.8717 7.26352C60.2507 6.89417 61.6297 6.73587 63.0087 6.73587C65.7666 6.78864 67.9412 7.42181 69.4793 8.68817ZM64.5468 20.1909C65.0771 19.8743 65.4484 19.3466 65.7136 18.7134V17.236H63.1148C61.3645 17.236 60.4629 17.8165 60.4629 18.9773C60.4629 19.5049 60.675 19.927 61.0463 20.2436C61.4706 20.5602 62.001 20.7185 62.6904 20.7185C63.3799 20.7185 64.0164 20.5075 64.5468 20.1909ZM91.9672 8.68817C93.2932 9.95452 93.9296 11.854 93.9296 14.4395V24.2537H87.8833V15.3893C87.8833 13.0676 86.9286 11.854 85.0723 11.854C84.0116 11.854 83.216 12.1706 82.5796 12.8566C81.9431 13.5425 81.6249 14.545 81.6249 15.9169V24.201H75.5786V0.720703H81.6249V8.6354C82.2613 8.00223 83.0569 7.58011 83.9585 7.26352C84.8602 6.94693 85.8148 6.78864 86.8226 6.78864C88.9441 6.78864 90.6413 7.42181 91.9672 8.68817ZM105.863 7.36905C106.871 6.9997 107.985 6.78864 109.257 6.78864V12.2234C108.727 12.1706 108.25 12.1179 107.878 12.1179C106.606 12.1179 105.545 12.4872 104.855 13.1732C104.166 13.8591 103.742 14.9144 103.742 16.3918V24.2537H97.6953V7.05246H103.476V9.11028C104.06 8.31881 104.855 7.7384 105.863 7.36905ZM126.866 7.84393C128.139 8.58264 129.147 9.58517 129.942 10.957C130.685 12.2762 131.056 13.8591 131.056 15.6531C131.056 17.4471 130.685 18.9773 129.942 20.3492C129.2 21.721 128.192 22.7236 126.866 23.4623C125.593 24.201 124.161 24.5703 122.57 24.5703C120.289 24.5703 118.592 23.8844 117.478 22.5653V24.2537H111.697V0.720703H117.743V8.52987C118.91 7.36905 120.501 6.73587 122.57 6.73587C124.161 6.78864 125.593 7.10523 126.866 7.84393ZM123.896 18.6079C124.585 17.8692 124.904 16.8667 124.904 15.6003C124.904 14.334 124.585 13.3315 123.896 12.6455C123.206 11.9068 122.358 11.5902 121.297 11.5902C120.236 11.5902 119.388 11.9596 118.698 12.6455C118.009 13.3842 117.69 14.334 117.69 15.6003C117.69 16.8667 118.009 17.8692 118.698 18.6079C119.388 19.3466 120.236 19.716 121.297 19.716C122.358 19.716 123.259 19.3466 123.896 18.6079ZM147.392 8.68817C148.877 10.0073 149.672 11.9596 149.672 14.6506V24.201H144.05V21.9849C143.202 23.6733 141.504 24.4648 138.959 24.4648C137.633 24.4648 136.466 24.2537 135.511 23.7789C134.556 23.304 133.814 22.6708 133.284 21.8793C132.806 21.0879 132.541 20.1909 132.541 19.1883C132.541 17.5526 133.177 16.2863 134.397 15.3893C135.67 14.4923 137.58 14.0174 140.178 14.0174H143.626C143.52 12.2234 142.3 11.2736 139.966 11.2736C139.118 11.2736 138.322 11.4319 137.473 11.6958C136.625 11.9596 135.882 12.3289 135.299 12.8038L133.284 8.74093C134.238 8.10775 135.405 7.63287 136.784 7.26352C138.163 6.89417 139.542 6.73587 140.921 6.73587C143.679 6.78864 145.853 7.42181 147.392 8.68817ZM142.459 20.1909C142.989 19.8743 143.361 19.3466 143.626 18.7134V17.236H141.027C139.277 17.236 138.375 17.8165 138.375 18.9773C138.375 19.5049 138.587 19.927 138.959 20.2436C139.383 20.5602 139.913 20.7185 140.603 20.7185C141.292 20.7185 141.929 20.5075 142.459 20.1909ZM161.606 7.36905C162.613 6.9997 163.727 6.78864 165 6.78864V12.2234C164.47 12.1706 163.992 12.1179 163.621 12.1179C162.348 12.1179 161.287 12.4872 160.598 13.1732C159.908 13.8591 159.484 14.9144 159.484 16.3918V24.2537H153.438V7.05246H159.219V9.11028C159.802 8.31881 160.651 7.7384 161.606 7.36905Z" fill="url(#paint0_linear)"/>
<defs>
<linearGradient id="paint0_linear" x1="0" y1="12.6086" x2="165" y2="12.6086" gradientUnits="userSpaceOnUse">
<stop stop-color="#93D981"/>
<stop offset="1" stop-color="#6EB45C"/>
</linearGradient>
</defs>
</svg>
