<svg width="60" height="61" viewBox="0 0 60 61" fill="none" xmlns="http://www.w3.org/2000/svg">
<g clip-path="url(#clip0)">
<path d="M14.7 57.2442C12.1 59.8442 8 60.3442 4.8 58.3442C1.6 56.3442 0.300001 52.4442 1.5 48.9442C2.7 45.4442 6.2 43.2442 9.9 43.6442L43.3 10.2442C43 7.84422 43.8 5.54422 45.5 3.84422C47.8 1.64422 51.2 0.944217 54.1 2.24422L49.9 6.44422C48.8 7.64422 48.8 9.44422 50 10.6442C51.1 11.7442 53 11.8442 54.2 10.7442L58.4 6.54422C59.7 9.44422 59.1 12.9442 56.8 15.1442C55.1 16.8442 52.7 17.6442 50.4 17.3442L17 50.6442C17.2 53.0442 16.4 55.5442 14.7 57.2442Z" stroke="white" stroke-width="2" stroke-linecap="round" stroke-linejoin="round"/>
<path d="M9 54.5442C10.6569 54.5442 12 53.201 12 51.5442C12 49.8873 10.6569 48.5442 9 48.5442C7.34315 48.5442 6 49.8873 6 51.5442C6 53.201 7.34315 54.5442 9 54.5442Z" stroke="white" stroke-width="2" stroke-linecap="round" stroke-linejoin="round"/>
<path d="M41 19.5442L19 41.5442" stroke="white" stroke-width="2" stroke-linecap="round" stroke-linejoin="round"/>
<path d="M33 42.0442L41.5 33.5442L57.2 49.2442C59.5 51.5442 59.5 55.3442 57.2 57.7442C54.9 60.0442 51.1 60.0442 48.7 57.7442L33 42.0442Z" stroke="white" stroke-width="2" stroke-linecap="round" stroke-linejoin="round"/>
<path d="M12.6 9.04419L9.4 5.84419C9.2 5.64419 9 5.54419 8.7 5.54419C8.5 5.54419 8.2 5.64419 8.1 5.84419L5.3 8.54419C5.1 8.74419 5 9.04419 5 9.24419C5 9.54419 5.1 9.74419 5.3 9.94419L8.5 13.1442" stroke="white" stroke-width="2" stroke-linecap="round" stroke-linejoin="round"/>
<path d="M24.4 29.1441L16.5 21.2441" stroke="white" stroke-width="2" stroke-linecap="round" stroke-linejoin="round"/>
<path d="M28.6 24.9442L20.7 17.0442" stroke="white" stroke-width="2" stroke-linecap="round" stroke-linejoin="round"/>
<path d="M35.7 31.9442L39.4 35.7442L35.2 39.9442L31.4 36.2442" stroke="white" stroke-width="2" stroke-linecap="round" stroke-linejoin="round"/>
<path d="M29.3 3.0442C29.3 3.0442 25 2.6442 19.3 9.1442C18.9 9.5442 18.9 10.1442 19.3 10.5442L22 13.2442C22.4 13.6442 22.6 14.0442 22.5 14.6442C22.5 15.1442 22.3 15.6442 21.9 15.9442L15.7 22.1442C15.5 22.3442 15.3 22.4442 15 22.4442C14.8 22.4442 14.5 22.3442 14.3 22.1442C14 21.5442 13.5 21.3442 13 21.4442C12.5 21.4442 12 21.6442 11.6 22.0442L11.2 22.4442C10.6 23.0442 10.5 23.9442 10.8 24.6442L11.2 25.4442C11.4 25.8442 11.3 26.2442 11 26.5442L9.4 28.0442C8.7 28.7442 7.5 28.8442 6.7 28.0442L1.4 22.7442C0.7 21.9442 0.7 20.7442 1.4 20.0442L3.1 18.5442C3.4 18.2442 3.8 18.1442 4.2 18.3442L5 18.7442C5.7 19.1442 6.6 18.9442 7.2 18.3442L7.6 17.9442C8 17.6442 8.2 17.1442 8.2 16.6442C8.2 16.1442 8 15.6442 7.6 15.3442C7.4 15.1442 7.3 14.9442 7.3 14.6442C7.3 14.3442 7.4 14.1442 7.6 13.9442L15.1 6.4442C15.2 6.4442 22.6 -1.6558 29.3 3.0442Z" stroke="white" stroke-width="2" stroke-linecap="round" stroke-linejoin="round"/>
</g>
<defs>
<clipPath id="clip0">
<rect width="60" height="60" fill="white" transform="translate(0 0.544189)"/>
</clipPath>
</defs>
</svg>
