<svg width="58" height="61" viewBox="0 0 58 61" fill="none" xmlns="http://www.w3.org/2000/svg">
<g clip-path="url(#clip0)">
<path d="M54.3 53.5442C55.1 53.5442 55.8 53.1442 56.1 52.4442C56.4 51.7442 56.4 50.9442 55.9 50.3442C49 41.2442 49.7 19.5442 49.7 19.5442V4.54419C49.7 2.84419 48.4 1.54419 46.7 1.54419H8.7V19.5442C8.7 19.5442 7.7 48.5442 18.7 53.5442H54.3Z" stroke="white" stroke-width="2" stroke-linecap="round" stroke-linejoin="round"/>
<path d="M8.70001 12.5442H49.7" stroke="white" stroke-width="2" stroke-linecap="round" stroke-linejoin="round"/>
<path d="M1.70001 8.54419V56.5442C1.70001 58.2442 3.00001 59.5442 4.70001 59.5442H45.1C46.1 59.5442 47 59.0442 47.6 58.2442L50.7 53.5442" stroke="white" stroke-width="2" stroke-linecap="round" stroke-linejoin="round"/>
<path d="M8.70001 24.5442V51.5442C8.70001 52.6442 9.60001 53.5442 10.7 53.5442H18.7" stroke="white" stroke-width="2" stroke-linecap="round" stroke-linejoin="round"/>
<path d="M9.20001 52.8442L2.60001 58.6442" stroke="white" stroke-width="2" stroke-linecap="round" stroke-linejoin="round"/>
<path d="M8.70001 1.54419L1.70001 8.54419" stroke="white" stroke-width="2" stroke-linecap="round" stroke-linejoin="round"/>
<path d="M8.70001 12.5442L1.70001 19.5442" stroke="white" stroke-width="2" stroke-linecap="round" stroke-linejoin="round"/>
<path d="M13.7 1.54419L8.70001 6.54419" stroke="white" stroke-width="2" stroke-linecap="round" stroke-linejoin="round"/>
<path d="M19.7 1.54419L8.70001 12.5442" stroke="white" stroke-width="2" stroke-linecap="round" stroke-linejoin="round"/>
<path d="M25.7 1.54419L14.7 12.5442" stroke="white" stroke-width="2" stroke-linecap="round" stroke-linejoin="round"/>
<path d="M31.7 1.54419L20.7 12.5442" stroke="white" stroke-width="2" stroke-linecap="round" stroke-linejoin="round"/>
<path d="M37.7 1.54419L26.7 12.5442" stroke="white" stroke-width="2" stroke-linecap="round" stroke-linejoin="round"/>
<path d="M43.7 1.54419L32.7 12.5442" stroke="white" stroke-width="2" stroke-linecap="round" stroke-linejoin="round"/>
<path d="M48.8 2.44421L38.7 12.5442" stroke="white" stroke-width="2" stroke-linecap="round" stroke-linejoin="round"/>
<path d="M49.7 7.54419L44.7 12.5442" stroke="white" stroke-width="2" stroke-linecap="round" stroke-linejoin="round"/>
<path d="M37.5 46.5442H31.5C29.1 40.3442 28.2 32.0442 27.9 25.9442L22.7 28.5442V22.5442L27.7 17.5442H33.7C33.7 17.5442 33.1 35.4442 37.5 46.5442Z" stroke="white" stroke-width="2" stroke-linecap="round" stroke-linejoin="round"/>
</g>
<defs>
<clipPath id="clip0">
<rect width="56.6" height="60" fill="white" transform="translate(0.700012 0.544189)"/>
</clipPath>
</defs>
</svg>
